<?xml version="1.0" encoding="UTF-8"?><svg id="_레이어_2" xmlns="http://www.w3.org/2000/svg" viewBox="0 0 511.36 192.82"><defs><style>.cls-1{stroke-width:6.24px;}.cls-1,.cls-2,.cls-3,.cls-4,.cls-5,.cls-6{fill:none;stroke:#000;stroke-linecap:round;stroke-linejoin:round;}.cls-2{stroke-width:4.63px;}.cls-3{stroke-width:4.54px;}.cls-4{stroke-width:4.19px;}.cls-5{stroke-width:4px;}.cls-6{stroke-width:3px;}.cls-7{fill:#f7f7f7;}</style></defs><g id="_레이어_1-2"><rect class="cls-7" width="511.36" height="192.82"/><path class="cls-3" d="M120.31,157.41l3.22-1.86-3.15,2.03c.8,1.38,3.73-2.16,3.73-2.16,0,0,2.97.92,3.4,1.65.05.09,6.18-4.79,6.71-3.87.26.45,2.64.28,2.64.28,1.43,2.48.46-.27.46-.27.34.58,3.6-.66,3.6-.66,1.61,2.78.98-.56.98-.56l2.17.24s9.99-9.53,11.62-6.71c1.02,1.77-5.81,3.81-5.62,4.14,0,0,2.33-2.8,2.96-1.71"/><path class="cls-3" d="M188.64,53.28l1.09-.63c.38.66-.58,3.53-.42,3.8,0,0,.91-1.41,1.29-.75l-.99,3.88c.18.32,1.38-.8,1.38-.8.03.05-1.5,1.46-1.34,1.75.04.06,1.12-1.32,1.41-.81.25.43-1.37,3.51-1.37,3.51.31.54,1.48-.86,1.48-.86,0,0-1.62,4.46-1.6,4.49l1.58-.91s-1.78.98-1.6,1.3c.45.78,1.03-1.88,1.59-.92,0,0-2.59,4.25-1.96,5.35.26.44,1.45-1.39,1.69-.98l-1.77,1.73,1.71-.99c.05.09-2.16,4.44-2.16,4.44l1.79-1.03s-1.94,1.82-1.91,1.88c.41.71,1.81-1.04,1.81-1.04,0,0-2.46,2.94-2.19,3.42l1.86-1.07-2.31,3.6,1.92-1.11c.11.19-2.52,4.15-2.52,4.15.22.37,1.34-2.27,1.99-1.15l-2.01,1.26,1.99-1.15c.68,1.18-2.66,4.21-2.66,4.21l2.06-1.19-2.69,3.79c.31.54,1.68-1.99,2.12-1.23l-2.68,3.37s2.09-1.4,2.17-1.25c0,0-3.02,4.11-2.98,4.18,0,0,1.77-2.13,2.25-1.3.86,1.49-3.13,4.24-3.13,4.24.26.45,2.33-1.34,2.33-1.34l-3.86,6.05s2.46-1.42,2.46-1.42l-2.49,1.49c.64,1.11,2.46-1.42,2.46-1.42.61,1.05-3.53,1.65-2.91,2.72,0,0,1.94-2.4,2.49-1.44l-2.68,1.96s2.27-1.87,2.51-1.45c.81,1.4-3.78,4.84-3.78,4.84.27.46,2.63-1.52,2.63-1.52,0,0-5.25,4-4.31,5.64.79,1.37,2.28-2.48,2.78-1.61.05.08-3.66,3.61-3.66,3.61,0,0,2.8-1.76,2.86-1.65,1.24,2.15-5.25,4.54-4.68,5.53,0,0,2.39-2.91,3.05-1.76.5.87-6.06,6.07-5.67,6.76l3.37-1.94-6.83,8.02c.12.21.38-1.26.83-.48l-2.09,4.78c.21.36.66-.67.79-.45.42.73-7.82,6.6-7.82,6.6,0,0,.16-3.7,1.72-.99"/><path class="cls-3" d="M130.05,101.85l1.29-.74c.47.82-1.81,4.15-1.62,4.49,0,0,1.14-1.65,1.57-.91l-1.34,4.09c.18.31,1.32-.76,1.32-.76.03.04-1.32,1.39-1.17,1.65.03.06,1-1.21,1.27-.73.21.36-.67,3.11-.67,3.11.28.48,1.18-.68,1.18-.68,0,0-.01,3.54,0,3.56l1.12-.65s-1.1.73-.98.94c.38.65.66-1.46,1.13-.65,0,0,.39,3,.82,3.74.21.36.95-1,1.15-.66l-.77,1.15,1.15-.66c.03.05.72,2.78.72,2.78l1.23-.71s-.74,1.17-.73,1.19c.34.58,1.24-.72,1.24-.72,0,0,.08,1.79.22,2.03l1.32-.76.37,2.06,1.4-.81c.05.1.78,2.24.78,2.24.19.32.98-1.86,1.54-.89l-1.45.93,1.54-.89c.32.55.86,2.17.86,2.17l1.71-.99.51,1.94c.29.51,1.51-1.83,1.92-1.11l.05,1.79s2.12-1.42,2.21-1.27c0,0,.79,1.97.8,1.99,0,0,2.29-2.61,2.85-1.65.35.61.74,2.01.74,2.01.34.59,3.44-1.98,3.44-1.98l3.34,1.89c.04.06,7.7-4.44,7.7-4.44l-.51.35c1.53,2.65.52-.3.52-.3,1.01,1.75-6.27,2.28-5.24,4.06,0,0,5.18-5.55,6.29-3.63l-5.22,3.42s4.99-3.86,5.42-3.13c.27.47-1.72,1.17-1.72,1.17.42.73.95-.55.95-.55"/><path class="cls-3" d="M353.39,145.95s4.05-2.91,4.29-2.48c.62,1.08,3.24,1.53,3.27,1.58,0,0,5.13-5.63,6.28-3.63l-4.35,2.95.24-.14c.37.65,10.46-3.27,11.1-2.17,0,0,.2-3.39,1.62-.94l1.7-.52s-1-3.71.86-.49l5.99-1.73s9.44-10.02,11.41-6.59c0,0-13.24,3.3-11.19,6.85.18.31,12.15-9.48,13.22-7.63"/><path class="cls-3" d="M431.37,49.02s.96-1.19,1.24-.71c0,0-1.77,3.11-1.56,3.47l1.72-.99c.33.57-1.88.92-1.74,1.15,0,0,1.43-1.5,1.72-1l-2.22,4.68,1.77-1.02-2.06,2.96,1.8-1.04s-2.53,5.16-2.48,5.23c0,0,1.8-1.15,1.85-1.07.02.04-2.04,2.11-2.04,2.11l1.87-1.08c.34.59-2.82,3.85-2.5,4.41.61,1.05,1.93-1.11,1.93-1.11l-2.04,1.67s1.78-1.4,1.94-1.12l-2.45,3.56s1.95-1.2,1.98-1.14c0,0-2.41.83-2.05,1.46,0,0,1.4-2.17,1.99-1.15.88,1.52-2.75,4.49-2.75,4.49l2.06-1.19s-2.38.69-2.07,1.23,1.65-1.89,2.06-1.19c.11.19-3.38,2.45-2.67,3.67.47.81,2.11-1.22,2.11-1.22.38.65-4.04,4.27-3.29,5.57.57.99,2.22-1.28,2.22-1.28.52.89-2.64,2.71-2.64,2.71,0,0,1.95-1.84,2.26-1.3.62,1.07-3.67,2.12-2.9,3.44.04.07,1.59-2.59,2.32-1.34,0,0-2.42,1.51-2.39,1.57,0,0,2.06-1.8,2.33-1.34.31.55-2.64,2.32-2.64,2.32.56.97,2.35-1.36,2.35-1.36.62,1.08-4.76,5.57-4.16,6.62.75,1.3,2.53-1.46,2.53-1.46,0,0-3.03,1.54-2.74,2.04l2.55-1.47s-4.84,4.46-4.17,5.63c.4.69,1.92-2.92,2.7-1.56,0,0-6.01,4.46-4.85,6.48.26.44,2.13-3.07,2.92-1.69l-5.15,6.2,3.19-1.84s-7.12,6.67-6.51,7.73c0,0,3.08-3.06,3.64-2.1.46.79-8.6,4.28-6.95,7.14.54.93,4.19-2.42,4.19-2.42,0,0-5.54,3.17-4.52,4.94l1.95-1.13s-10.73,5.82-9.45,8.05c.21.36,6.19-3.58,6.19-3.58,0,0-12.21,4-10.25,7.4.34.58,7.91-4.57,7.91-4.57"/><path class="cls-3" d="M268.75,98.26s.61-1.45,1.09-.63c.23.4-.25,1.65-.25,1.65l1.2-.7s.34,2.11.67,2.68c0,0,1.04-.93,1.18-.68.39.67.45,2.47.45,2.47.44.77.99-1.03,1.19-.69.21.36.55,2.34.76,2.7.28.48,1.11-.9,1.22-.71.23.4.55,2.22.7,2.48.04.07,1.28-.74,1.28-.74l.36,2.08c.31.54,1.2-1.03,1.35-.78.22.38-.88,1.1-.86,1.14,0,0,.83-1.73,1.37-.79,0,0-.11,1.44.1,1.8.07.12,1.27-1.17,1.46-.84,0,0,1.36,2.27,1.5,2.52,0,0,1.62-1.08,1.68-.97.08.15-.34,1.39-.19,1.65.34.58,1.57-1.48,1.82-1.05l-.75,1.48c.52.91,1.45-1.93,1.92-1.11l2.15,2.37s2.24-1.5,2.33-1.34c.21.37.59,1.96.59,1.96.56.96,2.28-2.22,2.67-1.54.03.06,2.61,1.98,2.7,2.15.17.3,3.59-2.07,3.59-2.07,0,0-1.02,1.84-.85,2.13,0,0,3.36-4.18,4.33-2.5.17.29-1.44,1.89-1.18,2.35.32.55,5.01-4.52,5.72-3.3.8,1.38,5.7-1.98,6.65-.34l12.23-7.06"/><path class="cls-3" d="M292.19,31.18l5.85-3.38-3.95,2.89s4.5-4.11,5.15-2.97l1.27,2.04,3.58-2.07c.14.24-.32,1.73-.17,1.99.14.24,3.04-1.76,3.04-1.76.16.27-3.05,1.18-2.71,1.76s2.5-2.58,2.99-1.73c.16.28-2.03,1.45-1.85,1.78.03.06,2.85-1.65,2.85-1.65.12.21-.44,1.78-.41,1.85.06.1,2.58-1.49,2.58-1.49,0,0,2.13,1.5,2.64,2.38.06.1,1.61-2.09,2.12-1.22,0,0-1.21,1.1-.97,1.51.21.36,2.04-1.18,2.04-1.18,0,0-.76,1.16-.5,1.61,0,0,1.69-1.55,1.94-1.12,0,0-.02,1.72,0,1.75l1.81-1.05c.09.15-.76,1.11-.52,1.53l1.75-1.01c.17.3.83,1.35.87,1.42.58,1.01-.14-1.13.38-.22.07.12,2.33,2.31,2.33,2.31.17.29,1.01-1.71,1.5-.87.18.31,1.55,2.63,1.65,2.79l1.38-.79s1.17,2.26,1.61,3.01c.45.79,1.27-.74,1.27-.74.41.71,1.46,3.23,1.46,3.23l1.21-.7s.1,1.9.41,2.43l1.18-.68c.11.19.65,2.92.77,3.12,0,0,.81-1.24,1.14-.66.37.65-.16,2.02.34,2.88,0,0,.94-.98,1.13-.65.47.81.02,2.67.02,2.67l1.13-.65-.08,2.86,1.14-.66c.24.42-.37,2.59-.37,2.59,0,0,1.13-.72,1.16-.67,0,0-1.17.91-.93,1.33,0,0,1-.98,1.18-.68.26.46-.63,2.47-.63,2.47.02.04,1.21-.7,1.21-.7.05.09-.82,2.23-.82,2.23l1.23-.71s-.85,2.52-.85,2.52c.28.49,1.22-.81,1.27-.73.14.24-1.11,1.61-1.11,1.61.05.09,1.26-.76,1.27-.74.07.12-1.4.88-1.2,1.23,0,0,1.06-1.15,1.29-.75.32.55-1.18,1.48-1.18,1.48.08.14.96-1.36,1.3-.75,0,0-1.45,1.43-1.17,1.92.05.08,1.07-1.23,1.34-.77.14.23-1.4,1.72-1.22,2.04,0,0,1.13-1.21,1.37-.79.03.05-1.68,1.45-1.28,2.14.09.16,1.4-.81,1.4-.81l-1.36,2.4c.37.64,1.45-.84,1.45-.84.2.34-1.46,2.11-1.46,2.11,0,0,1.28-1.24,1.5-.87.17.3-1.51,1.31-1.51,1.31.49.86,1-1.77,1.51-.87.05.08-1.79,4.65-1.79,4.65l1.67-.96c.53.92-1.95,2.36-1.87,2.49.49.85,1.29-1.8,1.74-1.01.17.29-2.07,2.88-2.07,2.88l1.84-1.06s-2.57,1.51-2.11,2.32c0,0,1.81-1.3,1.92-1.11.05.09-2.39,2.99-2.39,2.99.05.09,1.61-1.93,2.04-1.18.56.98-2.42,2.49-2.42,2.49l2.14-1.23s-4.33,5.71-4.01,6.27l2.59-1.5-4.3,4.95s2.58-2.54,3.03-1.75l-5.81,6.17c.19.32,3.86-2.23,3.86-2.23,0,0-5.01,2-4.43,3.02.75,1.3,3.98-2.44,4.04-2.33,1.79,3.1-9.43,8.35-9.43,8.35l6.37-3.68"/><path class="cls-3" d="M278.83,35.68l8.82-5.09c.76,1.31-20.49,15.78-20.49,15.78.53.92,5.26-3.04,5.26-3.04l-7.37,6.73,3.58-2.06-4.23,3.49s3.1-1.88,3.14-1.81c.12.21-4.64,2.5-3.91,3.76.16.28,1.97-2.84,2.71-1.56.16.28-2.4,3.27-2.02,3.94,0,0-.1-1.17.43-.25.59,1.02-2.78,1.9-2.5,2.38l2.15-1.24-2.89,4.59s1.63-1.63,1.93-1.11-2.28.57-1.94,1.16c.32.55,1.93-1.11,1.93-1.11l-2.57,4.99s1.38-1.75,1.79-1.04c.51.89-2.07,3.14-2.07,3.14.48.84,1.74-1.01,1.74-1.01.48.83-2.13,2.17-1.92,2.52,0,0,1.26-1.78,1.72-.99,0,0-1.92.93-1.74,1.24.54.94,1.71-.99,1.71-.99l-1.8,1.81,1.7-.98c.55.95-2.26,4.69-2.09,4.98.11.19,1.11-1.93,1.67-.97l-1.39,2.52s.74-1.53,1.22-.71"/><path class="cls-3" d="M319.79,99.42s.85-1.73,1.39-.8c.24.41-.34,1.7-.34,1.7l2.02-1.17s1.07,1.72,1.39,2.27c0,0,1.51-1.27,1.68-.97.37.64.92,2.2.92,2.2.5.87,1.28-1.25,1.5-.87.2.35.94,2.12,1.14,2.47.29.51,1.24-.99,1.36-.79.23.4.66,2.17.81,2.42.04.07,1.28-.74,1.28-.74l.29,2.12c.3.51,1.09-.95,1.22-.71.21.36-.83,1.07-.81,1.11,0,0,.71-1.58,1.21-.7,0,0-.27,1.51-.05,1.89.06.11,1.02-.98,1.19-.69,0,0,.6,2.69.75,2.96,0,0,1.1-.76,1.15-.67.09.16-.52,1.47-.36,1.75.26.45.93-.99,1.13-.65l-.66,1.43c.39.68.77-1.27,1.13-.65l.14,3.53s1.11-.78,1.17-.68c.28.49-.58,2.64-.58,2.64.35.61.97-1.13,1.22-.71.04.07-.66,3.83-.55,4.02.09.16,1.29-.75,1.29-.75,0,0-1.27,1.95-1.09,2.27,0,0,.88-1.55,1.33-.77.17.29-1.44,1.89-1.18,2.35.12.21,1.11-1.26,1.37-.79.59,1.02-1.9,3.56-1.19,4.78l1.46-.84-1.51,3.43c.29.51,1.3-1.33,1.55-.89l-1.89,4.16,1.74-1s-2.15,2.69-2.07,2.82l1.86-1.07c.27.47-1.93,1.37-1.93,1.37l1.89-1.09c.58,1.01-2.52,3.43-2.52,3.43l2.11-1.22c.77,1.34-4.22,6.27-4.22,6.27,0,0,2.03-3.04,2.84-1.64,0,0-3.22,1.21-2.91,1.76,0,0,2.59-2.14,2.87-1.65.67,1.17-3.52,1.94-3.27,2.37,0,0,2.68-2.34,3.02-1.75,0,0-8.66,4.35-7.06,7.13.65,1.12,4.59-3.45,4.94-2.85"/><path class="cls-3" d="M291.9,102.99l3.01-1.74c.51.88-13.11,11.52-13.11,11.52.45.78,4.25-2.45,4.25-2.45l-5.91,5.89,3.04-1.76-3.56,3.11s2.7-1.64,2.74-1.58c.11.18-3.98,2.32-3.34,3.43.15.26,1.73-2.58,2.41-1.39.14.24-1.73,3-1.39,3.58,0,0-.31-.96.18-.1.52.9-2.38,1.74-2.13,2.17l1.9-1.1-2.2,4.2s1.37-1.41,1.64-.95-1.93.48-1.64.99,1.64-.95,1.64-.95l-1.62,4.44s1.08-1.47,1.45-.84c.41.71-1.29,2.69-1.29,2.69.42.73,1.37-.79,1.37-.79.36.63-1.35,1.83-1.19,2.1,0,0,.93-1.44,1.32-.76,0,0-1.42.74-1.28.98.47.81,1.31-.76,1.31-.76l-1.19,1.45,1.29-.74c.41.72-.62,3.84-.5,4.06.09.16.74-1.51,1.21-.7l-.67,2.38s.71-1.49,1.18-.68c.43.75-.48,2.5-.48,2.5.01.02.98-.95,1.15-.66,0,0-.91,1.32-.72,1.65l1.14-.66s-1.13.71-1.02.91c0,0,.68-1.44,1.13-.66,0,0-.24,2.5.06,3.04.27.46,1.13-.65,1.13-.65.45.79.05,2.47.59,3.41,0,0,.65-1.51,1.14-.66l-.57,1.46,1.15-.66c.13.22.36,2.56.36,2.56,0,.01.81-1.3,1.17-.67.08.13,0,1.99,0,1.99.43.75,1.21-.7,1.21-.7,0,0,1.43,3.09,1.53,3.25.37.64,1.13-1.05,1.3-.75,0,0,.55,1.75.96,2.48.06.11,1.42-.82,1.42-.82.14.24-.64,1.34-.64,1.34.32.56,1.46-.84,1.46-.84.12.2,1.56,2.45,1.67,2.63,0,0,1.26-1.67,1.66-.96.25.43-.04,1.53.1,1.78,0,0,1.35-1.88,1.83-1.05,0,0,.11,1.4.4,1.9.33.57,1.71-1.76,2.04-1.18.18.31,1.78,2.23,1.78,2.23l2.55-1.47,1.2,2.05c.91,1.57,2.36-3.45,3.27-1.89.37.63,3.75,1.89,3.75,1.89,0,0,6.4-5.21,7.05-4.07.26.45,3.4-2.16,4.1-.94l5.49-3.17s-10.68,5.15-9.88,6.54c0,0,2.47-4.54,3.81-2.2"/><path class="cls-3" d="M228.2,153.05s.61-1.44,1.08-.62c.24.42-.38,1.73-.38,1.73l1.14-.66s.18,2.19.52,2.77c0,0,1.04-.93,1.18-.68.39.67.5,2.44.5,2.44.46.79,1.05-1.07,1.25-.72s.75,2.23.95,2.58c.29.51,1.26-1,1.37-.79.23.39.79,2.09.94,2.35.04.07,1.55-.89,1.55-.89l.51,1.99c.36.62,1.58-1.3,1.75-1.01.26.46-1.15,1.25-1.13,1.3,0,0,1.19-2.15,1.83-1.06,0,0-.12,1.45.09,1.81.09.15,1.85-1.6,2.08-1.2,0,0,1.83,1.99,1.98,2.25,0,0,2.8-1.83,2.89-1.67.11.18-.9,1.63-.71,1.96.53.92,3.21-2.76,3.6-2.08l-1.94,2.17c.93,1.61,3.57-4.01,4.41-2.55l4.97.68s5.81-4.22,6.19-3.57"/><path class="cls-3" d="M245.93,110.39l4.8-2.77-3.18,2.44s3.65-3.39,4.21-2.43l1.27,2.04,2.85-1.65c.13.23-.13,1.64.01,1.88.12.2,2.39-1.38,2.39-1.38.12.21-2.38.96-2.12,1.42s1.94-2.08,2.36-1.36c.13.23-1.55,1.26-1.4,1.52.03.05,2.23-1.29,2.23-1.29.11.2-.23,1.67-.2,1.73.05.09,1.99-1.15,1.99-1.15,0,0,1.72,1.78,2.21,2.63.05.09,1.19-1.68,1.62-.94,0,0-.92,1.01-.72,1.36.18.31,1.56-.9,1.56-.9,0,0-.6,1.11-.36,1.53,0,0,1.27-1.23,1.48-.86,0,0-.01,1.72,0,1.74l1.4-.81c.08.14-.64,1.07-.41,1.47l1.35-.78c.17.3.74,1.4.78,1.47.51.88-.43-.8.02-.01.07.12,1.73,2.66,1.73,2.66.15.26.76-1.45,1.2-.69.19.32.8,3.05.9,3.22l1.15-.67s.16,2.78.62,3.58c.43.75,1.14-.66,1.14-.66.46.79.22,3.94.22,3.94l1.19-.69s-.94,2.34-.57,2.99l1.25-.72c.14.25-.91,3.75-.77,4.01,0,0,.99-1.42,1.36-.78.53.91-2.02,2.64-1.33,3.84,0,0,1.31-1.26,1.53-.88.73,1.26-1.82,3.74-1.82,3.74l1.73-1-2.45,4.23,2.03-1.17c.48.84-3.09,4.16-3.09,4.16,0,0,2.38-1.48,2.43-1.4,0,0-3.48,1.48-2.9,2.47,0,0,2.33-1.97,2.6-1.5.65,1.13-4.32,4.6-4.32,4.6.04.07,3.27-1.89,3.27-1.89.16.28-5.52,4.94-5.52,4.94l4.3-2.48s-5.77,4.11-5.77,4.11c.7,1.22,4.98-3.13,5.09-2.94"/><path class="cls-3" d="M236,112.93l5.49-3.17c.58,1.01-15.36,12.82-15.36,12.82.43.74,3.99-2.3,3.99-2.3l-5.46,5.63,2.85-1.65-3.31,2.96s2.54-1.55,2.57-1.49c.1.17-3.69,2.24-3.09,3.28.14.25,1.62-2.45,2.27-1.31.13.23-1.47,2.89-1.15,3.44,0,0-.38-.89.1-.06s-2.25,1.69-2.02,2.1l1.83-1.05-2.08,4.13s1.35-1.4,1.62-.93-1.9.48-1.62.97,1.62-.93,1.62-.93l-1.3,2.22s.86-1.26,1.19-.69"/><path class="cls-3" d="M141.19,95.58s.65-1.49,1.13-.66c.31.54-.97,2.07-.97,2.07l1.33-.77s-.94,2.67-.54,3.38c0,0,1.01-.9,1.15-.66.42.73,0,2.73,0,2.73.43.75.94-.99,1.13-.65.21.36.42,2.4.64,2.77.28.48,1.11-.9,1.22-.71.23.4.67,2.16.81,2.42.04.07,1.41-.81,1.41-.81l.5,2c.34.59,1.46-1.22,1.62-.94.25.43-1.06,1.2-1.04,1.24,0,0,1.09-2.03,1.7-.98,0,0-.08,1.43.13,1.78.08.14,1.75-1.52,1.97-1.14,0,0,1.83,1.99,1.98,2.25,0,0,2.87-1.87,2.96-1.71.11.19-.98,1.66-.78,2,.67,1.16,4.36-3.66,4.86-2.8l3-.68c2.19,3.8.65-4.98,2.64-1.53l-5,3.92s1.13-1.24,1.38-.8"/><path class="cls-3" d="M156.1,77.45l3.26-1.88-2.04,1.79s2.42-2.36,2.83-1.64l1.17,2.1,1.9-1.1c.13.22.02,1.57.15,1.8.09.16,1.6-.92,1.6-.92.08.14-1.59.69-1.41,1.01.22.37,1.25-1.48,1.57-.91.1.17-1.01,1.04-.9,1.23.02.04,1.5-.87,1.5-.87.11.19-.14,1.62-.11,1.67.04.07,1.36-.79,1.36-.79,0,0,.9,2.26,1.38,3.11.04.07.81-1.31,1.18-.68,0,0-.82.97-.62,1.31.15.26,1.15-.67,1.15-.67,0,0-.71,1.15-.46,1.59,0,0,.95-.98,1.13-.65,0,0-.35,1.91-.33,1.94l1.13-.65c.09.16-.9,1.15-.64,1.6l1.13-.65c.24.41-.56,2.11-.5,2.21.49.84.73-1.42,1.16-.67.08.14-.41,3.89-.41,3.89.16.27.84-1.53,1.3-.75.26.45-1.43,4.25-1.3,4.49l1.61-.93s-3.89,4.29-3.07,5.71c.67,1.16,2.5-1.45,2.5-1.45.59,1.02-3.72,3.42-3.72,3.42l3.24-1.87"/><path class="cls-3" d="M149.57,78.01l2.2-1.27c.34.58-8.54,7.72-8.54,7.72.31.54,2.54-1.46,2.54-1.46"/><path class="cls-3" d="M255.06,124.1c.66,1.15,1.94-1.12,1.94-1.12,1.3,2.25-5.18,5.84-5.18,5.84,0,0,3.58-3.72,4.29-2.48.47.81-7.43,6.08-7.42,6.1l5.53-3.19s-7.52,2.24-6.44,4.11c.19.33,5.97-3.44,5.97-3.44,1.07,1.85-6.13,3.6-6.13,3.6,1.46,2.52,5.68-4.12,6.05-3.49"/><path class="cls-3" d="M219.45,79.96s4.56-3.19,4.8-2.77c0,0-.35,1.93-.26,2.1l3.3-1.91s-.84,1.63-.68,1.91c.21.37,2.25-2.41,2.73-1.58l2.4,2.41s1.48-2.03,1.99-1.15c.27.47-1.89,1.14-1.86,1.18.53.92,1.58-1.82,1.97-1.14,0,0,2.39,2.72,2.46,2.83,0,0,1.51-1.02,1.57-.91.02.04,1.49,2.41,1.71,2.8.1.17,1.38-.8,1.38-.8.12.2.04,1.8.04,1.8,0,0,.8-1.66,1.32-.76,0,0,1.05,2.38,1.46,3.09.08.13,1.23-.71,1.23-.71l-.8,1.11s.67-1.36,1.09-.63"/><path class="cls-3" d="M207.11,83.88s6.64-7.47,8.21-4.74c.6,1.03-9.44,4.3-8.48,5.95,2.06,3.57,10.21-9.45,11.75-6.78,0,0-22.81,6.14-19.24,12.33,1,1.73,7.38-4.26,7.38-4.26,1.58,2.73-11.3,7.21-10.31,8.91.68,1.18,3.83-2.21,3.83-2.21.62,1.08-5.06,3.72-4.8,4.18.58,1,2.37-3.36,3.24-1.87,1.12,1.94-4.54,4.23-4.34,4.57l2.67-1.54c.73,1.27-4.63,3.83-3.79,5.3,0,0,1.86-1.75,2.15-1.24.44.76-2.59,1.81-2.36,2.21.05.09,1.56-2.01,2.04-1.18,0,0-3.24,3.26-2.53,4.49.2.35,1.74-1.01,1.74-1.01.08.14-1.79,1.4-1.78,1.41l1.71-.99c.38.66-1.81,3.39-1.81,3.39.22.39,1.55-.89,1.55-.89,0,0-1.34,4.51-1.33,4.51.52.9,1.08-1.27,1.36-.79,0,0-1.48,2.24-1.08,2.93.51.88,1.07-1.17,1.31-.75l-1.22,1.31,1.31-.75-1.03,2.25c.14.24,1.27-.74,1.27-.74l-.62,3.51c.29.49.97-1.13,1.22-.7,0,0-1,2.2-.54,2.99l1.19-.68-.92,1.47c.45.78,1.17-.68,1.17-.68l-.54,2.38s.92-1.08,1.16-.67l-1.03.99c.04.06.7-1.45,1.15-.67l-.48,2.2c.03.06,1.07-.77,1.14-.66.39.67-.52,1.96-.29,2.36.35.61.7-1.4,1.13-.65.28.48.39,3.19.59,3.53l1.13-.65c.07.11.2,2.41.39,2.74.33.58,1.16-.67,1.16-.67,0,0,.39,2.11.89,2.98.34.58,1.22-.7,1.22-.7.11.19-.26,1.63-.26,1.63.52.91.89-1.36,1.25-.72.02.03-.52,1.39-.52,1.39.19.32.91-1.38,1.29-.74,0,0,.83,2.36.87,2.42.47.82,1.06-1.43,1.41-.81l.79,2.21s1.01-1.89,1.58-.91l.93,2.05.72-.41s.78.96.92,1.2l1.9-1.1-.07,1.75c.52.9,1.98-1.36,2.07-1.2.21.36-1.77,1.3-1.77,1.3.38.65,1.63-2.06,2.11-1.22.02.04-1.38,1.44-1.38,1.44.07.12,2.04-1.51,2.18-1.26.21.37.7,1.8.83,2.01.15.25,2.62-1.51,2.62-1.51.32.55-2.24,1.59-2.24,1.59,0,0,2.05-2.66,2.69-1.55,0,0-1.48,1.2-1.13,1.81l3-1.73c.14.24,1.21,2.01,1.24,2.06.89,1.54,3.46-4.13,4.38-2.53.31.54-2.1,2.49-2.1,2.49l5.99-3.46,4.49-.36c.08.14,11.41-6.59,11.41-6.59.59,1.02-7.47,4.85-7.47,4.85l2.6-1.5"/><path class="cls-4" d="M412.15,68.55c.48.83,1.14-.66,1.14-.66.64,1.11-1.56,3.54-1.56,3.54,0,0,1.3-1.59,1.67-.96.17.3-2.05,2.85-2.04,2.85l1.76-1.01s-2.18.86-1.85,1.43c.08.13,1.78-1.03,1.78-1.03.79,1.36-2.8,4.43-2.8,4.43.65,1.12,1.92-1.48,2.08-1.2,0,0-3.3,3.89-3.28,3.91.02.04,2.16-2.05,2.51-1.45,0,0-2.67,1.7-2.66,1.73.52.9,1.9-2.61,2.56-1.48,0,0-2.26,1.84-1.73,2.77.02.04.12-.07.12-.07"/><path class="cls-4" d="M384.58,42.39s4.24-2.96,4.46-2.57c0,0-.34,1.79-.25,1.95l3.15-1.82s-.81,1.52-.66,1.78c.2.35,2.19-2.32,2.64-1.53l2.36,2.14s1.49-2,1.98-1.15c.27.47-1.88,1.13-1.86,1.17.52.89,1.59-1.79,1.97-1.14,0,0,1.63,2.09,1.67,2.17,0,0,1.14-.78,1.2-.69"/><path class="cls-4" d="M373.86,45.62s5.55-6.4,6.93-4c.5.86-7.87,3.67-7.07,5.05,1.82,3.16,8.68-8.16,10.04-5.8,0,0-19.98,5.42-16.85,10.85.89,1.54,6.5-3.75,6.5-3.75,1.38,2.39-9.83,6.42-8.97,7.91.6,1.04,3.31-1.91,3.31-1.91.54.94-4.35,3.29-4.12,3.68.51.88,2.04-2.93,2.8-1.62.97,1.68-3.85,3.74-3.68,4.04l2.31-1.33c.63,1.1-3.87,3.42-3.14,4.69,0,0,1.58-1.5,1.83-1.06.37.65-2.17,1.58-1.98,1.92.05.08,1.32-1.73,1.74-1.01,0,0-2.63,2.9-2.02,3.96.18.31,1.48-.86,1.48-.86.07.12-1.5,1.21-1.5,1.22l1.46-.84c.32.56-1.41,2.98-1.41,2.98.2.34,1.32-.76,1.32-.76,0,0-.87,3.95-.87,3.95.46.8.91-1.1,1.16-.67,0,0-1.02,1.95-.69,2.53.45.78.89-1.01,1.11-.64l-.95,1.11,1.08-.63-.62,1.89c.12.21,1.06-.61,1.06-.61l-.08,2.96c.26.44.83-.99,1.05-.61,0,0-.49,1.88-.11,2.53l1.04-.6-.69,1.27c.41.71,1.04-.6,1.04-.6l-.22,2.03s.83-.98,1.05-.61l-.88.87c.03.06.64-1.32,1.05-.61l-.2,1.89c.03.06,1-.72,1.06-.61.33.57-.2,1.69,0,2.03.33.57.68-1.33,1.09-.63.25.43.87,2.67,1.04,2.97l1.18-.68c.06.1.57,2.02.74,2.32.34.59,1.31-.76,1.31-.76,0,0,.91,1.66,1.36,2.44.37.65,1.6-.92,1.6-.92.1.18-.28,1.53-.28,1.53.61,1.06,1.36-1.78,1.79-1.03.02.04-.74,1.43-.74,1.43.23.4,1.52-1.93,1.98-1.14,0,0,1.24,1.9,1.28,1.96.7,1.22,2.3-2.55,2.83-1.64l1,1.89s2.94-4.06,3.96-2.29l.9,1.87,4.23-2.44s2.92-.76,3.21-.26l6.76-3.9-5.71,4.62c1.86,3.23,2.67-2.34,3.02-1.74"/><path class="cls-2" d="M99.42,137.32c4.36,7.56,13.53-7.81,13.53-7.81,1.78,3.08-8.53,6.5-8.53,6.5,0,0,1.96-6.2,4.16-2.4"/><path class="cls-2" d="M81.64,82.93s5.32-3.7,5.59-3.23c0,0-.58,2.09-.48,2.27l4.13-2.39c.03.05-1.19,1.81-1.01,2.13.26.45,2.94-3.03,3.52-2.03l2.84,2.23s1.96-2.53,2.57-1.48c.35.61-2.45,1.45-2.42,1.5.63,1.09,2.09-2.28,2.55-1.47,0,0,2.91,2.5,2.98,2.62,0,0,1.79-1.19,1.86-1.08.02.04,1.71,2.35,1.94,2.75.1.18,1.52-.88,1.52-.88.12.21.04,1.84.04,1.84,0,0,.88-1.76,1.42-.82,0,0,1.09,2.42,1.51,3.15.08.14,1.3-.75,1.3-.75l.28,2.34s.8-1.51,1.25-.72v2.19s1.24-.71,1.24-.71c.51.88.34,2.78.63,3.27l1.2-.69c.57.99.28,3.31.54,3.77l1.2-.69.05,3.55,1.21-.7-.73,2.08,1.23-.71-1,1.45,1.24-.72s-1.22.89-1.17.96c.21.36.96-1.21,1.25-.72,0,0-.76,2.77-.72,2.84,0,0,1.11-1.04,1.28-.74.06.11-1.1,1.72-1.1,1.72,0,0,1.18-.97,1.31-.75.11.19-1.31.97-1.23,1.11,0,0,.72-.53.77-.44.02.03-.67,1.27-.67,1.27,0,0,1.08-1.23,1.34-.77.45.78-1.66,3.67-1.12,4.61.35.61,1.51-.87,1.51-.87.6,1.04-2.04,4.22-1.82,4.6,0,0,1.31-1.79,1.76-1.01l-2.17,3.06s1.94-1.16,1.96-1.13c.46.8-2.53,2.79-2.46,2.92,0,0,1.91-1.71,2.17-1.26,0,0-2.51,1.05-2.25,1.51.38.65,2.15-1.34,2.2-1.27l-3.36,4.13c.26.46,1.95-2.81,2.68-1.55.08.14-2.88,1.97-2.88,1.97l2.76-1.59-3.91,3.65c.09.15,2.63-2.95,3.25-1.88,0,0-5.42,2.76-4.71,4,1,1.73,3.92-2.27,3.92-2.27,1.31,2.28-6.71,5.44-6.71,5.44,0,0,4.94-4.03,5.45-3.15"/><path class="cls-2" d="M71.19,85.7s4.86-6,6.24-3.6c.41.71-6.3,3.2-5.64,4.33,1.81,3.14,7.78-7.63,9.14-5.28,0,0-19.08,5.32-16.08,10.52.74,1.28,5.07-2.93,5.07-2.93,1.22,2.11-8.29,6.05-7.53,7.37.64,1.1,3.46-2,3.46-2,.59,1.02-4.74,3.6-4.49,4.03.59,1.02,2.41-3.42,3.29-1.9,1.18,2.04-4.8,4.4-4.59,4.77l3.01-1.74c.82,1.42-5.42,4.12-4.47,5.76,0,0,2.21-2.03,2.54-1.46.51.88-3.09,2.03-2.83,2.49.06.1,1.87-2.32,2.41-1.39,0,0-3.85,3.49-3.06,4.86.22.38,1.95-1.12,1.95-1.12.09.15-1.99,1.53-1.99,1.53l1.89-1.09c.4.69-1.96,3.53-1.96,3.53.23.4,1.59-.92,1.59-.92,0,0-1.14,4.47-1.13,4.47.5.87.98-1.19,1.25-.72,0,0-1.04,2.13-.68,2.75.48.83.91-1.05,1.13-.65l-.95,1.17,1.11-.64-.56,2.02c.13.22,1.07-.62,1.07-.62l.18,3.12c.27.47.82-1.02,1.06-.61,0,0-.22,1.95.18,2.63l1.08-.62-.61,1.32c.44.77,1.09-.63,1.09-.63l-.02,2.12s.89-1.06,1.12-.65l-.92.93c.04.06.68-1.44,1.13-.65l-.07,2.01c.04.06,1.09-.79,1.16-.67.36.62-.11,1.82.1,2.18.36.63.74-1.46,1.19-.69.22.38.5,2.5.65,2.77l1.11-.64"/><path class="cls-2" d="M37.09,88.27s.98-1.18,1.25-.72c.09.16-.81,1.2-.66,1.45.31.53,1.46-1.37,1.69-.98,0,0-.75,1.1-.5,1.53.34.59,1.65-.95,1.65-.95.3.53.92,2.05,1.11,2.38.37.65,1.5-.87,1.5-.87.16.28-.35,1.49-.28,1.6.35.61.92-1.74,1.44-.83.35.61.18,1.86.25,1.97l1.37-.79c.31.54.58,2,.95,2.63,0,0,1.07-1.12,1.29-.74.2.34-.8,1.09-.7,1.26.04.07.89-1.37,1.26-.73,0,0,.31,2.03.69,2.69.17.29,1.21-.7,1.21-.7.05.08-.98.95-.98.95l1.2-.69c.23.4.14,2.32.14,2.32.2.34,1.18-.68,1.18-.68,0,0,.71,3.41.71,3.41.48.84.89-1.12,1.16-.67,0,0-.46,1.9-.15,2.44.48.84.93-1.07,1.16-.67l-.91,1.15,1.16-.67-.52,2c.13.23,1.16-.67,1.16-.67l-.13,3.3c.29.5.95-1.12,1.19-.69,0,0-.95,2.23-.49,3.02l1.24-.71-1.02,1.55c.47.82,1.25-.72,1.25-.72l-.87,2.61s1.04-1.19,1.3-.75l-1.23,1.11c.04.07.82-1.6,1.31-.76l-1.05,2.57c.04.07,1.28-.91,1.35-.78.52.89-1.49,2.4-1.19,2.93.4.69.94-1.67,1.43-.82.39.68-1.72,4.31-1.45,4.79l1.59-.92c.11.19-2.26,3.6-1.94,4.15.42.73,1.77-1.02,1.77-1.02,0,0-3.56,3.49-2.63,5.09.45.78,2.07-1.19,2.07-1.19.26.46-2.62,3.02-2.62,3.02.73,1.27,1.72-2.18,2.24-1.29.05.09-2.74,2.69-2.74,2.69.27.46,1.85-2.31,2.39-1.38,0,0-3.6,4.86-3.52,5.01.62,1.08,1.77-2.1,2.24-1.29l-1.99,1.71s1.1-2.02,1.7-.98"/><path class="cls-3" d="M472.01,100.7c.67,1.17,1.99-1.15,1.99-1.15.84,1.45-3.71,3.43-3.71,3.43,0,0,3.34-3.5,4.02-2.32"/><path class="cls-3" d="M454.48,73.7s3.21-2.28,3.4-1.96c0,0,.02,1.74.1,1.89l2.22-1.28s-.41,1.44-.28,1.68c.16.28,1.43-1.67,1.79-1.04l.31,1.89s.79-1.34,1.17-.68"/><path class="cls-3" d="M445.41,75.74s3.79-5.05,5.03-2.9c.34.6-5.24,2.8-4.68,3.75,1.61,2.79,6.16-6.34,7.37-4.25,0,0-16.94,4.82-14.26,9.45.78,1.35,5.45-3.15,5.45-3.15,1.16,2.01-7.83,5.81-7.11,7.06.52.9,2.62-1.51,2.62-1.51.43.74-3.21,2.84-3.03,3.16.44.77,1.51-2.39,2.17-1.25.76,1.32-2.6,3.26-2.47,3.49l1.75-1.01c.51.89-2.45,3.15-1.85,4.18,0,0,1.27-1.28,1.5-.87.3.52-1.62,1.41-1.46,1.68.04.08,1.05-1.51,1.44-.83,0,0-1.56,2.73-1.04,3.63.17.29,1.26-.73,1.26-.73.06.1-1.18,1.06-1.18,1.06l1.24-.71c.27.47-.62,2.71-.62,2.71.19.33,1.16-.67,1.16-.67,0,0,.3,3.56.3,3.56.47.81.86-1.08,1.12-.64,0,0-.25,1.78.04,2.28.47.82.92-1.05,1.14-.66l-.81,1.07,1.16-.67-.19,1.77c.13.23,1.19-.69,1.19-.69l.84,2.67c.29.5,1.01-1.16,1.26-.73,0,0,.26,1.7.62,2.32l1.36-.79-.64,1.31c.5.86,1.43-.82,1.43-.82l.29,1.9s1.33-1.42,1.62-.93l-1.27,1.12c.05.08,1.12-1.92,1.67-.97l.17,1.82c.05.08,1.9-1.3,1.99-1.15.32.56.27,1.6.46,1.93.57.99,1.94-2.73,2.63-1.52.88,1.53,10.41-3.58,11.03-2.5l5.79-3.34c.18.32-6.73,3.53-6.19,4.46,1.61,2.79,2.51-1.45,2.51-1.45"/><path class="cls-3" d="M414.77,125.62s1.25-.96,1.36-.78c0,0-2.02,2.74-1.86,3.03l2-1.15c.05.08-2.61,2.35-2.32,2.85.17.29,1.53-1.77,1.91-1.1l-2.44,5.2s1.21-1.77,1.68-.97c.25.43-1.71,1.04-1.68,1.08.48.83,1.31-1.58,1.67-.96,0,0-1.82,5.08-1.72,5.24,0,0,1.36-.92,1.42-.82.03.06-1.23,3.8-.93,4.32.09.16,1.23-.71,1.23-.71.16.28-.82,2.29-.82,2.29,0,0,.69-1.53,1.18-.68,0,0-.32,3.05.14,3.86.07.12,1.11-.64,1.11-.64v2.45s.68-1.38,1.1-.64v2.14s1.16-.67,1.16-.67c.48.83.76,2.5,1.03,2.96l1.24-.72c.52.9,1.39,2.64,1.63,3.06l1.37-.79,1.45,2.66,1.48-.86-.09,1.68,1.55-.89-.81,1.31,1.65-.95s-1.44,1-1.4,1.08c.24.42,1.35-1.54,1.68-.97,0,0,.63,1.94.66,1.99,0,0,1.93-1.64,2.15-1.24.06.1-.96,1.61-.96,1.61,0,0,2.31-1.75,2.49-1.44.16.28-2.13,1.33-2.01,1.55,0,0,2.04-1.34,2.11-1.22.01.02-.19.97-.19.97,0,0-.42-.75,0,0,.81,1.41,7.55-2.75,8.53-1.04,2.32,4.02,12.77-7.37,12.77-7.37,1.41,2.43-10.14,5.48-9.63,6.36,0,0,4.05-7.42,6.25-3.61"/><path class="cls-3" d="M436.72,110.42s1.25-1.4,1.55-.89c.11.19-1.14,1.31-.97,1.61.37.64,2.05-1.82,2.32-1.34,0,0-1.11,1.18-.82,1.69.41.72,2.3-1.33,2.3-1.33.3.51,1.16,1.86,1.35,2.18.42.73,1.9-1.1,1.9-1.1.16.28-.42,1.49-.35,1.61.39.67,1.18-2.02,1.76-1.02.34.59.26,1.78.32,1.88l1.6-.92c.3.53.82,1.82,1.18,2.43,0,0,1.19-1.21,1.42-.82.2.34-.83,1.08-.73,1.26.04.07,1-1.46,1.38-.8,0,0,.51,1.88.88,2.52.17.29,1.26-.73,1.26-.73.05.09-1,.95-1,.96l1.25-.72c.22.38.27,2.19.27,2.19.2.34,1.2-.69,1.2-.69,0,0,.88,3.23.88,3.23.48.82.89-1.1,1.14-.66,0,0-.36,1.82-.06,2.34.47.82.91-1.04,1.13-.65l-.87,1.11,1.13-.65-.47,1.93c.13.22,1.13-.65,1.13-.65l-.1,3.21c.28.49.93-1.09,1.17-.67,0,0-.96,2.19-.51,2.97l1.22-.71-1.04,1.54c.47.81,1.24-.72,1.24-.72l-.96,2.62s1.07-1.2,1.32-.76l-1.28,1.13c.04.07.85-1.61,1.33-.77l-1.24,2.64c.04.07,1.36-.96,1.44-.83.56.97-1.86,2.5-1.53,3.07.42.72,1.07-1.8,1.59-.92.46.79-2.8,4.74-2.47,5.3l2.07-1.2c.16.27-4.41,4.45-3.95,5.25.58,1.01,2.98-1.72,2.98-1.72,0,0-5.76,2.33-4.75,4.08.71,1.24,4.03-2.33,4.03-2.33"/><path class="cls-3" d="M351.43,120.36c.49.84,1.08-.62,1.08-.62.44.76.46,2.59.46,2.59,0,0,.88-1.24,1.19-.69.09.16-.06,1.84-.06,1.85l1.26-.73s-1.2.63-1,.97c.07.12,1.27-.73,1.27-.73.4.7.92,2.51.92,2.51.54.94,1.32-1.08,1.45-.84,0,0,.35,1.96.35,1.97.02.03,1.39-1.45,1.67-.96,0,0-1.49,1.05-1.48,1.07.41.72,1.17-1.88,1.7-.98,0,0,.66,1.51,1.05,2.19.02.03,2.22-1.28,2.22-1.28.02.03-1.78,1.12-1.56,1.5,0,0,2.12-1.88,2.41-1.39,0,0-2.47.84-2.1,1.48,0,0,2.03-2.23,2.49-1.44.02.04-.14,1.79-.04,1.97.14.24,3.43-2.39,3.61-2.09.25.44,3.65-.49,4.41.82,1.57,2.72,6.87-6.73,8.06-4.66.17.29-8.07,4.46-7.96,4.65,0,0,6.12-8.56,8.29-4.79"/><path class="cls-3" d="M364.03,91.26s3.66-2.58,3.86-2.23c0,0-.09,1.8,0,1.95l2.65-1.53s-.56,1.51-.42,1.76c.19.32,1.78-1.99,2.2-1.27l2.16,2.55s1.16-1.71,1.61-.93c.22.39-1.53.94-1.51.98.47.81,1.25-1.52,1.6-.92,0,0,1.97,2.96,2.03,3.07,0,0,1.23-.84,1.29-.74.02.04.96,2.71,1.19,3.1.09.15,1.16-.67,1.16-.67.13.22-.19,1.93-.19,1.93,0,0,.64-1.48,1.12-.65,0,0-.04,2.93.41,3.7.07.13,1.17-.67,1.17-.67l-.63,2.81s.81-1.51,1.26-.73l-1.02,2.73,1.36-.78c.69,1.2-1.73,3.67-1.35,4.33l1.55-.9c.86,1.49-2.63,4.59-2.23,5.28l1.9-1.1-2.99,5.22.97-.56-2.61,2.86,3.13-1.81"/><path class="cls-3" d="M354.75,93.41s3.95-5.19,5.21-3.01c.25.44-3.66,2.23-3.26,2.93,1.48,2.57,4.99-5.44,6.1-3.52,0,0-11.33,2.9-9.57,5.95s3.97-2.29,3.97-2.29"/><path class="cls-3" d="M138.9,84.44c2.92,5.06,6.7-3.87,6.7-3.87,1.22,2.12-5.98,4.32-5.98,4.32,0,0,.85-4.16,2.44-1.41"/><path class="cls-3" d="M124.77,40.8s3.61-2.55,3.81-2.2c0,0-.11,1.81-.02,1.96l2.86-1.65s-.7,1.57-.55,1.83c.2.35,2.09-2.27,2.55-1.47l2.42,2.4s1.47-2.02,1.98-1.14c.27.47-1.88,1.13-1.86,1.18.53.92,1.58-1.81,1.97-1.14,0,0,2.33,2.75,2.39,2.86,0,0,1.47-.99,1.53-.89.02.04,1.27,2.54,1.49,2.92.09.16,1.29-.75,1.29-.75.12.21-.1,1.88-.1,1.88,0,0,.72-1.57,1.22-.71,0,0,.41,2.71.84,3.45.07.13,1.15-.66,1.15-.66l-.19,2.56s.72-1.42,1.15-.67l-.5,2.44,1.18-.68c.58,1-.7,3.22-.38,3.77l1.23-.71c.65,1.13-.81,3.77-.51,4.29l1.27-.73-.86,4,1.34-.77-1.24,2.34,1.38-.8-1.36,1.63,1.41-.82s-1.46,1.01-1.41,1.09c.22.38,1.13-1.35,1.43-.83,0,0-1.58,3.18-1.54,3.26,0,0,1.37-1.22,1.56-.9.08.14-1.69,2.04-1.69,2.04,0,0,1.5-1.19,1.64-.95s-1.8,1.18-1.69,1.37c0,0,1.1-.75,1.15-.66.03.04-1.36,1.65-1.36,1.65,0,0,1.48-1.55,1.78-1.03.68,1.18-4.63,4.66-3.81,6.08.51.89,2.83-1.64,2.83-1.64.74,1.29-4.87,3.55-4.6,4.01,0,0,3.16-3.57,3.92-2.26"/><path class="cls-3" d="M113.88,43.86s5.34-6.36,6.76-3.9c.49.85-7.67,3.66-6.88,5.02,1.86,3.22,8.36-8.03,9.74-5.63,0,0-20.31,5.57-17.12,11.1.97,1.69,7.14-4.12,7.14-4.12,1.51,2.62-10.78,7-9.84,8.63.66,1.14,3.67-2.12,3.67-2.12.6,1.03-4.81,3.6-4.55,4.04.56.97,2.26-3.23,3.09-1.79,1.07,1.85-4.25,4.08-4.06,4.41l2.54-1.46c.69,1.2-4.22,3.71-3.43,5.09,0,0,1.72-1.63,1.99-1.15.4.7-2.36,1.71-2.14,2.08.05.09,1.44-1.88,1.89-1.09,0,0-2.79,3.12-2.13,4.26.19.33,1.58-.91,1.58-.91.07.13-1.59,1.29-1.59,1.3l1.56-.9c.34.59-1.44,3.18-1.44,3.18.21.37,1.39-.8,1.39-.8,0,0-.79,4.19-.79,4.19.49.84.94-1.15,1.21-.7,0,0-.96,2.06-.61,2.66.47.82.92-1.05,1.14-.66l-.96,1.16,1.13-.65-.57,1.99c.13.22,1.1-.64,1.1-.64l.16,3.06c.27.47.85-1.03,1.09-.63,0,0-.19,1.9.19,2.57l1.12-.64-.62,1.3c.44.77,1.13-.65,1.13-.65l.03,2.05s.93-1.09,1.17-.67l-.93.93c.04.07.72-1.47,1.18-.68l.02,1.91c.04.06,1.15-.82,1.22-.7.34.58.05,1.7.25,2.05.37.65.83-1.54,1.29-.74.13.22-.29,1.48-.2,1.64l1.11-.64"/><path class="cls-6" d="M257.13,91.46c.35.61,5.57-4.6,6.17-3.56.96,1.67-5.32,2.36-4.29,4.14.71,1.23,6.77-4.83,7.17-4.14"/><path class="cls-6" d="M256.76,88.5c.81,1.4,6.97-6.79,8.17-4.72,2.84,4.92-10.42,3.86-7.99,8.08.11.19,4.23-4.03,4.92-2.84.33.58-2.08,4.33-1.79,4.84,1.52,2.64,3.86-4.91,5.02-2.9.28.49-8.63,3.83-7.83,5.21,0,0,8.53-7.09,9.47-5.46"/><path class="cls-5" d="M337.71,147.25c.3.52,2.2-2.55,2.75-1.59.06.11,1.75,1.03,1.9,1.29,1.2,2.09,4.11-3.57,4.63-2.67"/><path class="cls-5" d="M333.02,147.25c.46.8,1.36-2.41,2.06-1.19.18.32-1.16,1.11-.99,1.39,1.24,2.15,1.26-2.99,2.24-1.29"/><path class="cls-5" d="M327.43,146.41c.96,1.67,1.7-.98,1.7-.98.2.35.19,1.09.53,1.66.93,1.62,1.63-.94,1.63-.94"/><path class="cls-5" d="M323.74,146.29s1.32-1.19,1.51-.87c.33.58-1.24,1.16-1.24,1.16.04.07,1.12-1.91,1.67-.96"/><path class="cls-5" d="M319.46,145.25c.35.6.35-1.79,1.04-.6.29.5-.36,1.19-.25,1.38,0,0,1.15-3.07,2.19-1.27"/><path class="cls-5" d="M301.14,138.33c.17.3.05-1.04.49-.28,2.01,3.47,14.1,5.48,14.86,6.79.05.1.55-1.01.85-.49"/><path class="cls-5" d="M112.01,159.33c.97,1.68,1.56-3.45,2.66-1.54.45.78,1.84.4,2.3,1.19.83,1.44,3.28-4.21,4.28-2.47"/><path class="cls-5" d="M108.08,159.49c1.05,1.81.81-3.21,2-1.15.04.07-1.61,1.22-1.61,1.22,1.01,1.76,2.26-1.31,2.26-1.31"/><path class="cls-5" d="M101.74,158.53c.62,1.07.93-2.56,1.8-1.04.39.67-2.02.62-1.75,1.08.21.37,1.64-1.32,1.8-1.04.01.02.08,1.1.41,1.68.8,1.39.81-2.55,1.71-.99"/><path class="cls-5" d="M98,158.52c.78,1.35.62-2.8,1.68-.97.07.12-1.64.83-1.34,1.35.69,1.19,1.76-2.98,2.61-1.51"/><path class="cls-5" d="M93.79,157.59c.04.07.86-1.31,1.22-.7.05.09-.04,1.13-.02,1.17.48.83-.29-2.8.99-.57"/><path class="cls-5" d="M69.01,149.04c.19.33.36-1.31.84-.48,2.43,4.2,17.03,6.7,17.95,8.29.07.13,1.72-1.92,2.12-1.22"/><polyline class="cls-1" points="305.57 69.02 306.07 68.4 306.71 68.35 306.62 69.08 306.54 69.81 306.45 70.55 307.03 70.21 307.6 69.86"/><polyline class="cls-1" points="298.94 69.66 299.68 69.77 300.45 69.62 301.1 69.16 301.73 68.69 302.32 68.17 303 67.75 303.53 67.16 304.15 66.69 303.71 67.27 303.14 67.76 302.71 68.38 302.11 68.85 301.61 69.41 301.14 70 300.6 70.53 300.01 71.01 299.48 71.54 299.03 72.14 299.61 71.56 300.35 71.29 299.73 71.79 298.97 72.13 299.71 72.06 300.31 71.42 300.24 72.15 300.18 72.94 300.29 73.73 300.27 74.45 300.89 74.12 301.46 73.85 301.06 74.29 300.65 74.76 301.29 74.35 302.04 74.01 302.29 74.62 302.36 75.29 302.6 75.82 303.25 75.5 303.95 75.23 304.53 74.76 305.22 74.49 305.83 74.06 306.45 73.64 307.1 73.29 307.77 72.96"/></g></svg>