<?xml version="1.0" encoding="UTF-8"?><svg id="_레이어_2" xmlns="http://www.w3.org/2000/svg" viewBox="0 0 181.55 192.82"><defs><style>.cls-1{fill:none;stroke:#000;stroke-linecap:round;stroke-linejoin:round;stroke-width:4.25px;}.cls-2{fill:#f7f7f7;}</style></defs><g id="_레이어_1-2"><rect class="cls-2" width="181.55" height="192.82"/><path class="cls-1" d="M120.55,117.92s.44-1.01.77-.44c.21.37-.65,1.4-.65,1.4l.9-.52s-.64,1.81-.36,2.28c0,0,.68-.61.78-.45.29.5,0,1.85,0,1.85.29.51.63-.67.76-.44.14.25.29,1.62.43,1.87.19.33.75-.61.83-.48.16.27.45,1.46.55,1.63.03.05.95-.55.95-.55l.34,1.35c.23.4.99-.82,1.1-.63.17.29-.72.81-.7.84,0,0,.74-1.37,1.15-.66,0,0-.05.96.09,1.21.06.1,1.18-1.03,1.33-.77,0,0,1.24,1.34,1.34,1.52,0,0,1.94-1.26,2-1.16.07.13-.66,1.12-.53,1.35.45.78,2.95-2.48,3.28-1.9l2.03-.46c1.48,2.57.44-3.36,1.79-1.03l-3.38,2.65s.76-.84.94-.54"/><path class="cls-1" d="M130.63,105.67l2.2-1.27-1.38,1.21s1.63-1.59,1.91-1.11l.79,1.42,1.28-.74c.09.15.01,1.06.1,1.22.06.11,1.08-.62,1.08-.62.06.1-1.07.47-.95.68.15.25.84-1,1.06-.61.07.11-.68.7-.61.83.01.03,1.01-.59,1.01-.59.07.13-.09,1.09-.07,1.13.03.05.92-.53.92-.53,0,0,.61,1.53.94,2.1.03.05.55-.88.79-.46,0,0-.55.66-.42.88.1.18.78-.45.78-.45,0,0-.48.78-.31,1.07,0,0,.64-.66.77-.44,0,0-.23,1.29-.22,1.31l.76-.44c.06.11-.61.78-.43,1.08l.76-.44c.16.28-.38,1.43-.34,1.49.33.57.49-.96.78-.45.06.1-.28,2.63-.28,2.63.11.18.57-1.04.88-.51.18.3-.97,2.87-.88,3.03l1.09-.63s-2.63,2.9-2.08,3.86c.45.79,1.69-.98,1.69-.98.4.69-2.52,2.31-2.52,2.31l2.19-1.26"/><path class="cls-1" d="M126.22,106.05l1.49-.86c.23.39-5.77,5.22-5.77,5.22.21.36,1.71-.99,1.71-.99"/><path class="cls-1" d="M95.33,102.57s.49-1.06.83-.48c.25.43-.93,1.56-.93,1.56l1.13-.65s-1.73,2.21-1.36,2.86c0,0,1.03-.86,1.14-.66.46.8-1.38,2.64-1.38,2.64.37.64,1.01-.96,1.17-.68.25.43-1.78,2.56-1.53,3,.23.4,1.13-.86,1.22-.71.3.52-1.86,2.58-1.67,2.91.03.06,1.3-.75,1.3-.75l-1.78,2.57c.27.47,1.29-1.04,1.41-.82.32.55-1.61,1.29-1.58,1.34,0,0,.98-1.66,1.45-.84,0,0-2.25,1.75-1.9,2.35.06.11-.05-.36.12-.07,0,0-1.98,3-1.79,3.33,0,0,2.05-1.33,2.12-1.22.22.38-3.66,2.23-3.25,2.92.38.65,2.31-1.98,2.59-1.49l-3.58,2.78c.63,1.1,2.44-2.73,3.01-1.74l-5.37,4.25s4.04-2.62,4.17-2.41"/><path class="cls-1" d="M61.76,77.98l4.14-2.39-2.8,2.03s3.17-2.89,3.63-2.1l.85,1.38,2.47-1.43c.1.17-.23,1.18-.13,1.35.09.16,2.09-1.21,2.09-1.21.11.19-2.1.81-1.87,1.21s1.72-1.76,2.05-1.19c.11.19-1.39.99-1.27,1.21.02.04,1.95-1.12,1.95-1.12.08.14-.3,1.21-.28,1.25.04.07,1.74-1.01,1.74-1.01,0,0,1.43,1.02,1.77,1.62.04.07,1.08-1.4,1.42-.82,0,0-.8.73-.64,1.01.14.24,1.34-.78,1.34-.78,0,0-.49.78-.32,1.08,0,0,1.08-1.01,1.25-.72,0,0,0,1.16,0,1.18l1.14-.66c.06.1-.48.74-.32,1.02l1.08-.62c.12.2.55.91.58.96.37.64-.19-.66.14-.08.05.08,1.42,1.65,1.42,1.65.11.18.58-1.05.89-.51.12.21.84,1.9.9,2.01l.83-.48s.56,1.66.86,2.17.8-.46.8-.46c.28.49.85,2.26.85,2.26l.8-.46s.1,1.27.31,1.62l.8-.46c.03.05-.66.57-.63.63,0,0,.51-.81.73-.42"/><path class="cls-1" d="M52.65,81.07l6.06-3.5c.52.9-14.13,10.83-14.13,10.83.37.65,3.71-2.14,3.71-2.14l-5.33,4.75,2.65-1.53-3.2,2.56s2.36-1.43,2.39-1.38c.09.16-3.63,1.83-3.07,2.79.12.21,1.57-2.18,2.12-1.22.13.22-2.22,2.45-1.91,2.98,0,0,.14-.99.53-.31.46.79-2.22,1.41-2,1.79l1.67-.97-2.35,3.34s1.24-1.21,1.46-.84c.23.4-1.72.42-1.47.87.23.4,1.46-.84,1.46-.84l-1.99,3.52s.97-1.22,1.26-.73c.35.61-1.45,2.15-1.45,2.15.33.57,1.18-.68,1.18-.68.32.55-1.42,1.45-1.28,1.69,0,0,.83-1.18,1.13-.65,0,0-1.26.62-1.15.82.36.62,1.13-.65,1.13-.65l-1.16,1.19,1.1-.64c.34.59-1.24,3.02-1.13,3.2.07.12.65-1.19,1-.58l-.94,1.89s.61-1.16.96-.55-.82,1.98-.82,1.98c0,.02.79-.74.91-.53,0,0-.97,1.02-.81,1.3l.9-.52s-.96.55-.87.72c0,0,.56-1.09.89-.51,0,0-.8,1.96-.55,2.4.19.33.85-.49.85-.49.36.62-.71,1.97-.29,2.7,0,0,.47-1.06.81-.47l-.6,1.11.8-.46c.1.17-.23,2.01-.23,2.01,0,0,.54-.87.78-.45.06.11-.31,1.53-.31,1.53.29.49.77-.44.77-.44,0,0,.29,2.46.36,2.59.23.4.66-.63.76-.44,0,0-.11,1.41.19,1.94.04.07.77-.44.77-.44.09.16-.44.91-.44.91.19.33.77-.45.77-.45.08.14.47,1.99.54,2.11,0,0,.57-.86.8-.46.18.31-.16,1.1-.06,1.28,0,0,.56-.92.81-.47,0,0-.11,1.03.09,1.39.17.29.66-.78.83-.48.12.21.65,1.82.65,1.82l.88-.51.48,1.57c.36.62.57-1.15.92-.53.21.36,1.28,2,1.28,2,0,0,.86-.84,1.01-.58.07.11-.36.75-.18,1.07l1.05-.61s.42,1.25.52,1.43c0,0,.94-.96,1.12-.65,0,0,.99,1.21,1.28,1.7,0,0,1.04-1.12,1.26-.73.04.08.47.43.59.64.29.5-.01-.85.36-.21l1.11,1.38,1.51-.87c.14.24,1.19,1.47,1.19,1.47,0,0,1.49-1.54,1.79-1.03,0,0-1.55.81-1.38,1.1.47.82,1.41-1.81,1.85-1.07.23.39.85.87,1.16,1.4,0,0,1.75-2.33,2.32-1.34.07.12-1.4,1.29-1.34,1.39.68,1.18,2.26-1.96,2.54-1.47s.76,1.39.76,1.39c.4.7,3.74-2.29,3.8-2.19.68,1.17,5.89-1.11,5.89-1.11,2.38,4.12,3.76-6.65,5.7-3.29"/><path class="cls-1" d="M68.73,85.02s1.12-1.8,1.62-.94c.2.35,1.47.17,1.47.17l7.5-4.33s-7.76,3.1-6.77,4.81c0,0-.19-.93.26-.15"/><path class="cls-1" d="M57.21,45.9l3.51-2.03-2.35,1.77s2.68-2.48,3.09-1.78l.86,1.38,2.15-1.24c.09.16-.14,1.13-.04,1.3.09.15,1.81-1.05,1.81-1.05.09.16-1.81.71-1.61,1.06s1.47-1.55,1.78-1.03c.1.17-1.18.91-1.07,1.1.02.03,1.69-.97,1.69-.97.08.14-.22,1.16-.2,1.2.04.06,1.5-.86,1.5-.86,0,0,1.27,1.13,1.61,1.71.04.06.89-1.22,1.2-.69,0,0-.68.7-.53.95.13.22,1.15-.67,1.15-.67,0,0-.43.76-.26,1.05,0,0,.94-.89,1.09-.63,0,0,0,1.16,0,1.18l1.02-.59c.06.1-.44.73-.29,1l.98-.56c.12.2.52.93.55.98.36.62-.25-.59.07-.04.05.08,1.3,1.72,1.3,1.72.1.18.55-1.01.85-.49.12.21.71,1.97.77,2.08l.8-.46s.37,1.76.67,2.28.77-.44.77-.44c.29.5.51,2.45.51,2.45l.76-.44s-.28,1.44-.05,1.83l.77-.44c.08.14-.05,2.24.03,2.39,0,0,.56-.85.79-.45.29.5-.62,1.56-.24,2.22,0,0,.69-.7.82-.47.37.65-.47,2.08-.47,2.08l.86-.5-.62,2.26.91-.53c.21.36-.84,2.09-.84,2.09,0,0,.96-.6.98-.57,0,0-1.2.72-.98,1.1,0,0,.87-.81,1-.58.24.41-1.08,2.05-1.08,2.05.02.03,1.09-.63,1.09-.63.05.09-1.24,1.9-1.24,1.9l1.17-.67s-1.48,2.22-1.48,2.22c.24.42,1.26-.82,1.3-.75.15.27-1.5,1.52-1.5,1.52.05.08,1.36-.81,1.37-.79.08.13-1.73.83-1.5,1.23,0,0,1.21-1.18,1.42-.82.37.64-1.63,1.48-1.63,1.48.07.12,1.17-1.41,1.49-.86,0,0-2.25,1.35-1.91,1.95.05.08,1.39-1.39,1.64-.95.18.3-2.44,1.76-2.2,2.17,0,0,1.59-1.49,1.84-1.06.04.08-3.18,1.45-2.6,2.45.1.18,2.12-1.22,2.12-1.22l-3.31,3c.47.82,2.61-1.51,2.61-1.51.39.67-3.95,3.14-3.95,3.14,0,0,2.92-2.42,3.23-1.87s-3.32,1.96-3.32,1.96c.73,1.27,2.51-3.22,3.28-1.89"/><path class="cls-1" d="M50.02,47.88l4.17-2.41c.42.72-11.03,9.04-11.03,9.04.3.52,2.84-1.64,2.84-1.64l-3.91,3.93,2.01-1.16-2.35,2.06s1.78-1.09,1.81-1.04c.07.12-2.62,1.55-2.2,2.28.1.17,1.14-1.71,1.6-.92.09.16-1.13,2.01-.9,2.4,0,0-.22-.63.11-.06s-1.59,1.17-1.42,1.45l1.27-.73-1.49,2.84s.94-.96,1.12-.65-1.32.33-1.12.67,1.12-.65,1.12-.65l-1.16,3.04s.75-1.02,1.01-.58c.29.5-.96,1.87-.96,1.87.29.51.97-.56.97-.56.26.45-1.03,1.29-.92,1.49,0,0,.68-1.03.95-.55,0,0-1.04.53-.94.7.33.57.95-.55.95-.55l-.9,1.04.94-.54c.3.52-.72,2.75-.63,2.91.06.11.55-1.08.88-.51l-.64,1.72s.52-1.06.85-.49-.51,1.8-.51,1.8c0,.02.7-.67.82-.47,0,0-.73.94-.59,1.18l.8-.46s-.82.5-.74.64c0,0,.48-1,.8-.46,0,0-.31,1.75-.09,2.13.18.32.77-.44.77-.44.31.53.04,1.67.4,2.3,0,0,.44-1.03.78-.45l-.37.97.78-.45c.09.15.31,1.7.31,1.7,0,0,.56-.89.81-.47.05.09.03,1.33.03,1.33.3.51.83-.48.83-.48,0,0,1.03,2.05,1.09,2.16.25.44.78-.72.9-.52,0,0,.4,1.17.68,1.65.04.07.98-.57.98-.57.09.16-.44.91-.44.91.22.38,1.01-.59,1.01-.59.08.14,1.1,1.63,1.17,1.75,0,0,.91-1.18,1.19-.69.17.29-.03,1.04.07,1.21,0,0,.99-1.35,1.33-.77,0,0-.1.92.09,1.24s.75-.86.94-.54"/><path class="cls-1" d="M120.52,60.57s.47-1.04.8-.46c.24.42-.88,1.53-.88,1.53l1.09-.63s-1.81,2.23-1.43,2.9c0,0,1.12-.93,1.24-.72.53.92-1.81,2.89-1.81,2.89.42.72,1.26-1.16,1.45-.84.33.57-2.95,3.05-2.61,3.63.3.53,1.75-1.29,1.87-1.08.52.9-4.28,3.65-3.94,4.23.05.09,2.79-1.61,2.79-1.61l-3.52,2.44c.48.83,2.97-2.24,3.2-1.85"/><path class="cls-1" d="M99.91,43.44l3.25-1.88-2.13,1.64s2.45-2.28,2.82-1.63l.84,1.39,1.86-1.07c.09.16-.08,1.11.01,1.27.08.13,1.54-.89,1.54-.89.08.14-1.53.62-1.36.92.18.31,1.24-1.35,1.51-.87.08.15-.99.83-.89,1,.02.03,1.42-.82,1.42-.82.08.13-.15,1.12-.12,1.16.03.06,1.27-.73,1.27-.73,0,0,1.05,1.27,1.38,1.84.03.06.74-1.07,1.02-.59,0,0-.6.67-.46.91.11.2.98-.56.98-.56,0,0-.4.75-.24,1.03,0,0,.79-.78.93-.54,0,0-.03,1.17-.02,1.19l.88-.51c.06.1-.44.73-.29,1l.85-.49c.14.23-.03,1.24,0,1.29.33.58.51-.99.81-.47.05.08.61,2.12.61,2.12.1.17.49-.95.77-.45.08.13-.16,1.3-.12,1.37l.73-.42"/><path class="cls-1" d="M92.51,45.55l4.4-2.54c.43.74-11.41,9.26-11.41,9.26.31.54,2.93-1.69,2.93-1.69l-4.03,4,2.04-1.18-2.38,2.08s1.79-1.09,1.82-1.05c.07.12-2.63,1.55-2.21,2.29.1.17,1.14-1.71,1.6-.92.09.16-1.08,1.99-.86,2.37,0,0-.25-.61.08-.05s-1.54,1.15-1.38,1.43l1.24-.72-1.38,2.78s.89-.92,1.07-.62c.17.29-1.25.31-1.07.64s1.06-.61,1.06-.61l-.96,2.93s.7-.96.94-.54c.26.45-.76,1.76-.76,1.76.28.48.88-.51.88-.51.23.4-.81,1.19-.71,1.37,0,0,.59-.94.85-.49,0,0-.9.48-.82.63.31.54.85-.49.85-.49l-.73.94.83-.48c.26.46-.2,2.48-.12,2.62.06.1.48-1,.79-.45l-.3,1.53s.46-.99.77-.45c.27.47-.15,1.59-.15,1.59,0,.01.66-.64.77-.44,0,0-.51.85-.39,1.06l.77-.44s-.74.47-.67.6c0,0,.46-.98.77-.45,0,0,.11,1.56.31,1.9.18.32.79-.46.79-.46.29.51.39,1.5.74,2.1,0,0,.49-1.09.84-.49l-.33.95.87-.5c.08.14.49,1.59.49,1.59,0,0,.67-1,.93-.54.05.09.13,1.27.13,1.27.32.56.99-.57.99-.57,0,0,1.43,1.82,1.49,1.93.29.51,1.05-.92,1.18-.68,0,0,.65,1.03.93,1.51.05.09,1.41-.81,1.41-.81.12.2-.67,1.04-.67,1.04.28.48,1.51-.87,1.51-.87.08.14,1.51,1.38,1.58,1.51,0,0,1.7-1.94,2.12-1.22.19.33-.33,1.18-.22,1.37,0,0,2.22-2.57,2.78-1.6,0,0-.29,1.1-.07,1.48,1.41,2.45,10.24-9.26,11.69-6.75.44.77-5.59,4.44-5.59,4.44l3.47-2.01"/><path class="cls-1" d="M106.21,94.41c.33.57.74-.43.74-.43.29.5.45,1.67.45,1.67,0,0,.64-.88.86-.5.06.1,0,1.22,0,1.22l.89-.51s-.84.43-.7.67c.05.08.9-.52.9-.52.27.47.68,1.66.68,1.66.37.64.9-.73.99-.57,0,0,.25,1.32.25,1.32.01.02.88-.93,1.07-.62,0,0-.95.68-.94.69.27.47.73-1.21,1.07-.62,0,0,.42,1.03.69,1.5.01.02,1.24-.72,1.24-.72.01.02-.96.67-.83.89,0,0,1.12-1.03,1.28-.74,0,0-1.3.47-1.1.81,0,0,1.04-1.21,1.3-.75.02.03.05,1.14.11,1.25s1.41-1.01,1.49-.86c.15.27,2.15-.02,2.61.77.4.7.27-.87.58-.33.02.03.82.47.83.49,0,0,.74-1.98,1.41-.81,0,.01.56,1.13.56,1.13,0,0,3.91-5.09,5.14-2.97l.73.66c.61,1.05.86-.5.86-.5.03.05-1.46.57-1.24.95,1.66,2.87,2.68-3.45,3.5-2.02"/><path class="cls-1" d="M115.58,55.96s3.22-2.25,3.39-1.96c0,0-.29,1.33-.23,1.45l2.36-1.36s-.62,1.13-.51,1.32c.15.26,1.63-1.73,1.97-1.14l1.7,1.58s1.09-1.46,1.45-.84c.2.35-1.38.82-1.36.86.38.65,1.16-1.31,1.44-.83,0,0,1.77,1.74,1.82,1.82,0,0,1.12-.75,1.16-.67.02.03,1.12,1.56,1.27,1.82.07.12.98-.57.98-.57.08.14.05,1.2.05,1.2,0,0,.57-1.15.93-.54,0,0,.78,1.57,1.05,2.05.05.09.83-.48.83-.48l.25,1.51s.51-.98.81-.47l.07,1.41.78-.45c.33.57.35,1.78.53,2.1l.76-.44c.37.64.34,2.11.51,2.4l.75-.43.2,2.25.76-.44-.36,1.31.77-.44-.57.9.77-.44s-.73.55-.71.59c.13.23.59-.76.77-.44,0,0-.31,1.73-.29,1.77,0,0,.68-.65.79-.46.04.06-.59,1.06-.59,1.06,0,0,.71-.6.79-.46.06.11-.76.59-.72.68,0,0,.41-.3.44-.25,0,.02-.31.76-.31.76,0,0,.64-.75.81-.47.27.46-.6,2.23-.28,2.78.21.37.85-.49.85-.49.33.58-.69,2.47-.57,2.68,0,0,.66-.98.91-.53l-.86,1.69s.96-.58.97-.56c.22.38-1.01,1.49-.98,1.55,0,0,.88-.84,1.02-.59,0,0-1.15.52-1.02.73.2.35,1-.63,1.03-.59l-1.16,2.12c.13.23.76-1.28,1.12-.65.03.06-1.15.87-1.15.87l1.14-.66-1.3,1.67c.04.07.93-1.19,1.21-.7,0,0-1.67,1.23-1.42,1.66.41.71,1.29-.74,1.29-.74.72,1.24-2.39,4.06-2.39,4.06,0,0,1.47-1.29,1.66-.96.23.39-2.15.57-1.77,1.23l1.69-.97c.07.13-3.15,1.71-2.56,2.74l1.97-1.14s-2.53,1.84-2.45,1.98c.52.9,1.91-1.63,2.14-1.23l-2.97,2.52c.06.11,2.44-1.41,2.44-1.41,0,0-3.97,2.63-3.71,3.08.69,1.2,2.97-1.71,2.97-1.71.97,1.68-4.38,3.25-4.38,3.25.17.29,3.11-3.1,3.68-2.12"/><path class="cls-1" d="M107.21,58.59s4.5-5.06,5.57-3.21c.41.71-6.47,2.94-5.82,4.07,1.4,2.43,6.99-6.46,8.04-4.64,0,0-15.65,4.2-13.2,8.45.72,1.25,5.39-3.11,5.39-3.11,1.16,2-8.38,5.18-7.66,6.42.5.87,2.92-1.68,2.92-1.68.48.83-3.94,2.76-3.74,3.11.44.76,1.89-2.59,2.54-1.47.79,1.36-3.22,2.94-3.08,3.18l1.71-.99c.22.39-1.81.81-1.55,1.26,0,0,1.06-1.02,1.24-.71"/><path class="cls-1" d="M93.53,92.9c.24.41,3.76-3.11,4.17-2.41.65,1.13-3.6,1.59-2.9,2.79.48.83,4.58-3.27,4.85-2.8"/><path class="cls-1" d="M93.28,90.9c.55.95,4.71-4.59,5.52-3.19,1.92,3.33-7.04,2.61-5.4,5.46.07.13,2.86-2.73,3.33-1.92.23.39-1.41,2.92-1.21,3.27,1.03,1.78,2.6-3.32,3.39-1.96.19.33-5.84,2.59-5.29,3.52,0,0,5.76-4.79,6.4-3.69"/><path class="cls-1" d="M56.28,151.04l1.91-1.1-1.86,1.22c.49.85,2.21-1.28,2.21-1.28,0,0,1.9.71,2.17,1.18.03.05,3.5-2.73,3.81-2.2.18.32-.83,1.7-.83,1.7.8,1.38,4.06-2.35,4.06-2.35.23.4-1.67,1.92-1.67,1.92.79,1.37,4.52-2.61,4.52-2.61l-1.85,2.08s5.19-4.08,5.66-3.27c.11.19-.08.71-.06.75,0,0,9.88-7.42,10.62-6.13l-9.7,6.24s5.47-8.34,7.71-4.45c.34.58-8.06,5.1-8.06,5.1,0,0,9.96-10.68,12.09-6.98"/><path class="cls-1" d="M102.65,99.68l.74-.43c.26.45-.44,2.41-.33,2.59,0,0,.62-.96.88-.51l-.7,2.64c.12.21.94-.54.94-.54.02.03-1.03.99-.92,1.19.02.04.76-.89.96-.55.17.3-.98,2.41-.98,2.41.21.37,1.02-.59,1.02-.59,0,0-1.23,3.1-1.22,3.11l1.1-.63s-1.27.68-1.14.91c.31.53.73-1.3,1.11-.64,0,0-2.1,3-1.64,3.79.18.31,1.07-1,1.23-.71l-1.35,1.26,1.25-.72c.04.07-1.9,3.26-1.9,3.26l1.37-.79s-1.58,1.38-1.55,1.42c.3.52,1.4-.81,1.4-.81,0,0-2.21,2.22-1.98,2.61l1.49-.86-2.22,2.81,1.61-.93c.1.17-2.64,3.35-2.64,3.35.17.3,1.25-1.93,1.78-1.03l-1.81,1.11,1.78-1.03c.64,1.11-3.04,3.56-3.04,3.56l1.99-1.15-3.27,3.4c.28.49,1.83-1.99,2.23-1.29l-3.46,3.23s2.39-1.57,2.47-1.43c0,0-4.56,4.19-4.51,4.27,0,0,2.44-2.6,2.95-1.71,1.23,2.13-5.68,4.92-5.68,4.92.34.58,3.76-2.17,3.76-2.17l-7.5,5.78s5.34-3.08,5.34-3.08"/><path class="cls-1" d="M115.89,132.4c.05-.67-.43.39-.4-.03,0,0-3.21-9.55-3.08-11.48.07-1.02-.3.01-.3-.02.17-2.42-1.37-9.09-1.18-11.87.05-.76-.06.77,0,0,.03-.41-.08-.9-.06-1.13.07-1.04-.27.03-.26-.02"/><path class="cls-1" d="M121.04,140.81c.04-.55-1.22.76-1.16-.08.02-.25,1.1-.07,1.12-.3.1-1.5-1.41,1.09-1.33-.09"/><path class="cls-1" d="M123.72,143.8c.08-1.08-1.49,1.36-1.39-.1,0-.08.27-.71.29-1.06.05-.76-1.33.86-1.26-.09"/><path class="cls-1" d="M132.47,147.49c.06-.88-.81-.06-.81-.06.05-.65-2.25-.41-2.2-1.1.14-2.03-.21,2.56-.03,0"/></g></svg>