<?xml version="1.0" encoding="UTF-8"?><svg id="_레이어_2" xmlns="http://www.w3.org/2000/svg" viewBox="0 0 85.75 77.25"><g id="_레이어_1-2"><path d="M84.99,62.78c.15-.18.3-.36.45-.53.41-.45.43-1.13.04-1.6-.03-.03-.05-.06-.08-.09.24-.73.29-1.21.02-1.68-.1-.17-.22-.31-.35-.42.09-.87.03-1.01-.13-1.29-.05-.09-.11-.17-.17-.24-.02-.2-.07-.4-.18-.59-.04-.07-.08-.13-.13-.19-.03-.11-.07-.22-.13-.33-.08-.13-.18-.25-.3-.34-.03-.12-.07-.24-.14-.35-.08-.13-.18-.25-.29-.35-.07-.18-.19-.35-.35-.48,0,0,0-.01-.01-.02-.24-.42-.64-.67-1.11-.7,0,0-.01,0-.02,0-.07-.16-.13-.32-.18-.45-.14-.34-.42-.61-.77-.72-.02,0-.03-.01-.05-.01-.13-.19-.31-.33-.52-.42-.21-.19-.47-.32-.76-.35-.05,0-.09,0-.14,0-.16-.21-.39-.36-.65-.43-.3-.08-.61-.05-.88.1l-.04-.06c-.21-.37-.58-.62-1.01-.68-.08-.01-.19-.03-.34-.01-.25-.03-.52.02-.76.16l-1.77,1.02c-.24.14-.4.36-.5.59-.02-.17-.06-.35-.17-.53-.16-.28-.43-.49-.75-.57-.32-.08-.65-.04-.93.12l-1.19.69c-.41.24-.63.67-.61,1.12-.85.75-1.97,1.68-2.98,2.49-.47.38-.6,1.05-.29,1.57.2.35.55.58.95.65.07.01.15.02.25.02.36,0,.95-.16,2.07-1.17.2-.18.32-.41.38-.65.2-.17.4-.34.61-.51,1.39-1.19,2.27-1.94,2.58-2.6.02.15.07.31.15.45.3.52.93.74,1.48.54.36.07.75-.02,1.05-.28l.22-.2.07.12c.16.29.43.5.75.59.17.05.36.06.53.03.13.14.29.25.46.32.08.04.16.08.25.1.11.07.24.13.37.16.04,0,.07.02.11.02.17.21.4.36.67.42.14.03.26.04.39.03.11.24.22.47.32.64.08.14.19.26.31.36.07.13.18.24.29.33.02.05.05.1.08.16.07.13.17.24.28.33.02.12.07.22.15.35.04.06.08.12.12.18.03.11.08.23.15.35.05.09.11.17.18.24,0,.19.04.4.17.61.09.16.2.29.33.4-.02.19-.05.39-.07.58-.04.27.02.54.15.77.04.07.09.14.15.2-.22.62-.36,1.01-.31,1.37-.8,1.19-.92,1.96-.85,2.44-.39.23-.59.64-.59,1.06-.11,0-.21-.01-.33.01-.73.16-1,.73-1.12,1.3l-1.19.27c-.59-.07-1.07.23-1.6.68-.12-.08-.25-.14-.39-.17-.44-.1-.74-.04-1.65.52-.12-.13-.25-.28-.41-.44h0c-.19-.2-.45-.36-.72-.41-.16-.03-.32-.03-.46,0-.28-.32-.67-.5-1.09-.5-.04,0-.08,0-.11,0-.05,0-.09,0-.13,0-.14-.21-.34-.38-.58-.47-.15-.06-.32-.08-.47-.09-.04-.1-.08-.18-.12-.26-.17-.3-.48-.52-.81-.59-.05-.21-.11-.37-.2-.52-.09-.16-.22-.3-.37-.4-.04-.26-.11-.51-.24-.73-.07-.12-.17-.23-.28-.33.01-.04.03-.08.04-.12.12-.35.08-.72-.1-1.03,0-.25-.07-.48-.19-.7-.29-.5-.79-.78-1.32-.75-.85.05-1.29.79-1.48,1.23-.15.34-.13.7.02,1.01-.07.36.01.74.26,1.04.03.04.06.07.1.1-.05.69.12.99.21,1.14.11.19.27.35.45.45-.01.23.05.47.16.67.18.32.45.54.77.65.05.2.11.35.19.5.21.37.57.61.98.66.04.11.08.19.12.27.17.29.45.5.78.58.08.02.16.03.24.04,0,0,0,.01.01.02.18.31.45.52.78.62.18.1.39.16.6.16.01,0,.03,0,.04,0,.18.22.44.37.72.42.44.08.77-.07,1.05-.26.14.16.25.28.3.34.17.25.43.44.73.51.24.06.49.04.72-.05.19.16.43.27.69.32.08.01.16.02.24.02.69,0,1.28-.48,1.93-1.05.44.44,1.14.49,1.63.1l.26-.2c.12-.03.24-.07.35-.14.09-.05.16-.11.23-.17.13.02.28,0,.43-.02.76-.16,1.03-.77,1.14-1.36l.29-.23c.44-.34.57-.93.36-1.43.12-.03.23-.06.34-.12.14-.08.28-.16.41-.23l1.37-.79c.33-.19.53-.5.6-.85.12-.18.21-.36.25-.53.11-.39.06-.8-.14-1.14-.08-.13-.18-.25-.29-.34Z"/><path d="M58.16,31.57c.36.19.81.2,1.19-.02l2.79-1.61c.24-.14.42-.35.52-.58,1.19-.91,1.73-1.6,1.81-2.23.27-.21.54-.44.82-.69.11-.1.26-.23.37-.32.11-.03.22-.07.32-.13.29-.17.48-.43.57-.73.25-.29.35-.67.28-1.04.78-.75,1.25-1.51.85-2.35.51-.59.84-1.15.69-1.76.37-.66.51-1.38.12-2.05-.03-.06-.07-.11-.12-.17.05-.07.1-.13.15-.2.31-.39.36-.92.14-1.34,0-.27-.06-.53-.2-.77-.29-.5-.77-.77-1.32-.75-.85.04-1.31.79-1.51,1.24-.12.28-.14.58-.06.85-.12.27-.14.58-.06.86-.63,1.26-.3,1.83-.16,2.08v.02c-.05.06-.12.12-.18.17-.38.32-.52.83-.38,1.3-.67.72-1.18,1.42-.96,2.17-.81.64-1.49,1.21-1.67,1.83l-.06.04c-.06.04-.09.1-.14.15-1.12.37-2.42,1.5-4.3,3.2-.72.65-1.78,1.6-2.56,2.17-.03-.13-.07-.25-.14-.37-.26-.45-.7-.73-1.21-.78-.43-.04-.89.1-1.4.41-.17-.1-.37-.16-.57-.18-.21-.02-.76-.07-1.64.63-.13-.12-.24-.22-.3-.28-.2-.25-.5-.41-.82-.45-.08,0-.16,0-.23,0-.09-.05-.19-.09-.29-.11-.33-.08-.68-.01-.96.17,0,0-.02.01-.02.02-.07-.1-.11-.17-.11-.17-.2-.34-.58-.59-.97-.63-.3-.03-.54.04-.75.15-.14-.19-.32-.41-.52-.67-.2-.26-.5-.42-.83-.46-.23-.37-.62-.62-1.05-.66-.03-.07-.05-.1-.07-.14-.12-.21-.3-.37-.5-.48-.24-.34-.58-.56-.96-.63-.06-.19-.14-.38-.24-.56-.16-.27-.42-.47-.72-.56,0-.02,0-.05,0-.07-.01-.19-.07-.37-.16-.53-.04-.06-.08-.12-.12-.18-.05-.08-.11-.15-.17-.21-.03-.08-.06-.16-.1-.23-.07-.13-.17-.24-.29-.34-.03-.2-.1-.4-.2-.59-.06-.11-.13-.2-.21-.29,0-.2-.06-.4-.16-.58-.09-.15-.2-.28-.32-.39.03-.4,0-.74-.1-1.04,0-.17-.01-.32-.05-.45.02-.24-.02-.5-.15-.73,0,0,0,0,0,0,.14-.55.06-.91-.12-1.22-.05-.09-.11-.16-.17-.23l.06-.22c.02-.09.04-.17.04-.26v-.04s.05-.08.07-.12c.15-.37.13-.79-.07-1.14l.29-.58c.06-.11.09-.23.11-.35.2-.35.21-.69.14-.98.08-.17.18-.38.24-.5.22-.45.42-.85.38-1.28.24-.22.46-.51.5-.87l.02-.02c.32-.28.46-.69.41-1.08l1.25-1.24c.17-.17.28-.38.33-.6.6-.45,1.25-.94,1.89-1.43,3.25-2.48,4.59-3.63,4.9-4.47.01.18.06.35.15.51.34.59,1.09.79,1.68.45l.07-.04c.33.06.68-.02.96-.24l1-.77.14.23c.35.57,1.09.76,1.67.43l.03-.02c.17.16.37.27.6.32.01,0,.03,0,.05,0,.08.03.15.05.23.06.08.01.15.01.22.01.03,0,.06.02.09.03.21.06.37.07.56.02.14.12.32.21.5.26.35.09.62.04,1.01-.17.15.2.27.37.33.47.16.27.41.47.71.57.14.13.32.22.5.28.16.18.37.3.6.36.13.2.3.35.51.45.14.2.34.35.56.43.02.04.04.07.06.11.21.37.55.62.92.69.03.12.06.23.09.34.03.1.07.2.12.29.1.17.23.31.4.42.03.11.07.21.13.32.23.39.64.62,1.07.62.21,0,.42-.05.61-.16l.59-.34c.59-.34.79-1.09.45-1.68-.09-.16-.21-.28-.35-.38-.03-.13-.07-.25-.14-.37-.2-.35-.51-.59-.87-.68-.15-.51-.18-.56-.24-.66-.15-.26-.36-.46-.61-.58-.01-.03-.03-.06-.05-.09-.12-.21-.29-.37-.49-.47-.16-.24-.39-.41-.65-.49-.16-.27-.39-.46-.68-.57-.05-.06-.11-.12-.18-.17-.09-.07-.19-.13-.29-.17-.24-.27-.56-.43-.92-.46-.19-.02-.37,0-.53.06-.19-.25-.36-.45-.42-.52-.25-.31-.63-.46-1.01-.44-.15-.15-.34-.25-.55-.31-.03,0-.06-.01-.09-.02-.17-.11-.36-.19-.57-.22-.22-.03-.41,0-.59.05-.39-.36-.98-.45-1.46-.17l-.45.26-.04-.06c-.22-.37-.59-.63-1.02-.69-.15-.02-.41-.06-.83.09-.13.02-.26.07-.39.14l-2.61,1.51c-.27.15-.44.4-.54.67-.02-.19-.09-.37-.2-.56-.34-.59-1.09-.79-1.68-.45l-3.53,2.04c-.55.32-.76,1-.51,1.57-1.58,1.22-3.46,2.62-5.22,3.89-.45.32-.62.89-.44,1.4l-.58.58c-.23.23-.35.52-.36.83-.03.04-.05.08-.07.12-.08-.24-.23-.47-.45-.62-.1-.07-.21-.12-.32-.16-.09-.43-.21-.82-.35-1.07-.19-.33-.53-.55-.9-.6-.04-.17-.08-.34-.12-.5-.08-.39-.34-.71-.7-.87-.13-.06-.27-.09-.41-.1-.14-.4-.21-.56-.29-.69-.25-.44-.67-.7-1.15-.72-.12,0-.24,0-.34.03-.12-.16-.21-.29-.26-.35-.08-.13-.17-.24-.25-.32-.09-.15-.17-.31-.21-.38-.16-.28-.42-.47-.71-.56-.2-.22-.47-.36-.75-.39-.2-.26-.49-.44-.82-.5-.01-.01-.03-.03-.04-.04-.15-.12-.32-.2-.5-.25-.22-.2-.5-.33-.81-.36-.3-.03-.57.04-.81.15-.24-.24-.46-.44-.6-.57-.3-.26-.69-.36-1.06-.29-.14-.12-.31-.21-.49-.26-.08-.02-.17-.03-.25-.04-.15-.08-.31-.14-.48-.16-.31-.04-.58.02-.82.13-.14-.12-.31-.21-.49-.26-.32-.08-.65-.04-.93.12l-.69.4-.04-.06c-.22-.38-.59-.63-1.03-.7-.18-.03-.48-.07-1.01.15-.08.03-.16.06-.23.1l-.06.04c-.11.06-.22.12-.34.2l-2.41,1.39c-.29.16-.48.43-.56.72,0-.21-.06-.41-.18-.61-.16-.28-.43-.49-.75-.57-.32-.08-.65-.04-.93.12l-3.35,1.93c-.55.32-.76.99-.51,1.55-1.54,1.2-3.38,2.59-5.1,3.84-.44.32-.61.89-.44,1.39l-.57.57c-.23.23-.35.52-.36.82-.14.18-.23.38-.26.6-.38.52-.54,1.12-.16,1.78.07.12.16.23.27.32-1.21.76-1,1.57-.76,1.98.01.02.02.04.03.05l-.07.12c-.09.1-.17.22-.23.36-.16.38-.13.8.08,1.16.04.07.09.14.14.2l-.25.67c-.13.33-.1.69.05.99-.12.29-.13.61-.02.9-.05.17-.06.36-.01.56,0,.06.02.12.03.18-.02.31.07.62.28.87.05.07.11.12.18.18-.21.62-.34,1.05-.05,1.55.02.03.04.07.06.1-.08.38.02.78.27,1.06-.05.25-.03.51.08.75.02.04.04.08.06.12,0,.12.04.24.08.36.03.11.08.23.15.34.09.15.2.27.34.37.01.6.15.83.23.96.15.26.38.46.64.57.04.3.12.62.3.92.08.13.18.25.29.34.07.15.18.29.31.4.13.11.29.2.45.24.06.44.35.79.74.95.02.06.05.12.08.17.27.46.72.73,1.22.73.28.55.3.59.32.62.19.34.5.56.86.65-1.05.74-2.14,1.48-3.2,2.2-.45.3-.64.86-.49,1.36l-.94.83c-.24.21-.37.5-.41.79-.16.14-.29.3-.36.49-.62.62-.96,1.35-.47,2.2.03.04.05.09.09.13-.04.12-.08.24-.09.36-.5.25-.95.51-1.12,1.08-.1.32-.07.67.08.97l-.17.24c-.18.14-.33.32-.43.56-.16.39-.13.82.08,1.19.02.03.03.05.05.08l-.48.85c-.18.33-.2.7-.08,1.03-.2.29-.28.65-.2.99-.09.19-.14.4-.12.63,0,.06,0,.11,0,.17-.09.36-.02.75.22,1.06.03.04.07.09.11.12-.34.67-.57,1.17-.25,1.76-.16.39-.11.81.11,1.14-.12.28-.13.59-.03.89-.02.15-.01.31.03.47.02.22.1.4.17.52.04.06.08.12.12.17-.15.83.04,1.15.15,1.34.07.12.16.23.26.32-.09.45-.09.96.19,1.45,0,0,0,0,0,.01.03.28.15.56.37.77.04.03.07.07.11.1,0,.02,0,.03,0,.05-.06.35.03.7.24.98.04.05.07.09.11.13,0,.21.06.41.17.59.16.27.38.48.64.6.12.86.17.95.27,1.12.13.23.31.41.52.52.05.24.13.48.25.68.06.1.13.19.21.27.02.03.03.07.05.1.18.32.48.54.82.64.1.42.15.55.24.7.12.21.3.37.5.48.02.06.05.12.09.18.14.25.37.43.63.53.03.07.06.14.1.2.21.37.59.61,1.01.65,0,0,.02,0,.02,0,.02.07.04.13.07.19.12.35.38.63.73.76.12.05.24.07.36.08.03.08.06.16.11.24.27.47.73.74,1.23.72.08,0,.15-.01.22-.03.16.25.3.46.35.54.18.27.46.46.78.53.16.18.37.31.6.37.16.04.32.05.48.03.01.02.02.04.03.06.19.33.53.56.91.61.26.03.52-.02.75-.14.12.17.22.3.27.38.19.34.54.56.93.61.32.04.65-.06.91-.26.19.16.41.24.61.27l.33.41c.38.47,1.05.6,1.57.29l.29-.17c.1.11.2.24.33.38.18.22.44.36.71.41.19.12.41.19.64.2.53.03.92-.22,1.22-.52.01.02.02.04.03.05.21.36.58.59.99.61.1,0,.21,0,.31-.02.22.15.46.24.73.27.05,0,.1,0,.15,0,.57,0,1.03-.3,1.42-.68.2.23.48.4.79.46.83.16,1.66-.35,3.29-1.62.94.19,2.34-.08,4.22-.82.39.35.84.52,1.31.5,1.33-.04,2.02-1.42,2.69-2.75.11-.22.26-.52.4-.78.36.18.79.18,1.16-.04.59-.34.79-1.09.45-1.68-.08-.14-.16-.25-.24-.36.22,0,.45-.07.65-.2,1.08-.7,2.41-1.52,2.87-1.75.14-.02.28-.07.42-.15.43-.25.65-.72.61-1.18l.51-.4c.27-.21.43-.52.46-.84.31-.25.48-.62.47-1,.5-.47.78-1.02.37-1.73-.08-.14-.19-.27-.32-.36,0-.01.01-.02.02-.03.13-.2.2-.44.2-.67.23-.25.6-.59.95-.87.17-.13.29-.29.37-.47.07-.12.13-.24.17-.38.1-.33.08-.68-.06-.99l.17-.24c.24-.35.28-.79.13-1.17.38-.61.59-1.23.23-1.86.32-.52.52-1.03.37-1.55.29-.62.38-1.28.03-1.89-.03-.05-.07-.11-.11-.15.06-.08.12-.16.18-.24.3-.38.34-.89.13-1.31.01-.28-.05-.54-.2-.79-.29-.5-.76-.78-1.32-.76-.85.04-1.32.8-1.53,1.24-.12.27-.14.57-.07.83-.15.3-.17.65-.05.97-.54,1.18-.23,1.71-.09,1.96.01.02.03.05.04.07-.01.01-.02.02-.04.04-.38.38-.47.96-.22,1.44-.38.61-.61,1.21-.3,1.83-.39.54-.65,1.07-.41,1.66l-.24.34c-.12.17-.19.36-.21.55-.03.06-.06.14-.09.21-.03.11-.05.23-.05.34-.24.36-.37.69-.39,1.01-.85,1.32-1.21,2.05-1.31,2.55-.54.44-.94.93-.96,1.49l-.28.21c-.29.22-.45.55-.47.89l-1.43,1.13c-.44.35-.56.94-.35,1.44-.13-.03-.25-.04-.37-.03-1.22.04-1.83,1.25-2.47,2.54-.15.29-.35.69-.53,1.01-.35-.37-.9-.49-1.39-.28-1.32.58-2.87,1.05-3.46,1.06-.16-.13-.34-.21-.54-.25-.58-.11-.89.13-1.52.62-.22.17-.73.57-1.16.87-.05-.09-.1-.18-.14-.25-.21-.37-.59-.61-1.01-.65-.23-.02-.43.01-.6.08-.19-.1-.41-.16-.63-.17-.56-.03-1.11.24-1.59.64-.25-.36-.63-.58-1.06-.6-.09,0-.18,0-.26,0,0,0-.01,0-.02,0-.19-.02-.61-.07-1.31.39-.02-.02-.03-.04-.04-.05-.16-.28-.43-.49-.75-.57-.31-.08-.65-.04-.93.12l-.3.17-.19-.23c-.33-.51-.75-.64-1.06-.66-.19-.15-.42-.24-.67-.27-.14-.02-.41-.05-.8.13-.12-.15-.23-.28-.29-.37-.22-.29-.54-.48-.9-.53-.1-.01-.22-.02-.35,0-.14-.23-.36-.41-.61-.5-.08-.03-.15-.05-.23-.06-.2-.22-.48-.37-.79-.41-.15-.02-.33-.02-.55.04-.16-.25-.29-.45-.33-.53-.24-.42-.63-.68-1.07-.72-.13-.29-.37-.53-.68-.65-.14-.05-.28-.08-.43-.08-.12-.3-.16-.38-.19-.44-.15-.27-.39-.47-.67-.57-.02-.05-.05-.1-.07-.15-.14-.24-.33-.42-.55-.54-.02-.04-.03-.07-.06-.11-.19-.33-.5-.56-.85-.66-.09-.38-.14-.52-.23-.67-.06-.11-.14-.2-.22-.28-.01-.03-.03-.06-.05-.09-.14-.24-.35-.42-.61-.53.01-.23-.05-.47-.16-.67-.15-.25-.39-.45-.66-.55-.03-.23-.06-.47-.09-.7-.03-.28-.16-.53-.35-.72,0-.24-.06-.42-.17-.62-.07-.13-.16-.24-.27-.34.03-.48-.04-.68-.17-.9-.01-.19-.07-.37-.16-.54-.08-.13-.17-.25-.27-.35.11-.44.13-.95-.15-1.44-.06-.11-.14-.21-.23-.29.02-.05.04-.11.06-.16.09-.22.11-.45.07-.68,0-.13-.03-.26-.08-.39.03-.21.01-.42-.06-.62.11-.42.1-.87-.12-1.29.17-.36.15-.79-.05-1.14,0,0,0-.02-.01-.02.24-.57.39-1.11.3-1.61.02-.08.03-.16.04-.24.02-.09.02-.18.01-.27.13-.27.2-.58.14-.9.3-.6.32-1.15.04-1.64l.38-.68c.11-.11.21-.25.28-.42.14-.33.14-.7,0-1.02l.58-.83s.05-.08.07-.12c.18-.19.32-.41.4-.67.08-.27.09-.56.01-.83.11-.13.21-.25.28-.34.47-.56.89-1.06.84-1.63.34-.24.7-.57.76-1.02l.18-.14c.33-.27.49-.67.46-1.07l1.74-1.55c.18-.16.3-.36.36-.58.26-.18.54-.38.81-.57.07.1.12.18.14.2.2.36.57.59.98.61.06,0,.11,0,.17,0,.22.24.52.39.85.41.1,0,.2,0,.3-.02.22.24.51.4.84.43.05,0,.09,0,.14,0,.53,0,.89-.31,1.11-.56.06-.02.12-.05.18-.09.59-.34.79-1.09.45-1.68-.19-.33-.5-.56-.87-.63-.25-.39-.67-.63-1.13-.66-.09,0-.17,0-.26,0-.03-.03-.07-.04-.11-.07,3.29-2.41,4.53-3.51,4.79-4.3.01.18.06.35.15.52.34.59,1.09.79,1.68.45l.25-.15c.32.06.65-.01.93-.22l1.66-1.2.17.28c.35.57,1.09.75,1.66.42l.41-.24c.17.16.37.27.59.32.09.02.17.03.26.04.02,0,.03,0,.05,0,.19.03.36.02.52-.02.27.07.44.07.84-.13.13.1.29.18.45.22.46.11.74.02,1.61-.5.21.18.38.34.44.42.2.34.55.56.94.61.05,0,.1.01.15,0,.05.03.11.04.16.06-.02.1-.03.2-.03.3-1.35.65-2.77,1.46-3.59,2.33l-.4.23s-.06,0-.09,0c-.27-.23-.6-.36-.95-.36-.92-.02-1.65.82-2.09,1.52-.36.58-.18,1.33.39,1.69.2.13.43.19.65.19.41,0,.81-.2,1.04-.57.02-.03.05-.07.07-.11.31.1.67.13,1.1.1.33.33.84.44,1.29.27.1-.04.19-.09.27-.14.04-.02.08-.04.12-.06.4-.23.62-.65.61-1.08l4.61-2.66c.25-.14.41-.36.51-.61.13.13.27.23.4.28.17.19.39.45.67.77h0c.22.25.55.42.89.44.05,0,.1,0,.15,0,.19.43.22.49.26.57.16.28.43.49.75.57.09.02.18.04.27.04.12.29.24.56.34.74.24.41.62.67,1.06.72.05.16.11.32.16.48.11.35.38.64.73.77.04.01.08.03.11.04.07.2.13.3.16.36.07.12.16.23.27.32.22.26.55.41.9.42.01,0,.02,0,.03,0,.33,0,.65-.14.88-.37.11-.03.22-.07.32-.13.59-.34.79-1.09.45-1.68-.02-.05-.05-.11-.08-.16-.16-.28-.43-.49-.75-.58,0,0,0,0,0,0-.08-.35-.31-.66-.63-.83-.15-.08-.31-.12-.47-.14-.12-.33-.25-.64-.36-.83-.22-.37-.61-.6-1.04-.61-.06-.18-.13-.36-.19-.54-.12-.35-.39-.63-.73-.76-.15-.06-.31-.08-.47-.08-.16-.36-.23-.51-.29-.61-.25-.44-.67-.7-1.14-.72-.17,0-.33.01-.47.06-.13-.15-.24-.28-.29-.34-.08-.13-.17-.23-.26-.31.38-.41.46-.67.5-.83.05-.2.07-.41.03-.6l.16-.14c.29-.26.43-.63.4-.99.15-.14.27-.31.34-.56.04-.12.05-.25.05-.38.11-.14.2-.29.25-.45.1.08.21.14.33.19.09.39.18.55.23.63.2.35.55.59.94.66.07.22.17.45.29.66.11.19.27.35.46.45.06.09.14.18.23.25.2.17.45.26.7.28.14.45.52.79.98.86.27.45.73.73,1.23.73.15.01.29-.02.42-.06.18.23.31.4.36.47.23.36.6.6,1.02.64.23.02.43,0,.61-.07,0,.01.02.03.02.04.17.3.46.51.79.59.07.02.13.03.19.03.19.14.42.23.67.25.18.02.57.06,1.18-.34.15.14.28.26.35.33.2.25.5.41.83.44.29.03.57-.04.81-.2.2.18.45.3.72.32.4.04.79-.12,1.05-.42.07-.08.14-.16.21-.23.27.44.7.73,1.21.81.1.02.2.02.3.02,1.04,0,2.19-.83,3.84-2.27ZM30.42,27.92c-.33-.24-.75-.29-1.13-.16-.13-.11-.29-.18-.46-.23-.12-.03-.24-.04-.36-.04-.13-.07-.28-.11-.43-.14-.38-.05-.71.04-1,.21-.14-.11-.29-.2-.47-.24-.32-.08-.65-.04-.93.12l-.95.55-.04-.06c-.22-.38-.6-.64-1.04-.71-.26-.04-.86-.13-2.27.87l-2.36,1.36c-.28.16-.46.42-.55.7-.02-.19-.1-.38-.22-.58-.16-.28-.43-.49-.75-.57-.32-.08-.65-.04-.93.12l-4.86,2.81c-.58.34-.79,1.08-.46,1.66-.06.04-.12.09-.18.13-.06-.03-.12-.05-.19-.07-.14-.03-.28-.04-.42-.02,0-.02-.01-.04-.02-.05-.03-.07-.06-.15-.1-.21-.2-.35-.59-.6-.99-.63-.09,0-.18,0-.26,0-.17-.34-.32-.63-.32-.63-.14-.27-.37-.48-.65-.59-.02-.05-.05-.1-.08-.16-.17-.3-.44-.52-.75-.63-.05-.2-.1-.27-.14-.36-.08-.13-.18-.25-.3-.35-.01-.03-.03-.05-.04-.07-.17-.29-.41-.51-.68-.63-.04-.28-.11-.57-.27-.85-.1-.18-.25-.32-.41-.43,0-.03.01-.07.02-.1.04-.22.02-.45-.07-.66-.03-.11-.07-.22-.13-.32,0-.2-.06-.39-.16-.57,0-.02-.02-.03-.03-.05.02-.34-.03-.69-.22-1.02-.01-.02-.03-.05-.04-.07.08-.31.03-.64-.13-.92-.04-.07-.08-.13-.13-.19.14-.55.19-1.02.06-1.43,0-.07,0-.14,0-.2,0-.1-.01-.21-.04-.31.07-.26.07-.54-.05-.84.14-.47.1-.9-.12-1.28-.03-.05-.06-.09-.09-.14l.2-.51c.04-.06.07-.12.1-.19.15-.37.13-.78-.07-1.13l.31-.59c.06-.11.1-.23.12-.36.21-.37.22-.71.14-1.01.08-.17.18-.36.24-.48.23-.46.44-.87.4-1.3.23-.22.45-.51.49-.87h0c.32-.28.46-.7.41-1.1l1.18-1.19c.17-.17.28-.38.33-.6.58-.44,1.21-.91,1.83-1.39,3.05-2.35,4.52-3.53,4.76-4.5,0,.22.03.43.14.64.34.59,1.09.79,1.68.45l.11-.06c.32.06.67-.02.95-.23l1.22-.92.16.26c.35.56,1.08.74,1.66.41l.22-.13c.17.16.37.27.6.32.06.01.11.02.17.03.04.01.08.02.13.02.14.02.27.02.39,0,0,0,0,0,0,0,.27.07.44.09.74-.04.14.11.29.18.46.23.42.1.73.01,1.33-.34.19.19.34.36.38.44.19.33.53.56.91.61.16.11.34.19.53.22.03,0,.06,0,.09.01.17.14.38.24.61.27.04,0,.08,0,.11.01.16.19.38.33.62.4,0,0,.02,0,.03,0,.15.15.34.27.56.32.21.06.43.06.64,0,.1.13.21.23.32.31.16.21.39.51.71.93h0c.22.29.58.48.94.5,0,0,0,0,0,0,.15.44.19.53.26.65.16.28.43.49.75.58.03,0,.06.02.09.02.1.33.22.65.34.86.19.33.48.56.81.67.02.16.04.31.06.47.04.35.22.66.5.86.04.42.16.62.22.73.11.2.27.35.45.45,0,.58.02.82.19,1.11.06.1.13.19.21.26-.04.36,0,.76.23,1.15.03.05.06.09.1.13,0,.12.01.23.05.35-.05.31.02.62.19.88l-.09.27c-.12.36-.06.73.12,1.03-.06.2-.04.41.01.62,0,.04-.01.08-.01.11-.08.38.02.7.12.91-.19.31-.24.68-.12,1.03-.2.32-.23.7-.12,1.04-.04.05-.07.11-.11.16-.14.21-.21.45-.21.69-.04.06-.07.13-.09.2-.06.1-.11.21-.14.33-.03.12-.05.24-.05.36-.04.06-.07.13-.09.2,0,.03-.02.06-.03.09-.29.38-.42.74-.42,1.1-.12.14-.22.28-.3.43-.34.31-.59.67-.71,1.07-.03.12-.05.23-.06.35-.11-.05-.23-.09-.36-.11-.21-.17-.46-.27-.73-.3-.41-.04-.76.09-1.06.28-.3-.25-.58-.46-.76-.59Z"/><path d="M66.09,49.58c.11-.02.22-.05.34-.1.17.07.37.1.56.09.2-.02.39-.08.55-.18.2.24.5.4.82.43.04,0,.08,0,.12,0,.38,0,.74-.18.97-.48.7-.91,1.64-1.83,2.2-2.17.02.19.08.38.18.55.6,1.03,1.29,1.23,1.81,1.22,1.18-.03,1.77-1.18,2.23-2.09.02-.05.05-.1.08-.16.12-.03.25-.07.36-.14.59-.34.79-1.09.45-1.68-.42-.73-1.05-.8-1.31-.79-.7.02-1.12.48-1.45,1.04-.11-.01-.22,0-.33.01-.1.02-.19.05-.28.09-.35-.38-.8-.61-1.33-.64-1.18-.08-2.46.95-3.42,1.95-.43-.36-.89-.37-1.1-.35-.43.04-.77.24-1.04.51-.19-.06-.38-.06-.54-.04-.09.01-.18.03-.27.07-.47-.16-.96-.19-1.32-.22-.06,0-.12,0-.17-.01-.08-.04-.17-.07-.26-.09-.24-.05-.46-.04-.66.03-.23-.25-.54-.4-.89-.43-.02,0-.04,0-.06,0-.05-.02-.1-.03-.15-.05-.25-.06-.51-.05-.75.04-.01-.03-.03-.06-.05-.09-.25-.44-.67-.7-1.15-.72,0,0,0,0-.01,0-.02,0-.04,0-.07,0-.22-.31-.59-.51-.97-.53-.06,0-.12,0-.17,0-.04-.09-.09-.18-.13-.26-.1-.18-.25-.33-.43-.44-.13-.11-.29-.2-.45-.24,0,0,0,0,0,0-.2-.35-.54-.59-.92-.67-.04-.1-.09-.19-.13-.27-.23-.4-.68-.63-1.14-.61-.31.02-.59.15-.8.37-.11.03-.22.07-.33.13-.59.34-.79,1.09-.45,1.68.2.34.49.58.83.69.1.4.41.72.8.85.09.18.23.33.4.44.16.15.36.26.58.31.12.03.23.04.34.03.01.03.02.06.03.08.03.07.06.15.1.21.25.43.64.69,1.09.74.09.11.19.21.31.28.23.19.51.31.81.32.1,0,.19,0,.28-.02,0,.01.02.03.02.04.16.28.43.49.75.57,0,0,.01,0,.02,0,.08.05.16.08.24.11.13.06.27.1.42.12.11.01.22,0,.33-.01.17.2.41.34.67.4.58.13.97-.14,1.5-.52.03-.02.06-.05.1-.07.12.02.24.02.36.03.16.01.47.04.65.08.46.62,1.08.59,1.27.56Z"/><path d="M63.21,11.09c-.26-.31-.61-.51-1.01-.57-.52-.07-1.01.11-1.52.45-.16-.06-.33-.1-.51-.12-1.03-.11-2.27.69-3.34,1.62-2.72,1.1-5.59,2.64-6.34,4.44-.3.72-.29,1.46.02,2.15-1.07.64-1.64,1.12-1.83,1.79-.05.17-.06.34-.05.51-.51.42-.83.9-.58,1.54-.42.37-.73.91-.32,1.61.02.04.04.07.07.11.02.04.04.07.06.11.19.33.52.55.89.6.06,0,.12.01.17.01.32,0,.62-.12.85-.34.08-.08.18-.16.27-.23.17-.02.33-.07.48-.16.2-.12.36-.29.47-.48.12-.12.22-.26.29-.43.69-.53,1.32-1.22,1.32-2.04.52-.44.89-.92.91-1.46,2.1-1.17,3.4-2.01,3.75-3.14.98-.39,1.98-1.39,3.09-2.5.34-.34.78-.78,1.15-1.12.06-.02.12-.03.18-.05.03.06.04.12.08.18.39.56,1.16.69,1.71.3.29-.2.6-.41.9-.61.16.18.37.32.61.38.31.08.65.04.93-.12l.16-.09c.16.12.36.2.55.23.66.1,1.09-.3,1.51-.69l.76.71c.06.06.13.11.21.16.21.17.47.27.75.29.43.03.77-.13,1.04-.34.28.28.51.51.58.59.17.2.4.35.67.41.29.07.59.03.86-.11.17.25.28.4.31.45.18.31.49.53.83.6.02,0,.04,0,.06.01.16.23.41.4.69.47.17.04.33.05.5.02.13.25.25.48.33.62.16.29.44.5.76.58.11.35.37.63.71.77.1.29.3.55.58.7.11.06.22.1.33.12.05.27.11.51.24.73.17.3.45.49.76.57.05.41.1.71.26,1,.14.23.34.41.57.51l.04.44c.02.27.14.53.32.72.02.19.08.37.18.53.01.05.03.1.05.15.03.1.07.2.13.3.06.11.14.2.23.29-.04.4.02.53.16.78,0,0,0,0,0,0,.01.11.04.21.08.31.02.09.05.17.09.25.03.32.18.62.43.83-.1.52-.13,1.06.15,1.54.06.11.14.21.23.3-.17.47-.27.9-.05,1.36-.09.26-.09.54,0,.8-.06.15-.09.31-.08.49,0,.19.04.38.11.54l-.07.12c-.09.16-.14.34-.15.52-.03.15-.03.31,0,.47-.09.17-.14.35-.15.54-.23.44-.3.93,0,1.44.06.1.12.19.19.27-.15.18-.32.36-.49.53-.33.18-.63.44-.78.85-.03.09-.06.18-.07.26-.45.46-.79,1-.76,1.61-.23.27-.35.51-.36.77l-.19.16c-.17.15-.3.33-.37.53-.68.58-1.06,1.07-1.11,1.57-.1.09-.21.18-.29.25-.33.12-.6.37-.73.7-.14.35-.11.74.08,1.07.18.32.52.55.88.61.08.01.16.02.23.02.22,0,.41-.06.61-.16,1.23-.39,3.49-1.28,4.04-2.65.15-.37.18-.75.1-1.12.34-.23.54-.6.55-.98.23-.2.38-.48.42-.76.24-.3.32-.69.23-1.06.11-.09.21-.21.3-.33.08-.1.15-.22.2-.35.09-.25.11-.51.05-.76.53-.8.86-1.68.61-2.48.11-.24.13-.52.07-.78.05-.11.08-.22.09-.33.09-.27.07-.56-.11-.9v-.02c.13-.21.18-.44.16-.67,0-.12-.01-.25-.05-.37.08-.31.06-.65-.12-1,.09-.32.05-.66-.12-.96-.04-.07-.09-.14-.14-.2.12-.52.13-1.05-.14-1.52-.09-.15-.2-.27-.33-.37.1-.5.14-1-.12-1.46,0-.19-.07-.38-.17-.57-.02-.16-.07-.32-.17-.5-.06-.11-.15-.21-.25-.3.03-.23-.01-.47-.12-.68-.03-.08-.07-.16-.12-.24-.05-.2-.15-.39-.3-.55-.04-.32-.2-.62-.47-.83-.08-.06-.17-.12-.26-.16l-.04-.44c-.04-.42-.29-.79-.66-.98-.06-.03-.11-.05-.17-.07-.07-.36-.17-.72-.35-1.03-.16-.28-.43-.49-.74-.57-.07-.26-.16-.52-.29-.76-.13-.23-.33-.41-.57-.51-.03-.09-.06-.18-.11-.26-.18-.31-.45-.54-.76-.65-.12-.32-.37-.58-.69-.71-.19-.08-.39-.11-.59-.09-.11-.21-.21-.42-.29-.58-.01-.02-.02-.05-.04-.07-.21-.37-.53-.62-.9-.71-.18-.21-.42-.36-.69-.41-.22-.05-.45-.03-.66.05-.08-.11-.16-.23-.25-.36l-.13-.18c-.17-.26-.44-.44-.75-.51-.35-.08-.64-.02-1.02.18-.19-.19-.43-.42-.72-.71-.1-.12-.23-.22-.36-.3-.21-.15-.47-.24-.74-.26-.37-.03-.72.09-1.07.33l-.43-.4c-.22-.25-.52-.42-.85-.47-.24-.04-.47,0-.68.06-.36-.18-.8-.18-1.17.03l-.23.13c-.17-.17-.4-.3-.63-.35-.4-.09-.73-.16-2.53,1.02ZM72.33,13.69s.04.06.08.11c-.03-.03-.05-.07-.08-.11h0ZM72.32,13.66h0s0,0,0,0c0,0,0,0,0,0Z"/><path d="M50.43,41.25c.37-.23.49-.71.27-1.09-.11-.19-.33-.34-.54-.4.02-.04.06-.08.07-.13.2-.53.13-1.1-.22-1.7-.18-.32-.48-.52-.83-.58-.84-.13-1.69.59-3,1.78-.35.32-.84.77-1.13.96-.19-.04-.4-.01-.58.09-.39.22-.52.72-.3,1.11.02.03.04.06.06.09-.05.08-.1.17-.13.27-.12.32-.19.84.17,1.47.12.21.33.36.57.4.25.04.44-.02.66-.17.02.03.05.05.07.07-.69.43-1.09.8-1.22,1.23-.09.28-.05.57.09.82.12.21.33.35.56.39.05,0,.1.01.14.01.19,0,.37-.07.52-.19.34-.28.69-.56,1.03-.83.13.04.24.06.33.06.76.04,1.3-.67,1.79-1.38.62-.31.96-.5,1.15-.7.23.09.49.08.72-.05.39-.22.52-.72.3-1.11-.13-.22-.33-.36-.57-.44Z"/></g></svg>