<?xml version="1.0" encoding="UTF-8"?><svg id="_레이어_2" xmlns="http://www.w3.org/2000/svg" viewBox="0 0 287.75 286.94"><defs><style>.cls-1{fill:#848484;}</style></defs><g id="_레이어_1-2"><path class="cls-1" d="M142.09,0C65.12.82.53,65.54,0,142.38c-.53,78.33,65.28,144.54,143.7,144.56,78.53.02,144.47-66.01,144.04-144.26C287.32,64.41,220.73-.82,142.09,0ZM140.34,271.2c-68.9-1.89-125.89-61.51-124.53-130.3C17.16,71.99,76.41,14.8,145.47,15.74c69.1.94,126.83,59.57,126.45,128.42-.39,70.27-61.2,128.98-131.58,127.05Z"/><path class="cls-1" d="M215.88,157.97c-48.23,12.63-96.93,12.43-145.14-.11-27.02-7.03-24.12,6.12-18.09,23.44,12.96,37.18,48.08,61.55,89.74,61.92,43.56.4,79.92-24.62,92.97-62.79,6.81-19.91,4.73-28.8-19.48-22.46ZM58.09,166.49c58.96,14.5,112.77,15.14,170.15-.15-27.9,41.14-137.26,41.98-170.15.15Z"/><path class="cls-1" d="M99.54,128.1c8.91.92,13.5-4.4,14.9-12.8.98-9.44-1-18.58-11.25-20.27-9.95-1.64-16.19,5.71-17.49,15.18-1.34,9.82,3.46,16.81,13.84,17.88Z"/><path class="cls-1" d="M184.35,128.07c10.46,1.69,15.69-4.7,17.98-13.97-.41-9.77-4.29-17.57-14.24-18.89-11.46-1.53-14.65,6.92-15.01,16.33-.3,7.98,2.48,15.11,11.27,16.53Z"/></g></svg>