<?xml version="1.0" encoding="UTF-8"?><svg id="_레이어_2" xmlns="http://www.w3.org/2000/svg" viewBox="0 0 2981.43 962.18"><defs><style>.cls-1{fill:#231815;}</style></defs><g id="_칼선"><path class="cls-1" d="M813.81,792.52c-11.9-1.73-35.59,5.37-81.26,47.73l-7.07-.78c-4.83-.54-9.64,1.09-13.16,4.41-.38.11-.75.24-1.13.38-4.55,1.73-10.27,3.46-13.51,4.14-3.78-1.17-7.95-1-11.8.76-.33.15-.64.31-.95.48-1.75.02-3.49.01-4.83-.07-1.79-1.12-3.79-1.94-5.92-2.39-9.73-2.05-19.86,2.69-47.82,22.91-4.39-2.15-10.16-4.45-17.79-6.81-3.42-1.05-7.01-.95-10.27.17-2.35.2-4.69.9-6.86,2.16l-7.34,4.24c-.5-.09-1-.16-1.51-.2-11.12-.94-18.57,8.07-25.13,16.02-.2.24-.41.5-.63.77-2.29-.86-4.42-1.33-6.04-1.69-.08-.02-.16-.04-.23-.05-5.02-6.41-11.08-7.29-14.52-7.16-6.87.24-11.32,4.19-14.41,8.56-.84-.57-1.74-1.07-2.72-1.47-1.36-.55-2.76-.89-4.14-1.01-4.26-2.93-8.47-3.09-11.13-2.76-6.15.76-9.87,4.38-12.22,8.37-5.54-8.37-12.92-8.65-15.91-8.4-.48.05-.95.11-1.41.19-4.85-4.91-10.31-5.28-12.8-5.15-3.03.16-5.53,1.05-7.62,2.34-3.42-2.14-6.76-2.56-8.51-2.6-1.82-.07-3.52.17-5.07.62-2.45-.72-4.66-.7-6.32-.51-4.63.56-7.87,2.76-10.17,5.47-3.06-4.01-8.08-8.54-15.38-7.69-.4-.06-.8-.11-1.2-.14-8.82-.7-14.6,5.67-17.88,9.71-4.81,4.53-6.06,11.93-2.6,17.9,2.36,4.08,6.58,6.77,11.26,7.21,3.13,2.94,6.86,4.04,10.21,4.04,1.33,0,2.61-.18,3.76-.48,1.81-.48,3.4-1.2,4.77-2.15.76.99,1.54,1.86,2.34,2.59,3.15,3.94,7.57,6.21,12.49,6.33.15,0,.29,0,.44,0,5.67,0,9.76-2.7,12.87-6,2.97,2.34,6.59,3.54,10.49,3.34,1.03-.05,2-.2,2.9-.41,4.25,4.79,9.2,5.66,12.22,5.66.54,0,1.02-.03,1.43-.07,5.55-.53,9.12-3.5,11.49-6.82,3.64,6.04,8.13,8.37,11.77,9.16,3.06,1.45,5.94,1.78,7.92,1.78.43,0,.83-.01,1.17-.04,4.79-.33,8.78-2.42,12.07-5.3,3.36,2.05,6.64,2.44,8.6,2.44.19,0,.36,0,.52,0,7.62-.27,12.19-5.19,15.21-10.08,1.51.46,2.89.76,4.02,1.01.16.04.31.07.48.1,2.95,3.41,6.98,5.5,11.43,5.87,7.46.61,12.95-3.3,17.83-8.4,1.9.78,3.93,1.27,6.06,1.45.58.05,1.16.07,1.74.07,8.07,0,16.91-4.68,26.38-13.95,2.41.99,4.44,1.94,5.61,2.63,2.34,2.72,5.52,4.63,9.08,5.39,7.42,1.61,11.37-1.29,19.22-7.02,12.71-9.28,21.7-15.37,26.85-18.2,3.31.98,7.27,1.5,12,1.6,4.57,5.15,11.36,9.42,20.46,5.23,4.56-2.1,7.15-5.13,8.47-8.5.42-.12.84-.23,1.26-.36,4.41,3.78,10.33,6.28,17.84,3.5,4.94-1.83,7.92-4.97,9.65-8.59,4.03-.14,7.91-1.74,10.86-4.56,6.02-5.74,12.32-11.34,18.52-16.53,2.56,2.11,5.72,3.43,9.11,3.73,4.5.4,8.91-1.07,12.27-3.99,1.25-.59,2.91-1.29,4.78-2.11,19.13-8.39,34.1-15.86,38.39-28.95,1.95-5.95,1.31-12.2-1.82-17.61-3.67-6.35-9.77-10.44-17.17-11.5Z"/><path class="cls-1" d="M1046.71,442.88c3.55-4.48,4.5-10.4,2.68-15.67l1.66-2.34c2.48-3.49,3.43-7.67,2.91-11.67,4.44-7.74,5.83-14.8,4.19-21.15-.19-1.38-.56-2.76-1.11-4.1,5.43-9.49,6.33-14.41,3.76-20.06l1.13-1.76c2.91-4.54,3.37-10.07,1.52-14.87,2.4-3.2,3.47-7.01,3.27-10.74,1.32-4.38.8-9.23-1.67-13.32,4.67-9.84,5.87-13.93,5.13-17.31.44-3.48-.22-7.12-2.07-10.33-.85-1.47-1.96-2.82-3.25-4,1.52-2.91,3.18-5.87,4.85-8.62,1.75-2.88,2.55-6.16,2.39-9.41.36-3.31-.28-6.76-2.04-9.88-.47-.84-1-1.62-1.59-2.34.96-2.66,1.94-5.37,2.9-8.03,1.7-4.69,1.15-9.72-1.18-13.81,2.06-6.47,2.1-10.7.9-14.33.43-3.29-.26-6.57-2.09-9.82-.68-1.19-1.49-2.28-2.41-3.25l1.35-5.33c1.07-4.19.46-8.62-1.71-12.35-.93-1.6-2.04-3.03-3.31-4.26.63-5.94.26-11.48-2.56-16.33-4.56-7.91-14.67-10.6-22.57-6.04l-7.32,4.23c-7.91,4.56-10.61,14.68-6.05,22.58.9,1.56,2.01,2.92,3.29,4.05-1.39,6.65-2.01,11.8,1.17,17.32.56.96,1.2,1.86,1.91,2.68l-1.56,6.14c-.63,2.48-.68,5.05-.16,7.5-.61,3.51-.12,7.27,2.16,11.21.19.33.4.66.61.98-.22.43-.44.86-.67,1.29-2.63,5.02-2.51,11.03.32,15.94.35.6.73,1.17,1.13,1.72-1.69,4.9-2.8,8.47-3.46,11.19-.09.28-.18.57-.26.85-1.09,3.9-.67,8.56,1.1,12.27-5.05,12.26-5.37,19.85-4.42,24.66-.74,3.93-.05,8.09,2.13,11.66-1.22,2.42-2.45,4.86-3.63,7.2-1.23,2.42-1.81,5.04-1.79,7.62-1.49,3.19-1.67,6.26-.46,9.78-3.67,7.16-4.08,12.5-1.89,17.67l-1.43,2.24c-3.13,4.88-3.42,10.91-1.06,15.95-.97,1.48-1.93,2.94-2.86,4.34-1.27,1.91-2.11,4.02-2.51,6.2-.85,3.68-.44,7.64,1.39,11.21-.31.28-.61.56-.9.83-4.96,4.49-6.61,11.36-4.61,17.42l-1.99,2.8c-2.73,3.85-3.64,8.61-2.67,13.08l-.54.68c-3.58,4.51-4.46,10.39-2.71,15.57-6.54,9.55-8.19,14.22-5.13,20.69-6.87,4.79-9.05,13.93-5.16,21.28l-9.65,15.12c-.74,1.16-1.32,2.39-1.74,3.67-.12.32-.23.64-.32.96-1.38,1.8-2.51,3.86-3.27,6.28-.58,1.82-.87,3.68-.89,5.54-1.27,3.91-1.08,8.24.7,12.08-1.15.94-2.31,1.85-3.47,2.71-3.91,2.95-6.18,7.34-6.54,11.92-9.57,11.25-13.53,21.4-11.8,30.36-.11.11-.22.21-.33.31-4.68,4.46-6.21,11.07-4.37,16.92-8.3,6.3-16.77,15.11-12.19,26.53-9.28,9.12-15.81,16.09-18.01,22.86-.39-.07-.78-.12-1.17-.17-.14-.02-.28-.03-.43-.05-4.18-1.19-8.84-.73-12.89,1.66-.84.49-1.69.99-2.56,1.51-3.73,1.67-7.67,3.98-11.82,6.93-10.81,6.32-21.94,12.8-29,16.84l-14.52-8.22c-5.97-3.38-13.43-2.73-18.72,1.68-1.26,1.05-2.61,2.12-3.96,3.17-3.23-4.86-8.34-7.94-14.18-8.52-2.04-.2-6.51-.65-13.34,2.98-2.02-1.74-4.46-2.99-7.08-3.6-2.78-.65-5.29-.68-8.02.04-2.84-2.66-6.44-4.34-10.38-4.76-1.83-.18-3.53-.11-5.12.16-1.52-1.55-3.36-2.81-5.42-3.67-3-1.26-6.26-1.59-9.39-1h0c-.92-1.59-2.05-2.96-3.35-4.1-3.43-3.75-7.99-5.93-13.02-6.13-.12,0-.23-.01-.36-.01-2.63-4.01-6.76-6.53-11.22-7.24-1.67-3.06-4.29-5.56-7.54-7.07-.83-.38-1.67-.7-2.53-.94-1.23-2.46-3.08-4.59-5.35-6.17-.31-.39-.64-.76-.99-1.12-2.36-2.47-5.34-4.08-8.51-4.75-1.17-4.28-1.52-4.88-2.36-6.29-.73-1.22-1.59-2.32-2.56-3.27-2.18-3.62-5.94-6.49-10.04-7.72-.36-2.21-.7-4.49-.99-6.69-.28-2.16-.99-4.24-2.08-6.12-.06-.12-.14-.23-.21-.35-.31-.7-.67-1.38-1.08-2.05-1.33-2.15-3.08-3.89-5.08-5.18.01-3.29.02-5.71.02-5.71.01-3.85-1.31-7.48-3.59-10.35.73-4.99.44-8.31-.53-11.1.3-3.15-.43-6.27-2.18-9.33-.31-.53-.63-1.05-.99-1.53l2.46-7.51c1.46-4.47.95-9.34-1.4-13.42-.06-.11-.13-.22-.2-.33,3.33-8.27,4.79-16.41.51-23.82-4.56-7.9-14.67-10.61-22.58-6.05l-8.69,5.02c-7.9,4.56-10.61,14.67-6.05,22.58.22.39.46.76.7,1.12-4.47,8.75-7.68,15.86-2.93,24.11.56.97,1.2,1.87,1.93,2.68l-1.76,5.35c-1.12,3.41-1.08,7.06.04,10.4-.09,2.84.57,5.82,2.36,8.91.7,1.22,1.54,2.33,2.51,3.32-1.2,4.28-.63,8.88,1.59,12.74,1.44,2.49,3.41,4.56,5.73,6.09.11,9.41.56,10.48,2.03,13.05.33.8.72,1.57,1.13,2.29,2.09,3.61,5.13,6.29,8.67,7.78,1.35,5.88,2.83,10.23,4.44,13.03.69,1.2,1.57,2.32,2.56,3.34.62,1.05,1.35,2.05,2.21,2.97,2.24,2.4,5.05,4,8.07,4.76.35,1.38.57,2.26.57,2.26.95,3.78,3.19,7.06,6.27,9.32,2.14,2.89,5.01,5.06,8.27,6.3.14.25.27.5.41.74,2.19,3.81,5.8,6.58,10.04,7.72.28.08.57.15.86.21,1.65,3.28,4.38,5.96,7.8,7.55,2.12.99,4.39,1.5,6.67,1.54.21.47.45.93.7,1.37,1.67,2.88,4.23,5.22,7.2,6.71,2.85,1.49,6.11,2.11,9.33,1.81,1.88,3.49,4.96,6.22,8.73,7.64,2.45.93,5.06,1.24,7.58.97,2.9,3.89,7.3,6.44,12.12,6.95,1.2.13,2.33.13,3.42.04,1.02.91,2.18,1.71,3.43,2.35,4.63,2.38,10.09,2.42,14.71.2,2.78,3.62,6.96,5.95,11.56,6.39,4.51.44,9.13-1.06,12.54-4.09,2.68,3.63,6.66,6.12,11.2,6.93,1.08.19,2.28.41,3.75.41,4.21,0,10.68-1.75,22.96-10.77l12.89,7.3c1.25.7,2.58,1.25,3.96,1.61,3.78.99,5.62,1.46,14.44-2.99,1.42.59,2.93,1,4.5,1.17,2.93.34,5.87-.13,8.51-1.28,3.27.13,6.56-.73,9.48-2.61l-5.65,12.91c-.48,1.1-.83,2.22-1.07,3.37-5.05,4.32-12.14,9.94-19.85,15.81-3.94-1.41-7.67-1.23-10.75-.48-7.31,1.79-16.22,8.21-17.11,28.65-.28,6.31,3.07,12.23,8.62,15.25,2.47,1.35,5.18,2.01,7.89,2.01,3.37,0,6.73-1.03,9.59-3.06,1.94-1.38,3.82-2.73,5.65-4.04,1.59-.36,3.17-.96,4.66-1.82,2.56-1.47,4.56-3.52,5.97-5.89,39.92-29.38,47.31-39.76,42.97-50.86l7.83-17.9c.51-1.15.87-2.33,1.1-3.53l36.84-43.24c3.77-4.42,4.84-10.34,3.2-15.62,10.06-10.21,16.51-18.28,16.66-26.46,7.95-7.56,14.13-17.09,11.09-28.25,5.71-6.93,6.95-12.17,2.59-19.73-.13-.22-.26-.44-.39-.65.47-.4.95-.81,1.42-1.21,1.72-1.31,3.56-2.78,5.53-4.42,3.74-3.13,5.75-7.56,5.92-12.08,6.11-8.01,8.92-15.43,8.41-22.23,1.19-1.66,2.17-3.53,2.84-5.69.98-3.1,1.14-6.3.53-9.4-.24-2.19-.93-4.36-2.09-6.39l9.01-14.12c1.54-2.41,2.38-5.09,2.56-7.79,5.54-8.04,8.53-17.27,4.41-26.54.92-1.25,1.83-2.49,2.73-3.72,2.89-3.94,3.84-8.88,2.78-13.49l.23-.29Z"/><path class="cls-1" d="M2533.05,636.25l13.17-7.61c6.29-3.63,9.29-10.76,7.96-17.52,3.63-2.76,7.7-6.16,12.26-10.34,5.56-5.11,6.88-13.23,3.51-19.76,12.58-7.71,27.02-17.33,18.25-32.53-.19-.33-.38-.65-.59-.97,5.51-5.63,11.41-11.42,16.98-16.63,5.06-4.74,6.53-11.99,4.06-18.17l10.59-12.76c4.41-5.32,5.05-12.83,1.59-18.82-.5-.87-1.05-1.69-1.64-2.47,3.25-2.87,6.72-5.71,10.18-8.28,6.73-5.01,8.65-14.27,4.46-21.53-.06-.1-.11-.2-.18-.3,2.26-2.29,4.61-4.56,6.93-6.7,2.6-2.4,4.26-5.45,4.95-8.69,2.33-4.74,2.24-10.29-.16-14.9,7.33-8.81,13.08-17.02,13.31-25.3,1.25-2.59,1.94-5.35,1.83-8.24.06-.72.09-1.44.06-2.17,2.71-3.43,4.68-7.53,4.63-12.24.68-1.36,1.2-2.72,1.57-4.08,1.39-5.19.72-10.54-1.89-15.06-.06-.1-.13-.21-.19-.31,6.63-7.98,12.24-16.27,8.86-25.51,2.73-3.27,5.13-7.64,4.62-12.82,4.24-7.03,6.81-14.88,5.07-22.65.06-1.97-.23-3.94-.86-5.82l1.11-1.61c1.72-2.5,2.68-5.37,2.88-8.28,1.15-3.76.9-7.78-.61-11.34,3.64-5.72,6.03-11.22,5.4-16.89,2.37-4.66,1.95-8.64-1.21-13.93-.25-.43-.51-.84-.79-1.25,1.82-3.75,3.72-7.64,5.55-11.38,1.83-3.74,2.14-7.91,1.08-11.72,3.23-5.42,3.07-12.19-.3-17.42l2.46-5.18c.99-1.34,1.84-2.87,2.48-4.63,1.84-5.01,1.36-10.55-1.32-15.21-.2-.35-.41-.69-.63-1.01,2.49-4.96,2.34-10.86-.46-15.7-2.98-5.15-8.27-8.49-14.15-8.96-7.44-.56-14.62,3.33-21.36,11.65-3.74,4.62-4.57,10.63-2.73,15.85-2.66,6.18-3.66,10.61-3.28,14.43.07,2.8.82,5.58,2.21,8,.1.17.2.33.31.5l-4.28,9c-1.72,3.64-2.02,7.66-1.03,11.36-3.42,5.45-3.32,12.34.07,17.66-5.58,11.82-7.57,17.14-7.51,20.81-1.4,3.89-1.3,8.22.35,12.09-3.49,5.32-5.94,10.45-5.85,15.71-.73,2.91-.65,6,.25,8.91-2.38,2.69-3.22,4.95-3.72,6.27-1.83,4.9-1.52,10.27.83,14.87-3.32,2.76-4.88,5.48-5.85,7.88-.98,2.44-1.41,4.99-1.3,7.52-4.14,6.43-6.41,13.88-3.29,21.76-5.87,7.94-10.4,16.58-8.99,25.3-1.39,2.27-2.18,4.81-2.37,7.4-3.23,3.95-5.58,8.74-5.28,14.28-.18.84-.26,1.71-.23,2.61-2.01,4.4-2.06,9.62.23,14.21-7.33,8.68-13.34,16.74-14.22,24.84-.19.54-.34,1.04-.48,1.51-.7,2.37-.91,4.78-.65,7.14-8.88,11.26-11.71,19.18-11.54,25.34-15.89,17.77-16.77,30.83-13.03,39.77l-12,14.45c-2.98,3.59-4.21,8.12-3.69,12.49-15.04,16.18-21.09,25.99-22.84,32.71-14.8,10.83-27.97,24.88-22.44,41.56-.77,1.58-1.39,3.19-1.82,4.81-.01.05-.03.11-.04.16-17.31,10.68-35.76,23.95-45.01,36.59-14.84,8.32-27.95,18.56-32.39,30.18-2.48,6.49-2.49,13.27-.12,19.46-.14-.02-.27-.04-.4-.06-14.41-1.7-32.68,8.9-49.53,22.3-16.59,7.63-31.39,17.44-36.43,29.32-.14.32-.27.65-.4.98l-19.03,5.48c-4.78-4.94-11.37-8.52-19.98-4.97-4.66,1.93-7.45,4.93-9.01,8.39-2.04-.1-3.77.15-5.2.49-3.89.91-9.6,3.59-13.39,11.27-5.73.89-12.38,2.51-20.07,4.62-.01-.03-.04-.06-.05-.09-3.6-6.24-9.76-10.26-16.88-11.03-14.12-1.52-31.17,11.45-44.83,25.08-1.95-.7-3.02-1.25-3.6-1.62-2.46-3.38-6.33-5.93-10.37-6.8-5.92-1.26-11.01-2.34-41.7,19.74-7.41,5.33-9.1,15.66-3.77,23.07,3.23,4.49,8.29,6.88,13.43,6.88,3.35,0,6.72-1.01,9.64-3.11,5.16-3.71,11.6-8.05,16.43-11.06,6.07,3.49,13.13,5.61,19.4,7.16l.41.1c1.05.35,2.15.59,3.27.72,4.98.56,9.8-1.11,13.33-4.51,1.94.2,3.91.04,5.84-.48,7.52-.43,17.63-3.37,31.77-7.49,9.77-2.84,27.17-7.91,34.28-8.75,3.06,1.21,6.49,1.53,9.87.74,3.81-.88,7.07-3.05,9.34-6,.9-.11,1.81-.31,2.71-.58l11.48-3.5c2.35-.72,4.44-1.91,6.16-3.46l32.81-9.45c.16.04.33.08.51.11,8.03,1.72,10.61-.17,30.65-14.77,8.78-6.39,26.96-19.62,41.35-28.69,3.58-1.05,7.2-2.03,10.79-2.92,3.17-.79,5.99-2.49,8.16-4.83,3.26.29,6.71-.37,9.8-2.15,7.91-4.56,10.61-14.68,6.05-22.58-.04-.06-.08-.12-.12-.18,9.22-4.71,23.33-13.36,46.07-28.83,4.66-3.16,7.18-8.29,7.23-13.52,2.59-1.68,5.35-3.48,8.3-5.41,6.88-4.53,9.38-13.44,5.86-20.88.23-.14.45-.27.67-.4.49-.22.97-.47,1.44-.74Z"/><path class="cls-1" d="M1555.1,890.43c-5.78-1.23-12.28-2.6-48.8,23.39l-22.37-3.06c-2.29-1.29-4.83-2.1-7.51-2.35-5.31-.48-9.84,1.14-13.83,3.82-.16-.03-.32-.06-.48-.08-5.19-.79-9.52.61-13.51,3.09-1.22-.66-2.54-1.16-3.91-1.49-5.79-1.39-10.02-.29-20.1,5.78-1.28-1.41-2.71-2.99-4.33-4.74h-.01c-2.53-2.72-6.04-4.76-9.58-5.44-2.19-.42-4.24-.42-6.19-.12-3.77-3.86-8.62-5.83-14.16-5.99-1.21.01-2.38.12-3.5.33-.06,0-.11.01-.16.01-1.8-2.36-4.24-4.22-7.08-5.34-2.44-.96-5.03-1.3-7.62-1.07-.28-.57-.55-1.08-.83-1.56-2.58-4.51-7.31-7.66-12.47-8.31-.52-.07-1.03-.11-1.52-.13-.58-1.45-1.12-2.63-1.73-3.68-2.16-3.73-5.88-6.6-10.04-7.87-.51-1.32-1.09-2.57-1.74-3.7-2.01-3.5-5.5-6.29-9.36-7.65-.47-4.29-2.59-8.19-5.84-10.9-.49-1.27-1.02-2.19-1.37-2.8-3.86-6.68-10.58-10.38-17.68-9.92-8.25.52-15.06,6.21-19.16,16-2.75,6.54-.89,13.72,4.02,18.25.8,2.9,2.39,5.59,4.71,7.73,1.58,1.46,3.38,2.56,5.3,3.3,1.15,4.26,2.25,6.16,2.78,7.08,2.12,3.68,5.57,6.37,9.6,7.57.37,1.49.95,2.94,1.73,4.28,3.01,5.22,7.79,8.56,13.31,9.39.51,1.22,1,2.25,1.53,3.18,2.85,4.93,7.68,8.15,13.25,8.84.53.07,1.05.11,1.56.13.26.56.53,1.06.82,1.56,2.27,3.89,6.07,6.71,10.44,7.76,1.39.33,2.68.5,3.94.51,2.58,3.93,6.46,6.65,10.96,7.7,2.16.99,4.53,1.53,6.98,1.53-.02,0,.61-.01.91-.02,2.38,2.5,5.54,4.25,8.97,4.9,5.74,1.07,10.07-.82,13.78-3.34,1.36,1.54,2.41,2.77,2.93,3.41,2.31,3.39,5.81,5.82,9.83,6.77,3.02.71,6.13.57,9.01-.38,2.43,1.86,5.3,3.1,8.41,3.57,2.36.36,4.62.28,6.76-.17,2.06,1,4.3,1.64,6.64,1.86.66.06,1.31.09,1.96.09,10.83,0,18.35-8.7,25.01-16.42.65-.75,1.42-1.64,2.19-2.51l30.8,4.21c4.23.6,8.51-.49,11.96-3,11.06-8.03,25.73-17.74,32.06-20.92,2.78-.01,5.6-.73,8.18-2.21,7.91-4.56,10.62-14.67,6.07-22.58-2.46-4.26-6.66-7.29-11.52-8.33Z"/><path class="cls-1" d="M1305.21,829.38l37.22-21.49,24.35-1.93c3.93.24,8.93-1.68,26.78-11.84,2.48.13,5.25-.39,7.77-1.59,54.32-25.83,57.44-35.84,59.11-41.22.69-2.21.94-4.46.81-6.66,2.76-1.99,5.42-4.27,7.96-6.68,12.71-5.67,20.72-12.27,23.91-19.73.93-2.19,1.5-4.47,1.69-6.75,1.25-1.98,2.07-4.2,2.41-6.51,9.68-8.72,13.77-15.26,13.48-21.68,2.54-3.62,4.51-7.4,5.58-11.29,1.94-7.02,1.12-13.91-2.36-19.94-2.95-5.11-8.43-8.23-14.34-8.23h-.01c-5.6,0-10.81,2.88-13.85,7.54-2.55.12-5.1.84-7.47,2.2-6.74,3.9-9.7,11.83-7.59,18.98-5.03,3.5-10.97,8.53-17.9,15.74-2.41,2.5-3.88,5.58-4.41,8.8-14.45,6.83-23.37,14.36-26.61,22.51-1.08,2.71-1.6,5.54-1.58,8.34-.81,3.8-.24,7.79,1.62,11.26-23.51,13.88-50.27,29.52-58.38,33.88l-27.32,2.16c-2.46.2-4.83.93-6.96,2.16l-9.97,5.76c-2.7-1.84-5.8-2.98-9.13-3.28-9.97-.93-17.06,5.45-23.16,12.32-2.22-3.3-5.56-5.7-9.43-6.74-3.03-.82-6.22-.74-9.18.18-2.74-1.76-5.91-2.82-9.31-3.05-4.16-.26-8.52.78-12.88,3.16-2.31-2.37-5.33-4.1-8.54-4.8-.51-.11-1.01-.2-1.51-.27-2.16-1.21-4.58-1.96-7.13-2.19-2.01-.19-3.89-.04-5.62.33-.53-.42-1.1-.82-1.69-1.17-5.15-3.12-11.61-3.19-16.83-.18l-.82.47c-1.54-1.17-3.27-2.04-5.08-2.6l-.95-2.09c-.22-.48-.47-.96-.73-1.42-3.67-6.36-9.95-10.14-16.87-10.18-3.17-4.51-8.09-7.28-13.5-7.55-.27-.64-.58-1.26-.93-1.86-1.75-3.04-4.18-5.44-7.05-7.03-1.54-1.86-3.39-3.35-5.45-4.42-2.59-3.82-6.68-6.35-11.22-7.03-.15-.7-.28-1.38-.41-2.06-1.04-5.64-4.93-10.23-10.14-12.3-.41-2.85-.95-4.75-2.27-7.01-1.91-3.29-4.78-5.67-8.04-7.01-.77-5.45-1.67-9.14-3.53-12.36-.88-1.52-1.92-2.89-3.09-4.07-.38-2.45-1.18-4.96-2.63-7.46-.63-1.09-1.38-2.09-2.24-3-.11-2.09-.63-4.16-1.52-6.08-.36-1.19-.87-2.35-1.51-3.46-.57-.98-1.22-1.9-1.95-2.74.09-2.88-.59-5.68-1.89-8.15-.48-3.38-1.99-6.62-4.5-9.2-.04-.05-.09-.09-.13-.14,1-4.1.41-8.47-1.74-12.19-.78-1.35-1.72-2.57-2.78-3.64l.73-4.16c.66-3.67.04-7.33-1.6-10.49.38-2.32.25-4.68-.35-6.92-.08-2.68-.81-5.35-2.21-7.78-.12-.2-.24-.4-.36-.59,1.71-4.56,1.33-9.72-1.16-14.05-.48-.82-1-1.58-1.57-2.3l2.9-9.82c.9-3.04.89-6.18.09-9.08,1.87-4.29,2.76-8.11,2.71-11.62.95-3.56.51-7.51-2.07-11.98-.08-.13-.16-.26-.23-.38.98-1.09,1.98-2.15,2.96-3.15,2.16-2.18,3.62-4.84,4.32-7.68,3.22-4.84,4.02-9.85,2.35-14.97,5.15-4.91,10.06-10.75,11.57-17.39,6.78-6.16,12.32-13.77,12.35-22.53,5.46-4.98,9.44-10.51,9.87-16.75,23.7-13.68,38.58-23.7,42.84-37.19,13.17-4.21,26.23-17.28,40.81-31.87,4.06-4.06,9.32-9.33,13.81-13.4.23-.07.47-.13.7-.2.21.36.42.72.67,1.07,5.24,7.48,15.55,9.3,23.02,4.06,2.95-2.06,6.22-4.28,9.45-6.41,2.04,2.05,4.6,3.55,7.44,4.31,4.22,1.14,8.74.54,12.54-1.65l.6-.35c2.05,1.34,4.37,2.25,6.76,2.6,7.62,1.13,12.89-2.71,17.42-6.82l7.5,7.53c.86.87,1.82,1.63,2.83,2.27,2.91,2.39,6.46,3.82,10.29,4.08,4.23.26,7.82-.86,10.77-2.61,2.61,2.98,4.59,5.29,5.29,6.12,2.31,3.1,5.66,5.3,9.47,6.19,2.84.66,5.77.56,8.49-.26,1.47,2.39,2.67,4.36,3.11,5.14,2.21,3.83,6.01,6.7,10.27,7.84,2.21,3.22,5.55,5.66,9.56,6.67,1.57.4,3.09.56,4.68.5,1.42,2.98,2.79,5.71,3.79,7.44,1.15,2.01,2.74,3.75,4.6,5.12,1.15,1.37,2.54,2.57,4.16,3.54,2.66,1.59,5.58,2.35,8.48,2.35,4.3,0,8.53-1.68,11.67-4.81,1.36-.37,2.69-.91,3.97-1.65,7.91-4.57,10.61-14.68,6.05-22.58-.42-.73-.88-1.42-1.36-2.07-.8-1.69-1.91-3.27-3.3-4.66-3.25-3.23-7.6-4.84-11.89-4.79-1-2.21-1.96-4.36-2.78-6.2-.24-.54-.51-1.08-.81-1.59-2.51-4.34-6.21-7.45-10.49-8.99-2.4-3.04-5.81-5.16-9.65-5.94-2.17-.44-4.36-.45-6.47-.03-.94-1.52-1.79-2.9-2.43-3.95l-.95-1.52c-2.29-3.98-6.19-6.87-10.65-7.91-3.86-.89-7.15-.51-10.79,1-1.96-2.24-4.31-4.91-7.13-8.1-1.35-1.75-2.98-3.21-4.81-4.34-2.95-2.16-6.49-3.45-10.22-3.65-3.88-.17-7.75.74-11.53,2.83l-4.14-4.16c-2.9-3.55-6.99-5.88-11.58-6.55-2.64-.4-5.11-.22-7.41.36-4.78-2.38-10.65-2.38-15.63.48l-1.25.72c-2.21-1.99-4.94-3.44-7.78-4.08-5.06-1.12-9.25-2.04-30.19,11.45-3.3-3.48-7.63-5.74-12.42-6.36-6.5-.84-12.69,1.22-19.08,5.36-1.91-.7-3.93-1.16-6.05-1.37-12.84-1.33-28.28,8.31-41.58,19.74-60.47,24.48-74.87,47.66-78.12,55.53-3.65,8.83-3.66,18.15-.11,26.68-11.33,7.21-17.45,12.92-19.58,20.81-.58,2.12-.79,4.27-.66,6.39-4.86,4.7-7.99,10.34-5.89,17.33-5.09,4.2-9.87,10.41-7.33,18.54-5.45,6.13-9.74,13.47-8.56,21.62-1.48,3.57-1.4,6.95-.53,9.96-3.86,7.5-5.16,14.28-3.88,20.32-.11,3.22.73,6.17,1.77,8.27-3.19,5.13-3.35,11.66-.28,16.98.68,1.17,1.47,2.24,2.36,3.21-3.13,10.73-3.13,11.25-3.13,12.9,0,2.71.66,5.36,1.93,7.75-.98,5.28-.33,9.02.58,11.58.16,2.35.82,4.68,1.98,6.81-.48,3.57.22,7.24,2.06,10.44.81,1.42,1.87,2.73,3.1,3.87l-.66,3.74c-.68,3.83,0,7.77,1.95,11.13.47.82,1,1.6,1.59,2.32-.13,4.53.63,8.93,2.78,12.8.31,1.95.98,3.86,2,5.62.62,1.07,1.31,2.06,2.06,2.97-.04,2.55.52,5.04,1.59,7.29.35,1.11.82,2.2,1.42,3.25.68,1.2,1.5,2.29,2.43,3.26.16,2.51.9,4.98,2.19,7.19.9,1.55,2.04,2.93,3.36,4.1.24,2.37.94,4.85,2.39,7.35,2.02,3.5,4.97,6.13,8.41,7.62.65,5.31,1.34,8.58,3.17,11.76,1.79,3.1,4.52,5.52,7.77,6.92.59,2.99,1.34,5.13,2.51,7.17,2.42,4.2,6.21,7.2,10.62,8.53.93,2.58,1.99,5.03,3.17,7.07,1.68,2.91,4.03,5.25,6.79,6.85,1.74,2.81,4.02,5.05,6.62,6.62,2.86,3.19,6.96,5.34,11.19,5.73.66,1.73.9,2.14,1.31,2.84,3.24,5.62,8.77,9.12,14.88,9.47,2.71,4.62,7.55,7.68,13.01,8.11,1.36.11,2.73.04,4.04-.18,2.06,3.39,5.28,5.95,9.09,7.17,1.29.42,2.61.67,3.94.75,3.37,3.66,8.16,5.58,13.04,5.29,3.1,3.24,7.17,5.28,11.68,5.74.61.06,1.21.1,1.8.11.49.16.99.29,1.49.4,4.11.9,7.45.26,10.56-1.16,2.42,3.17,6.02,5.49,9.9,6.33.75.16,1.48.28,2.21.36,2.05.46,4.21.53,6.34.19,1.12.6,2.31,1.07,3.55,1.41,4.22,1.12,8.75.54,12.55-1.65l6.19-3.58c3.35,5.63,8.83,9.18,15.08,9.74.63.06,1.25.09,1.85.09,3.47,0,6.58-.91,9.43-2.39,3.82.76,7.89.18,11.48-1.9Z"/><path class="cls-1" d="M2514.36,383.6c.43,1.45,1.05,2.86,1.84,4.23,2.52,4.25,7.05,7.09,11.97,7.5.43.04.85.05,1.28.05,4.68,0,9.13-2.12,12.35-5.95,2.7-3.2,3.86-7.18,3.55-11.05,1.45-1.67,3.48-3.67,5.29-5.16,2.37-1.93,4.03-4.45,4.9-7.19,1.48-3.25,1.81-6.97.81-10.49.73-.85,1.45-1.71,2.16-2.55,2.75-3.23,3.96-7.37,3.55-11.41,4.38-7,6.8-14.35,5.36-21.45.16-1.58.07-3.2-.28-4.79,2.73-5.27,3.4-10.03,1.12-15.06,1.9-6.29,1.97-12.91-1.58-19.06-2.83-4.92-8.27-7.7-13.9-7.55-3.99.17-7.69,1.92-10.38,4.73-1.47.33-2.9.89-4.27,1.68-7.3,4.22-9.8,13.55-5.58,20.85.05.08.1.17.15.25-.52.59-1.05,1.22-1.59,1.88-3.14,3.85-4.09,8.79-2.99,13.29-1.84,2.34-2.51,4.25-2.91,5.39-1.65,4.72-1.17,9.89,1.29,14.14.06.1.11.2.18.3-1.24,1.2-2.51,2.37-3.74,3.44-4.21,3.6-6.04,9.07-5.1,14.28-3.16,3.85-5.42,6.84-6.84,9.41-3.22,4.21-4.19,9.19-.45,15.68,1.04,1.8,2.33,3.35,3.82,4.63Z"/><path class="cls-1" d="M223.28,736.6c2.94,0,5.86-.77,8.45-2.27l7.47-4.31c8.08-4.67,10.84-15,6.18-23.08-2.15-3.71-5.49-6.3-9.26-7.57-.7-2.72-1.48-4.84-2.61-6.79-1.84-3.19-4.38-5.69-7.34-7.35-.37-.92-.82-1.83-1.34-2.74-1.45-2.52-3.55-4.62-6.02-6.1-.35-1.01-.79-1.99-1.33-2.93-.7-1.22-1.51-2.34-2.4-3.36-1.33-1.86-2.99-3.43-4.87-4.66-.76-2.56-2.14-4.87-3.98-6.76-.92-2.1-2.28-4.03-4.05-5.66-.94-.86-1.96-1.61-3.04-2.22-.18-2.56-.93-5.06-2.22-7.3-1.48-2.57-3.53-4.68-5.94-6.21l-.19-3.24c-.2-3.48-1.42-6.75-3.45-9.43-.11-1.96-.56-3.89-1.33-5.68-.34-1.86-1-3.68-1.99-5.37-.36-.63-.78-1.24-1.23-1.83.97-4.13.36-8.52-1.8-12.27-.5-.86-1.05-1.67-1.67-2.43l2.61-10.28c.68-2.68.68-5.4.09-7.97,2.16-4.55,3.24-8.6,3.3-12.31,1.23-3.83.85-8.08-1.96-12.96-.01-.03-.04-.06-.05-.09,1.4-1.42,2.83-2.81,4.24-4.1,1.98-1.79,3.45-3.97,4.37-6.33,1.59-2.08,2.85-4.45,3.61-7.18.94-3.39.95-6.88.07-10.17,6.21-5.43,12.17-11.98,13.71-19.52,6.84-6.48,12.13-14.4,11.58-23.48,4.37-4.68,7.37-9.87,7.39-15.63,13.5-9.32,26.34-20.04,27.75-32.45,15.2.62,28.15-13.32,41.87-27.97,1.75-1.87,3.83-4.09,5.9-6.24,5.44,7.21,15.64,8.9,23.12,3.7,4.02-2.8,8.46-5.79,12.72-8.57,2.11,2.17,4.78,3.76,7.76,4.56,4.33,1.16,8.94.56,12.81-1.69l3.59-2.07c2.08,1.36,4.43,2.3,6.84,2.67,9.11,1.41,15.19-4.12,21.58-9.97.44-.4.97-.88,1.53-1.4l11.54,9.07c.78.61,1.6,1.15,2.46,1.61,2.78,2.03,6.05,3.27,9.57,3.56,6.92.57,12.26-2.5,16.33-6.22,3.82,3.32,6.93,6.06,8.04,7.09,2.26,2.45,5.23,4.19,8.53,4.96,3.92.92,8.04.41,11.6-1.43,1.8,2.53,2.9,4.12,3.27,4.71,2.41,4.18,6.69,7.25,11.41,8.22.13.02.25.05.37.07,2.21,2.85,5.35,5,9.05,5.99,1.87.51,3.77.68,5.65.52,1.45,2.97,2.83,5.69,3.84,7.45,2.05,3.52,5.39,6.22,9.23,7.55,1.42,4.23,4.5,7.7,8.49,9.67,1.27,3.95,3.97,7.35,7.67,9.47,1.04.6,2.13,1.07,3.25,1.43.46,3.36,1.26,6.57,3,9.6,1.95,3.4,5.02,5.99,8.65,7.37.22,5.04.72,9.27,3.1,13.39,1.47,2.55,3.56,4.64,6.05,6.11l.06,4.95c.05,3.59,1.24,7,3.3,9.8.09,2.31.67,4.58,1.67,6.67.03.21.06.41.1.62.23,2.2,1,4.55,2.46,7.05.47.81,1.01,1.58,1.62,2.31-.88,4.9-.51,7.29.9,10.16,0,1.26.15,2.52.43,3.76.13,1.29.41,2.5.78,3.61-.12,3.89,1.12,7.75,3.54,10.86-2.77,7.7-4.32,16.16.2,23.98.28.48.57.94.88,1.39-3.58,6.12-6.68,12.44-4.89,19.29l-.04.06c-2.41,3.41-3.41,7.46-3.03,11.39-1.62,2.04-2.53,3.96-3.15,5.81-1.06,3.14-1.23,6.46-.55,9.61l-4.34,5.34c-1.17,1.43-2.06,3-2.69,4.66-1.52,2.46-2.36,5.27-2.49,8.14l-2.41,2.25c-.66.62-1.27,1.28-1.81,1.99-6.98,5.82-11.29,11.47-12.9,16.9-.65,2.19-.94,4.41-.89,6.59-3.65,2.71-7.68,5.84-12.14,9.47-6.45,5.26-8.11,14.44-3.89,21.63.25.43.53.84.81,1.25-.99,1.45-1.99,2.9-3.01,4.33-6.56-4.82-12.98-5.2-17.03-4.77-18.16,1.98-27.59,23.51-31.59,36.17-.98,3.08-1.03,6.3-.26,9.31-1.02-1.09-1.96-2.52-2.71-3.82-4.66-8.08-14.99-10.83-23.08-6.18-8.07,4.67-10.84,15-6.18,23.08,10.68,18.5,24.84,22.46,34.83,22.53h.18c8.14,0,33.18-3.86,65.23-45.23,10.12-6.67,18.59-14.58,22-23.54,1.87-4.91,2.31-9.98,1.37-14.85,15.32-7.87,31.2-18.76,35.67-31.59,1.4-3.99,1.77-8.08,1.15-12.02,1.79-1.9,3.12-4.21,3.89-6.76.51-1.75.74-3.55.68-5.34,1.69-1.83,2.9-3.96,3.62-6.23,2.4-3.84,2.93-7.92,1.07-12.74l1.43-1.76c1.87-2.29,3.05-4.95,3.54-7.73.47-1.68.67-3.4.61-5.11,2.39-4.77,3.32-10.02,1.32-15.59,2.72-5.02,2.73-11.12-.06-16.18,3.41-8.05,4.87-16.54.28-24.5-.67-1.16-1.47-2.22-2.36-3.16,2.37-6.54,3.72-13.44.73-20.14.23-2.86-.4-5.49-1.42-7.78.03-2.72-.7-5.48-2.4-8.45-.51-.89-1.12-1.74-1.81-2.53.56-2.96.33-6.01-.68-8.83-.31-1.25-.77-2.48-1.37-3.66-.44-2.62-1.5-5.15-3.17-7.36-.25-4.62-2.39-9.05-6.11-12.12-.73-.61-1.5-1.14-2.3-1.61l-.06-4.82c-.09-5.99-3.33-11.5-8.55-14.46-.39-.22-.78-.43-1.19-.62-.61-4.78-1.79-9.63-4.26-13.9-2.03-3.51-5.13-6.02-8.64-7.35-.72-3.43-1.83-6.87-3.66-10.04-1.67-2.9-4.09-5.12-6.86-6.55-.37-1.18-.87-2.32-1.5-3.41-1.56-2.7-3.61-4.91-5.98-6.57.11-3-.58-6.07-2.19-8.86-1.42-2.46-3.37-4.41-5.62-5.8-.16-.31-.32-.62-.5-.93-2.39-4.14-6-7.11-10.17-8.51-.06-.11-.12-.21-.19-.32-1.77-3.05-4.51-5.47-7.71-6.89-.19-.41-.41-.82-.63-1.21-1.22-2.12-2.76-3.95-4.53-5.44-1.2-1.19-2.55-2.2-4.02-3-.91-2.42-2.39-4.59-4.28-6.33-.86-1.63-2-3.14-3.42-4.45-1.1-1.02-2.32-1.87-3.61-2.54-.23-2.29-.95-4.51-2.11-6.52-1.51-2.62-3.62-4.76-6.11-6.27l-.15-2.77c-.19-3.51-1.49-6.79-3.61-9.43-.15-2.03-.66-4-1.52-5.83-.36-1.61-.96-3.18-1.82-4.66-.47-.81-1.01-1.58-1.62-2.3.68-3.81.01-7.78-1.96-11.2-.73-1.25-1.57-2.38-2.53-3.39.93-4.92,1.67-8.83,1.67-8.83.58-3.04.27-6.1-.76-8.86,1.5-4.31,1.92-7.76,1.7-10.66.51-3.2-.11-6.7-2.37-10.59-.13-.22-.26-.44-.4-.65.72-.88,1.45-1.74,2.16-2.55,2.05-2.3,3.36-5.05,3.91-7.93,2.69-4.6,3.22-9.31,1.57-14.13,4.71-4.81,9.13-10.49,10.37-16.89,6.24-5.98,11.24-13.3,11.18-21.66,5-4.77,8.68-10.11,9.16-16.06,18.4-10.79,36.98-22.66,41.28-36.78,11.35-4.02,21.97-15.11,33.8-27.47,2.95-3.08,6.72-7.02,10.04-10.23.46-.14.94-.27,1.4-.41.12.19.23.39.36.57,5.27,7.45,15.58,9.24,23.04,3.95,1.44-1.01,2.99-2.09,4.57-3.16,4.75,4.56,11.91,5.92,18.1,3.2,2.09,1.37,4.46,2.31,6.9,2.66,7.13,1.05,12.27-2.37,16.41-6.04l7.49,7.43c.78.78,1.64,1.47,2.54,2.06,2.95,2.47,6.56,3.96,10.47,4.22,4.14.27,7.6-.79,10.49-2.44,2.48,2.96,4.36,5.22,5,6.03,2.33,3.2,5.74,5.47,9.63,6.38,2.26.52,4.56.55,6.78.15,1.57,3.08,2.5,4.84,3.03,5.74,1.74,3.03,4.48,5.46,7.66,6.91,2,3.86,5.52,6.9,9.97,8.24.09.03.17.05.26.07,1.16,4.34,2.51,8.24,4.07,10.95,1.08,1.87,2.53,3.51,4.22,4.82.08,4.12,1.71,7.94,4.4,10.84-.24,5.1,1.89,10.06,5.82,13.39-1.17,5.28-1.47,10.9,1.74,16.5,1.05,1.83,2.43,3.41,4.05,4.7-1.79,6.4-2.93,12.95.82,19.45.68,1.19,1.51,2.28,2.45,3.25l-1.5,7.02c-.72,3.34-.37,6.74.88,9.77-.66,2.48-.73,5.05-.24,7.52-.06.38-.1.76-.13,1.14-.69,3.09-.32,6.51,1.63,10.35-2.32,5.51-3.03,8.8-2.51,11.77-.39,1.22-.64,2.48-.74,3.75-.48,1.58-.65,3.11-.6,4.58-1.38,3.41-1.56,7.17-.58,10.65-7.54,8.09-15,17.35-15.04,27.3-1.35,1.3-2.71,2.69-4.09,4.15-5.89,5.12-9.99,11.88-5.75,20.79-1.02,1.22-1.87,2.59-2.51,4.1-1.03,2.41-2.2,4.86-3.45,7.26-5.97-4.29-11.82-4.38-15.48-3.78-8.29,1.35-13.68,7.15-17.17,13.7-.71.29-1.42.63-2.1,1.03-7.91,4.56-10.61,14.67-6.05,22.58,9.2,15.94,20.88,18.74,27.94,18.74.57,0,1.12-.02,1.63-.05,8.42-.52,15.85-4.89,22.19-10.91,4.89-1.76,11.17-5.63,19.88-13.47,2.46-2.21,4.1-4.99,4.9-7.96,21.16-17.42,32.88-28.16,38.13-36.31.34.96.76,1.91,1.28,2.82,4.01,6.96,12.32,9.88,19.64,7.39,4.73.83,9.82-.42,13.73-3.84l1.63-1.42.09.15c2.16,3.86,5.77,6.69,10.04,7.87,2.14.59,4.36.73,6.51.46,1.61,1.62,3.55,2.91,5.67,3.77.98.53,2.01.96,3.07,1.29,1.43.9,3.01,1.59,4.68,2.03.36.1.72.18,1.07.26,2.26,2.61,5.3,4.47,8.7,5.29,1.53.36,2.92.54,4.34.48,1.27,2.78,2.56,5.38,3.67,7.3,1.03,1.79,2.37,3.34,3.94,4.61.94,1.53,2.16,2.93,3.58,4.11.27.6.57,1.19.91,1.78.93,1.61,2.12,3.04,3.5,4.22.35,1.54,1.01,2.88,2.01,4.56.41.69.86,1.35,1.35,1.96.41,1.43,1,2.88,1.84,4.34.59,1.01,1.27,1.95,2.02,2.79.06,2.41.67,5,2.24,7.71,1.06,1.84,2.36,3.46,3.82,4.81-.28,2.2-.56,4.41-.83,6.51-.48,3.62.26,7.29,2.09,10.45.43.75.93,1.46,1.47,2.13-2.63,7.25-4.19,12.05-3.73,16.5-9.49,14.21-11.24,23.75-10.61,30.01-4.36,2.87-6.95,7.51-7.37,12.41-.96.05-1.94.17-2.93.38-9.38,1.99-13.03,9.23-14.68,16.29l-13.91,3.16c-7.4-.85-13.47,2.79-19.98,8.23-1.4-.82-2.93-1.43-4.51-1.81-5.67-1.35-9.49-.58-20.51,6.08-1.29-1.42-2.73-3-4.36-4.76h-.01c-2.54-2.72-6.04-4.74-9.59-5.42-1.93-.36-3.76-.4-5.5-.2-3.72-3.91-8.71-6.13-14.05-6.13-.53,0-.97.02-1.45.05-.33,0-.68-.01-1,0-1.83-2.57-4.39-4.59-7.4-5.78-1.77-.7-3.61-1.07-5.46-1.14-.41-.94-.83-1.8-1.3-2.61-2.21-3.79-5.93-6.61-10.14-7.76-.61-2.37-1.32-4.27-2.37-6.08-1.15-1.99-2.73-3.72-4.58-5.1-.51-3.2-1.47-6.26-3.02-8.94-.81-1.4-1.87-2.69-3.08-3.82.08-.25.16-.48.25-.72,1.61-4.57,1.11-9.5-1.15-13.56-.1-3.17-.96-6.16-2.58-8.96-3.83-6.64-10.38-10.43-17.61-9.97-11.18.63-17.04,10.33-19.52,16.05-1.89,4.35-1.7,8.94.09,12.86-.95,4.79.22,9.91,3.54,13.87.29.35.59.67.9.99-.51,8.52,1.71,12.37,2.81,14.27,1.35,2.35,3.25,4.29,5.48,5.7,0,2.88.75,5.72,2.21,8.25,2.27,3.94,5.67,6.85,9.58,8.36.61,2.28,1.31,4.13,2.33,5.89,2.71,4.69,7.18,7.82,12.39,8.7.41,1.04.82,1.9,1.3,2.74,2.25,3.94,6.05,6.82,10.46,7.9.91.22,1.78.37,2.63.46,2.34,3.89,5.91,6.68,10.09,7.98,2.41,1.31,5.15,2.03,7.98,2.03,2.42,2.69,5.7,4.56,9.3,5.24,5.47,1.04,9.56-.6,13.06-2.87,1.35,1.52,2.39,2.72,2.89,3.36,2.31,3.39,5.79,5.81,9.81,6.78,3.01.72,6.13.58,9.02-.37,2.48,1.94,5.42,3.24,8.61,3.74,1.09.17,2.15.26,3.2.26,8.64,0,15.97-5.66,23.94-12.68,5.91,5.18,14.77,5.51,21.08.56l2.95-2.31c1.53-.36,3.03-.95,4.46-1.77.99-.57,1.89-1.22,2.72-1.95,1.63.12,3.35,0,5.2-.38,9.85-2.09,13.47-9.95,15.06-17.41l3.32-2.6c5.5-4.31,7.58-11.5,5.56-17.94,1.01-.33,2-.76,2.96-1.29,1.82-1.01,3.54-2.01,5.16-2.98l16.9-9.76c4.24-2.45,6.98-6.47,7.91-10.91,2.23-3.29,2.88-5.64,3.25-6.97,1.44-5.22.79-10.59-1.84-15.14-.83-1.43-1.84-2.71-3.02-3.8,1.57-1.93,3.18-3.82,4.8-5.61,5.46-6.03,5.72-15.15.61-21.48-.2-.24-.4-.48-.6-.7,2.86-9.05,3.46-15.04-.06-21.15-1.15-1.99-2.56-3.71-4.17-5.13,1.04-10.62.3-12.41-1.82-16.08-.61-1.06-1.3-2.05-2.06-2.94-.26-2.51-.99-5.01-2.39-7.44-.47-.81-1-1.57-1.57-2.27-.36-1.34-.93-2.72-1.74-4.12-.96-1.67-2.19-3.14-3.63-4.36-.38-1.52-.96-2.98-1.76-4.36-.99-1.71-2.23-3.2-3.67-4.45-.95-2.26-2.43-4.34-4.39-6.03-.02-.04-.05-.09-.08-.14-3.05-5.29-8.34-8.73-14.21-9.29-.73-1.77-1.42-3.46-1.99-4.91-1.83-4.61-5.62-8.15-10.34-9.66-.08-.02-.16-.05-.23-.07-1.67-2.26-3.89-4.04-6.44-5.2-2.73-2.52-6.19-4.13-9.98-4.56-.42-.05-.84-.08-1.25-.1-2.16-2.55-5.06-4.4-8.33-5.28-3.59-.97-7.4-.69-10.8.77-2.87-4.84-7.72-8.05-13.33-8.82-1.05-.15-2.51-.33-4.41-.18-3.4-.38-6.9.3-10.04,2.12l-21.98,12.69c-2.04,1.18-3.73,2.73-5.04,4.51-.42-1.07-.95-2.14-1.59-3.25-1.36-2.34-3.21-4.22-5.34-5.59.59-3.95-.14-8.19-2.77-12.75-.01-.02-.03-.05-.04-.07,6.38-7.57,11.18-15.76,8.84-24.66,1.09-2.63,1.5-5.58.75-8.86,1.24-3.99.86-7.97-1.69-12.45.08-.16.16-.31.23-.46,1.45-2.9,1.99-6.12,1.63-9.24,0-1.26-.16-2.52-.46-3.77.28-2.82-.16-5.71-1.32-8.35,1.27-5.53-.36-11.45-4.56-15.55l1.38-6.45c1.17-5.46-.49-11.07-4.3-14.98,1.2-6.78,1.18-14.1-2.65-20.74-.77-1.33-1.7-2.52-2.75-3.55.67-5.54.26-11.48-2.98-17.1-.67-1.16-1.47-2.22-2.36-3.15.08-3.03-.68-6.04-2.21-8.7-1.17-2.03-2.61-3.77-4.27-5.21-.23-5.74-3.39-11.04-8.5-13.84-1.35-.74-2.77-1.27-4.21-1.62-.31-1.71-.61-3.45-.86-5.11-.31-2.03-1-3.99-2.03-5.77-1.87-3.24-4.39-5.79-7.33-7.51-.08-.14-.15-.27-.23-.4-2.37-4.11-6.39-7-11.04-7.94-1.48-.3-2.97-.38-4.46-.29-.51-1.01-1.04-2.07-1.6-3.19-.93-1.84-1.54-3.04-1.71-3.32-2.3-3.95-6.2-6.81-10.66-7.83-3.62-.83-6.78-.48-10.17.82-1.89-2.25-4.15-4.92-6.84-8.1-1.48-1.97-3.31-3.59-5.38-4.79-2.88-2-6.26-3.19-9.84-3.37-3.9-.21-7.77.74-11.55,2.84l-4.25-4.21c-2.9-3.5-6.96-5.8-11.51-6.46-2.48-.37-4.76-.23-6.92.26-1.03-.53-2.12-.95-3.25-1.26-4.19-1.14-8.64-.58-12.42,1.54-2.21-1.99-4.94-3.43-7.8-4.06-5.21-1.14-9.71-1.26-26.05,9.25-3.32-3.59-7.72-5.9-12.59-6.48-5.67-.69-10.86.83-16.03,3.93-2.01-.77-4.15-1.26-6.37-1.45-12.91-1.15-27.4,9.01-39.13,20.07-29.95,12.44-60.6,29.63-68.99,50.06-3.42,8.33-3.42,17.11-.09,25.15-11.83,7.97-20.29,16.33-19.01,26.55-4.41,4.56-7.1,10.01-5,16.69-4.81,4.27-9.06,10.46-6.21,18.47-4.8,5.93-8.41,12.96-7.08,20.67-1.32,3.8-.93,7.36.24,10.45-3.02,6.99-3.83,13.29-2.44,18.84.06,3.15,1,6.06,2.29,8.26-2.21,4.82-2,10.49.71,15.18.96,1.66,2.16,3.13,3.55,4.36-2.43,14.39-1.77,16.84,1.72,20.53-.13,5.35,1.27,8.54,2.31,10.43.59,2.32,1.7,4.54,3.32,6.48.23,2.33.94,4.61,2.14,6.68.57,1,1.27,1.94,2.06,2.8-.09-.07-.17-.14-.26-.22-1.54-1.65-3.35-2.99-5.33-3.98-2.7-1.67-5.79-2.67-9.09-2.89-5.71-.4-11.47,1.62-17.31,6l-5.96-4.68c-2.9-3.04-6.71-5.06-10.94-5.71-4.11-.62-7.94.06-11.5,1.56-4.65-1.88-10.09-1.66-14.75,1.04l-4.94,2.85c-2.27-2.04-5.07-3.54-7.97-4.18-5.42-1.21-9.9-2.2-34.48,13.73-3.35-3.47-7.72-5.68-12.53-6.23-7.05-.85-13.32,1.8-19.56,6.49-2.26-.92-4.67-1.5-7.18-1.7-12.75-.98-26.06,8.25-37.56,19.52-26.35,11.69-51.99,27.24-59.44,45.48-3.36,8.23-3.33,16.89,0,24.81-10.27,7.5-18.3,15.57-17.51,25.28-4.93,4.75-8.19,10.47-6.12,17.59-5.48,4.19-11.08,10.56-8.85,19.07-.64.64-1.25,1.3-1.86,1.97-.2-.43-.41-.85-.65-1.27-1.15-2-2.74-3.75-4.61-5.16-.23-2.39-.97-4.73-2.19-6.85-2.21-3.82-5.58-6.59-9.52-7.94-.66-3.18-1.15-5.51-1.15-5.51-1.05-5.08-4.38-9.31-8.91-11.6-.63-2.23-1.36-3.49-1.91-4.43-.7-1.23-1.57-2.36-2.54-3.36-2.4-3.24-5.88-5.51-9.82-6.41-.35-1.91-1.03-3.75-1.99-5.43-1.46-2.52-3.37-4.61-5.61-6.19-2.85-3.41-6.85-5.62-11.36-6.23-.56-1.37-1.17-2.68-1.88-3.92-2.47-4.28-6.54-7.07-11.01-8.06-2.59-4.43-6.39-7.52-10.81-8.91-2.85-2.69-6.59-4.34-10.61-4.58-1-.05-1.99-.04-2.95.09-.35-.67-.68-1.29-1.01-1.86-2.41-4.19-6.49-7.09-11.16-8.07-2.27-2.04-5.08-3.55-7.99-4.23-2.78-2.22-6.18-3.61-9.8-3.93-7.53-.67-14.84,3.25-21.79,11.6-5.95,7.14-5.01,17.73,2.08,23.72.09.16.17.31.26.47,2.67,4.63,7.08,7.77,12.22,8.76,2.88,2.41,6.45,3.93,10.27,4.27.85.08,2.17.21,3.95,0,.07.13.14.25.19.35,2.51,4.34,6.52,7.45,11.16,8.79,2.53,2.56,5.72,4.29,9.2,4.97,2.26,3.28,5.63,5.67,9.5,6.72,1.15.31,2.33.49,3.5.56.58,1.38,1.21,2.71,1.93,3.97,1.36,2.35,3.25,4.3,5.47,5.73,2.38,2.93,5.68,4.98,9.35,5.83.7,1.93,1.47,3.71,2.34,5.19.79,1.37,1.81,2.64,2.99,3.76,1.59,2,3.62,3.62,5.93,4.72.38,1.46.95,2.86,1.72,4.17,2.22,3.84,5.68,6.64,9.78,7.99,1.12,4.89,2.01,8.11,2.96,10.36h-.03c.04.08.08.15.11.21,1.08,2.5,2.24,3.76,3.89,4.82.1.09.19.18.29.27.67,3.56,1.82,5.56,2.48,6.7.16.28.33.55.5.82.68,1.79,1.68,3.48,2.99,5,.11.12.21.25.32.37.31,2.11,1.01,4.17,2.11,6.05,1.19,2.06,2.87,3.87,4.83,5.29l-.13,3.27c-.13,3.19.65,6.35,2.25,9.12.5.86,1.06,1.68,1.68,2.44-.07,4.15.57,8.19,2.29,11.81.19,2.46.93,4.89,2.21,7.11.2.35.41.68.62,1.02-.49,2.48-.41,4.99.18,7.35.22,2.3.92,4.58,2.11,6.7-.94,3.9-.46,8.03,1.39,11.64-1.45,4.47-1.65,9.71,1.52,15.21.46.79.95,1.53,1.5,2.23-3.63,8.83-5.75,15.83-2.48,22.91-2.98,6.18-4.62,11.69-3.79,17.02-5.19,8.72-8.41,18.4-6.1,27.54-2.08,2.76-3.24,6.07-3.38,9.44-3.48,4.59-4.39,10.66-2.39,16.06-11.14,16.09-10.82,19.45-6.38,27.09.33.56.67,1.1,1.03,1.62,1.05,2.22,2.61,4.23,4.61,5.86,3.1,2.52,6.87,3.77,10.64,3.77s7.83-1.36,10.98-4.06l3.24-2.77c1.95-.32,3.87-1,5.67-2.04,4.21-2.43,6.98-6.41,8.01-10.8,2.69-4.46,3.2-10.01,1.24-14.95,2.17-2.97,4.38-5.97,6.49-8.82,2.29-3.08,3.4-6.77,3.32-10.45,2.57-3.81,3.42-7.01,2.73-10.5,1.86-3.62,2.74-7.22,2.37-10.86.66,2.19,1.76,4.21,3.22,5.95,1.38,2.22,3.24,4.06,5.4,5.41.38,1.16.88,2.29,1.5,3.35,1.63,2.78,4.02,5.02,6.83,6.47.39,1.2.92,2.41,1.61,3.62,2.38,4.12,6.01,7.06,10.22,8.41.57,2.19,1.22,3.91,2.21,5.63,2.24,3.89,5.93,6.72,10.26,7.88,1.44.39,2.91.58,4.38.58Z"/><path class="cls-1" d="M2979.92,502.86c-.28-3.08-1.23-6.08-2.83-8.84-2.95-5.1-8.41-8.22-14.31-8.23h-.02c-5.67,0-10.96,2.94-13.98,7.72-2.62.09-5.25.81-7.67,2.21-4.29,2.48-7.05,6.6-7.95,11.11-2.3,2.1-4.73,4.48-7.31,7.18-4.4,4.61-5.67,11.23-3.6,17l-15.53,8.97c-9.06.24-20.72,4.57-35.05,9.91-8.41,3.13-21.63,8.05-28.47,9.48-2.72-1.85-5.87-2.95-9.23-3.16-3.89-.23-7.15.62-9.97,2.09-1.81-1.34-3.89-2.32-6.09-2.84-2.38-.57-4.53-.62-6.59-.28-3.44-3.83-8.08-6.1-13.22-6.36-.34-.02-.68-.02-1.02-.02-.17,0-.33.01-.47,0-1.75-2.03-3.99-3.63-6.54-4.63-.01-.01-.04-.03-.05-.05-2.63-2.45-5.89-3.91-9.28-4.32-.3-.75-.65-1.47-1.05-2.16-2.64-4.59-7.16-7.72-12.27-8.55l-.39-1.25c-1.25-4.01-3.97-7.34-7.53-9.38-.89-1.91-2.14-3.64-3.72-5.1-1.4-2.03-3.29-3.76-5.44-5.04-.36-1.68-.98-3.3-1.85-4.81-1.69-2.92-4.06-5.2-6.85-6.7-.15-1.84-.32-3.86-.51-6.08-.26-3.2-1.45-6.18-3.31-8.63.21-2.81,0-5.09-.46-7.01-.15-2.27-.87-4.69-2.33-7.27-.53-.92-1.14-1.78-1.82-2.57.11-.2.22-.4.33-.59,1.59-2.78,2.31-5.89,2.16-8.98,1.07-3.98.6-7.99-1.42-12.02,2.52-4.24,4.53-9.06,4.42-14.2,3.32-4.81,5.65-10.38,5.2-16.43,2.97-3.76,5.08-7.91,5.32-12.43,13.82-9.36,28.26-20.25,30.53-32.99,12.59-1.05,22.54-12.3,33.01-24.14,1.5-1.69,3.31-3.74,5.07-5.65,5.32,7.29,15.51,8.97,22.92,3.72.88-.63,1.79-1.26,2.7-1.89,1.96,1.85,4.37,3.2,7.03,3.92,2.56.69,5.23.75,7.77.2,2.29,1.65,4.97,2.75,7.75,3.11,1.27.16,2.48.19,3.61.09,2.36,2.64,5.58,4.52,9.23,5.24,1.05.21,2.11.31,3.15.31,4.44,0,8.72-1.81,11.83-4.97,1.49-.36,2.95-.94,4.35-1.75,7.91-4.57,10.61-14.68,6.05-22.58-2.38-4.11-5.99-7.08-10.19-8.52-2.9-4.79-7.69-7.93-13.18-8.64-.32-.04-.63-.07-.95-.1-4.02-3.14-9.33-4.26-14.34-2.98-2.29-2.21-5.19-3.81-8.26-4.47-5.46-1.19-10.25-.7-23.94,8.08-3.33-3.56-7.72-5.78-12.56-6.27-5.11-.48-9.72.85-14.04,3.45-2.25-.92-4.67-1.47-7.18-1.62-12.23-.77-24.55,8.69-34.33,19.44-24.35,10.76-48.58,25.3-55.53,42.44-3.2,7.91-3.09,16.24.26,23.8-8.31,6.88-14,14.36-12.09,23.26-2.67,4.13-3.92,9.02-1.57,14.72-2.95,4.37-4.76,10.2-1.13,17.01-2.6,5.24-4.14,11.24-2.29,17.46-.46,4.18.91,7.72,2.31,10.14.14.24.28.47.43.7-1.09,5.82-.8,10.92.89,15.26.44,2.23,1.17,3.79,1.38,4.21.69,1.38,1.57,2.64,2.58,3.76-.5,3.61.2,7.32,2.06,10.53,1.72,2.98,4.2,5.31,7.15,6.82l.48,5.8c.2,2.43.93,4.8,2.16,6.92,1.52,2.64,3.52,4.82,5.84,6.44.68,2.35,1.48,3.74,1.97,4.59.86,1.5,1.88,2.85,3.02,4.03.36.51.74.99,1.16,1.46,1.12,1.27,2.41,2.34,3.81,3.19.24.54.51,1.07.81,1.59,2.41,4.15,6.85,7.27,11.58,8.18l.58,1.85c.18.56.38,1.11.62,1.66-.67-.03-1.34-.04-2,.02-2.14-1.41-4.56-2.38-6.98-2.72-1.26-.18-2.43-.22-3.62-.16-2.04-1.1-4.31-1.8-6.71-2.05-2.8-.31-11.38-1.17-23.32,12.18-6.07,6.79-5.49,17.2,1.29,23.29.09.09.19.17.28.25.11.2.21.39.33.59,2.78,4.81,7.5,8.02,12.95,8.8,1.28.19,2.51.22,3.69.16,2.26,1.36,4.82,2.24,7.55,2.54,1.94.21,5.77.64,11.48-2.06,3.23,4.66,8.21,7.54,13.9,7.98.41.03.81.05,1.22.05,2.69,1.84,5.84,2.9,9.18,3.02.58.01,1.12.01,1.68-.01,3.9,4.11,9.65,5.89,15.16,4.82.4.78.8,1.52,1.2,2.21,1.8,3.12,4.55,5.52,7.78,6.91,2.68,2.46,6.15,4.02,9.86,4.32.19.01.37.02.56.04.55,1.24,1.11,2.37,1.67,3.35,1.1,1.89,2.63,3.59,4.43,4.97,1.79,1.78,3.97,3.15,6.39,3.97.32.88.72,1.73,1.19,2.54,2.43,4.19,6.36,7.12,10.99,8.23l1.34,4.91c.37,1.39.93,2.73,1.64,3.97,1.36,2.36,3.1,4.34,5.1,5.89.68,2.83,1.64,4.48,2.2,5.46.3.51.61,1,.93,1.47.65,1.49,1.54,2.9,2.65,4.18.22.25.45.5.68.73.34,1.87,1,3.68,1.96,5.35,1.2,2.05,2.88,3.85,4.86,5.26l-.09,3.18c-.09,3.06.67,6.09,2.2,8.75.45.78.95,1.52,1.49,2.21-.11,3.98.44,7.87,2,11.38.11,2.61.85,5.19,2.2,7.54.08.14.16.28.25.42-.61,2.38-.67,4.82-.23,7.14.07,2.22.6,4.45,1.59,6.54-1.32,3.74-1.25,7.83.19,11.51-2.32,4.89-3.26,10.88.5,17.38,0,.01,0,.02.01.04-5.44,8.83-9.38,15.99-8.29,23.23-4.07,4.73-7.45,9.13-9.73,13.37-6.55,4.95-12,10.78-14.27,17.36-2.1,6.1-1.62,12.45,1.32,18.01-2.11,2.25-4.25,4.49-6.42,6.69-4.88-2.63-9.64-3.22-12.71-3.13-19.28.23-35.27,22.08-43.27,35.47-1,1.07-1.84,2.22-2.54,3.48-11.57-6.96-28.79-1.07-43.19,3.85-1.93.66-4.2,1.43-6.46,2.17-2.39-4.04-6.72-7.1-11.32-8.03-2.22-.44-4.39-.57-6.88-.09-1.35-.63-2.77-1.09-4.19-1.34-2.72-.47-5.5-.45-8.82.58-2.8-3.27-6.63-5.4-10.93-6.01-2-1.3-4.24-2.14-6.56-2.48-1.05-1.17-2.29-2.2-3.67-3.04-3.57-2.19-7.8-2.89-11.77-2.13l-2.11-3.86c-2.13-3.91-5.75-6.8-10.04-8.01-2.12-.59-4.31-.74-6.45-.5-1.4-2.64-2.78-5.17-3.91-7.14-2.66-4.61-7.21-7.45-12.11-8.12-.89-2.44-1.92-4.83-3.19-7.01-1.54-2.67-3.71-4.74-6.21-6.14-.37-1.33-.9-2.61-1.6-3.82-1.42-2.46-3.25-4.51-5.35-6.08-.68-5.37-3.92-10.15-8.8-12.64.1-1.74.24-3.49.41-5.15.36-3.47-.38-6.97-2.12-9.99-.06-.1-.12-.2-.18-.3.36-3.87-.34-7.25-2.27-10.59-.75-1.3-1.67-2.47-2.71-3.5.34-1.17.7-2.41,1.09-3.71,1.76-5.89,3.27-10.97-.36-17.12-.45-.79-.97-1.53-1.54-2.22,1.25-3.61,2.58-7.4,3.87-11.06.46-.84.85-1.74,1.19-2.69,1.69-4.86,1.19-10.19-1.37-14.62-.07-.13-.15-.26-.23-.38l6.06-12.9c1.43-3.05,1.88-6.43,1.35-9.67,2.8-4.23,4.67-9.91,1.2-16.6,1.45-4.4,1.02-9.3-1.38-13.45-2.38-4.13-6.65-7.17-11.33-8.09-7.39-1.47-13.55,1.86-22.22,8.54-5.03,3.88-7.2,10.08-6.19,15.92-2.85,5.26-4.22,9.78-3.67,14.15-2.88,5.62-3.57,11.57.08,17.88.27.48.58.94.9,1.38l-5.15,10.97c-.93,1.98-1.43,4.06-1.54,6.12-.34,3.42.38,6.89,2.14,9.92.56.98,1.19,1.89,1.87,2.73-5.93,17.54-5.57,20.31-2.22,26.1.62,1.06,1.35,2.04,2.16,2.93-2.09,9.47-1.99,15.36,1.1,20.7.19.34.4.67.62.99-.51,5.89,2.2,11.74,7.23,15.12.56,10.32,2.85,14.29,3.82,15.96,1.3,2.25,3.13,4.16,5.28,5.58.52,5.25,3.55,9.84,7.99,12.48,1.07,4.31,3.85,8.07,7.8,10.34,1.77,1.02,3.69,1.68,5.65,1.99.85,2.8,1.72,5.21,2.98,7.4,3.24,5.61,9.23,8.57,15.33,8.24,0,0,0,.01,0,.02,1.77,3.41,3.27,6.27,4,7.53,3.46,5.98,10.1,8.97,16.52,8.11l2.26,4.15c2.13,3.91,5.74,6.8,10.04,8.01.41.11.83.21,1.24.3,1.12,1.34,2.48,2.51,4.02,3.45,1,.62,2.06,1.12,3.15,1.5,1.1.9,2.3,1.65,3.56,2.24,2.21,1.42,4.71,2.37,7.23,2.67,1.39.16,2.71.17,3.94.04,2.49,3.31,6.17,5.59,10.31,6.33.74.13,1.49.21,2.23.24,2.09,1.31,4.42,2.11,6.81,2.39.46.15.93.29,1.41.4,3.79.9,7.77.43,11.21-1.3,3.01,1.41,6.37,1.99,9.94,1.99,8.6,0,18.42-3.36,27.59-6.49,4.53-1.55,11.38-3.89,15.8-4.87,4.41,4.47,10.14,7.24,16.69,7.96,19.96,2.25,47.31-18.05,68.12-37.24,14.41-7.33,23.95-14.64,27.27-24.52,1.33-3.96,1.54-8.06.67-11.97,5.9-3.16,13.46-8.84,22.88-18.95,2.98-3.2,4.45-7.27,4.44-11.32.24-.27.49-.54.73-.83,4.49-5.1,5.35-12.36,2.38-18.29,7.32-8.33,11.45-15.31,6.02-24.68-.15-.26-.31-.52-.47-.77,4.86-8.79,7.53-16.57,4.46-24.25,1.67-5.01,1.87-10.74-1.42-16.72.71-2.58.78-5.29.21-7.89-.16-2.47-.88-4.94-2.18-7.2-.19-.32-.38-.64-.59-.95.7-3.44.27-6.93-1.1-10-.26-3.67-1.74-7.26-4.4-10.11-.23-.25-.46-.48-.7-.7.79-3.91.15-8.02-1.88-11.54-1.3-2.26-3.06-4.17-5.11-5.62l.08-2.73c.14-4.58-1.64-8.92-4.74-12.07-.43-2.4-1.4-4.67-2.83-6.66-.25-.58-.53-1.14-.85-1.7-1.26-2.19-3.07-4.09-5.19-5.55-.3-2.05-.98-4.04-2.04-5.86-2.39-4.14-6.17-7.02-10.56-8.17-.43-1.6-.9-3.34-1.42-5.23-1.4-5.13-5.17-9.23-10.07-11.09-.52-1.41-1.03-2.29-1.42-2.98-1.04-1.79-2.36-3.31-3.87-4.54-2.46-2.65-5.74-4.43-9.35-5.05,5.09-1.63,8.82-5.34,11.67-8.82,11.91,1.37,28.22-4.71,47.06-11.73,3.38-1.26,7.49-2.79,11.38-4.16,8.02,11.28,17.35,11.79,22.45,10.98,14.22-2.25,20.11-17.6,22.45-27.54,1.46-.84,2.8-1.61,3.94-2.25,14.17-8.07,18.95-10.79,21.02-18.46.87-3.22.73-6.69-.34-9.84,1.63-1.19,3.22-2.44,4.71-3.76,1.49-.36,2.96-.94,4.36-1.75,7.46-4.31,10.29-13.55,6.76-21.23Z"/><path class="cls-1" d="M2139.34,670.59c1.09,2.35,2.7,4.39,4.68,5.98,2.29,2.44,5.31,4.19,8.61,4.91.8.18,1.58.3,2.34.36.38,1.29.9,2.53,1.57,3.69,3.1,5.37,7.97,8.83,13.6,9.73,1.15,1.44,2.54,2.67,4.09,3.64,2.97,2.47,6.65,3.93,10.56,4.08,1.48.06,2.83-.05,4.12-.3,3.43,5.54,7.33,7.77,11.89,7.79.96.41,1.96.74,3,.96,1.22.44,2.51.74,3.83.88,2.44.26,4.85-.02,7.1-.78,2.16,2.01,4.84,3.46,7.72,4.12,1.42.32,2.75.48,4.03.48,5.92,0,10.87-3.39,19.83-9.51,1.66-1.14,3.96-2.71,5.9-3.98,2.57.16,5.08.06,7.35-.03,2.1-.09,6.01-.25,8.48-.04,3.73,4.59,8.79,7.43,14.59,8.1,14.62,1.72,26.46-10.62,39.03-23.96,11.66-6.37,18.3-10.18,22.28-13.26.33-.17.68-.35,1.01-.54,7.9-4.56,10.61-14.67,6.05-22.58-.37-.64-.76-1.26-1.16-1.86l12.29-7.09c7.91-4.56,10.61-14.68,6.05-22.58-.4-.69-.84-1.34-1.32-1.95l11.51-20.14c2.83-4.95,2.85-10.88.36-15.75,4.7-8.82,7.5-19.03,1.79-28.92-.13-.22-.26-.44-.41-.66,2.53-6.95,3.47-14.8-.97-22.5-.19-.32-.38-.63-.58-.93,1.01-4.11.41-8.49-1.74-12.21-.65-1.14-1.4-2.2-2.23-3.16,1.03-6.4-1.79-12.85-7.26-16.44-.99-.65-2.04-1.19-3.12-1.6-.04-1.61-.05-3.23-.03-4.77.04-2.97-.73-5.91-2.21-8.48-.82-1.43-1.79-2.71-2.85-3.86,4.74-.11,9.21-2.41,12.02-6.3,1.66-2.3,3.76-4.79,5.78-6.96l.87,1.82c1.84,3.83,5.2,6.72,9.25,7.97,4.06,1.25,8.46.75,12.14-1.37l26.63-15.38c3.74-.89,7.8-1.62,10.22-1.86.22.09.45.17.68.25,7.1,11.02,15.28,12.89,21.02,12.44,13.94-1.09,19.31-15.05,22.52-23.4,1.99-2.14,3.3-4.79,3.82-7.59l12.74-10.3c6.2-5.01,7.5-13.95,2.99-20.51-4.51-6.57-13.33-8.58-20.22-4.58l-40.03,23.11c-6.43-.46-14.34,1-23.39,3.37-1.32.35-2.58.86-3.77,1.55l-14.39,8.31c-3.74-5.73-9.59-9.17-16.22-9.51-7.35-.38-14.39,3.25-20.67,8.47-2.59-2.11-5.75-3.4-9.18-3.67-6.26-.51-11,2.35-14.71,5.87h0c-2.86-4.61-7.47-7.56-12.74-8.14-.83-.09-1.64-.11-2.39-.1-2.1-1.05-4.41-1.64-6.82-1.7-.36,0-.72,0-1.05,0-2.16-1.42-4.68-2.29-7.34-2.47-2.01-.12-4.02.13-5.89.75-1-1.83-1.68-3.07-1.68-3.08-2.5-4.58-7.19-7.53-12.39-7.89-.11,0-.21-.01-.33-.02-.41-1.2-.76-1.96-1.31-2.9-2.02-3.51-5.35-6.08-9.27-7.13-.8-.22-1.62-.37-2.45-.45-1.27-3.81-2.18-6.06-3.24-7.9-1.48-2.57-3.47-4.64-5.77-6.12-.39-1.11-.9-2.21-1.53-3.32-1.06-1.84-2.51-3.43-4.21-4.69-.34-1.37-.88-2.7-1.59-3.94-.31-.53-.63-1.05-.99-1.54-.04-.09-.09-.17-.14-.26-1-1.73-2.29-3.24-3.79-4.47-.41-2.42-1.41-4.68-2.86-6.6-.74-2.34-2.05-4.53-3.9-6.33-.54-.53-1.11-1.01-1.72-1.45.13-2.88-.57-5.76-2.04-8.29-1.17-2.03-2.74-3.75-4.58-5.07l.07-2.73c.09-3.46-1-6.77-2.97-9.45-.05-1.82-.43-3.62-1.1-5.3-.29-1.79-.9-3.54-1.85-5.18-.34-.6-.73-1.17-1.16-1.72.85-3.71.28-7.66-1.67-11.03-.58-1.01-1.3-1.95-2.11-2.82,1.03-4.66,1.84-8.38,1.84-8.38.63-2.85.41-5.73-.51-8.35,1.5-4.09,1.96-7.37,1.77-10.12.54-3.01,0-6.32-2.15-9.99-.11-.19-.23-.37-.34-.56.69-.84,1.39-1.64,2.07-2.41,1.94-2.13,3.18-4.7,3.69-7.4,2.49-4.25,2.98-8.62,1.44-13.09,4.34-4.46,8.41-9.73,9.51-15.67,5.64-5.48,10.15-12.18,10.07-19.81,4.53-4.37,7.87-9.25,8.29-14.69,16.79-9.89,33.8-20.75,37.88-33.68,11.7-3.57,22.99-15.06,35.61-27.9,3.28-3.34,7.49-7.63,11.16-11.04.18.31.36.61.57.91,4.82,6.91,14.34,8.59,21.26,3.76,2.78-1.95,5.83-4.02,8.81-5.98,1.88,1.89,4.24,3.28,6.87,3.98,3.92,1.05,8.08.51,11.59-1.52l1-.57c1.89,1.24,4.04,2.08,6.24,2.41,7.6,1.12,12.56-2.94,17.22-7.26l8.14,7.4c.78.71,1.62,1.33,2.51,1.85,2.61,2.03,5.74,3.25,9.11,3.5,4.1.28,7.44-.79,10.25-2.47.56.73,1,1.31,1.24,1.64,2.16,3.13,5.42,5.36,9.15,6.21,1.13.26,2.28.39,3.42.39,3.03,0,6.03-.91,8.59-2.64.08-.05,2.48-1.71,4.27-2.78.95-.31,1.88-.73,2.78-1.24,7.32-4.18,9.86-13.51,5.68-20.83-2.11-3.69-5.74-6.38-9.88-7.34-2.58-.59-4.92-.53-7.19.02-.94-1.21-1.99-2.55-3.15-4.05-1.45-2.04-3.3-3.71-5.42-4.91-2.6-1.79-5.66-2.84-8.96-3.04-4.15-.28-8.3.94-12.39,3.52l-4.41-4c-2.66-3.04-6.29-5.05-10.34-5.65-2.77-.41-5.31-.16-7.7.55-.82-.38-1.67-.7-2.54-.94-3.92-1.07-8.1-.51-11.62,1.52l-1.78,1.03c-2.04-1.84-4.56-3.18-7.19-3.77-4.68-1.03-8.55-1.91-28.2,10.77-3.04-3.22-7.04-5.3-11.47-5.86-5.99-.76-11.5,1.14-17.18,4.87-1.82-.68-3.74-1.13-5.73-1.32-11.85-1.08-25.68,7.92-37.28,18.3-29.29,12.06-59.21,28.7-67.37,48.47-3.29,7.98-3.27,16.4-.04,24.1-10.85,7.33-18.61,15.04-17.42,24.44-4.05,4.2-6.53,9.23-4.58,15.39-4.39,3.93-8.29,9.62-5.7,16.99-4.44,5.48-7.8,11.97-6.61,19.09-1.22,3.43-.92,6.64.09,9.45-2.93,6.55-3.79,12.45-2.54,17.67,0,2.89.82,5.57,1.96,7.64-2.28,4.55-2.17,10,.42,14.49.8,1.4,1.79,2.64,2.93,3.71-2.64,13.22-2.21,15.89.79,19.22-.31,5.01.89,8.11,1.88,10.01.48,2.1,1.4,4.12,2.77,5.91.11,2.41.8,4.78,2.04,6.91,1.13,1.96,2.76,3.67,4.65,4.98l-.08,2.78c-.07,2.82.63,5.6,2.04,8.04.97,1.68,2.2,3.14,3.62,4.35.39,3.11,1.25,6.06,2.73,8.64.33.57.7,1.12,1.08,1.63.33.99.76,1.96,1.3,2.88,1.03,1.79,2.29,3.34,3.73,4.63.43,2.58,1.51,5,3.1,7.03,1.04,1.73,2.39,3.2,3.97,4.37.36,1.46.93,2.88,1.69,4.19,1.32,2.22,3.16,4.05,5.34,5.35.34,1.26.85,2.54,1.57,3.83-3.15,1.51-7.06,3.75-12.07,6.98-3.36-3.6-7.8-5.82-12.7-6.22-5.47-.45-10.2,1.24-14.47,4.2-2.38-1.04-4.96-1.67-7.66-1.84-13.21-.76-26.7,10.13-37.13,21.99-12.52,7.83-17.61,15-19.66,19.86-3.17,7.54-2.67,15.58,1.42,22.67,7.13,12.34,16.59,14.53,22.41,14.53.52,0,1.01-.01,1.47-.05,12.17-.78,21.03-10.79,26.85-20.6,8.93-3.35,16.05-11.96,22.99-20.35.32-.39.67-.81,1.02-1.23,5.51,6.28,14.98,7.52,21.95,2.59,1.64-1.16,3.34-2.33,5.02-3.47,4.6,4.45,11.48,5.88,17.53,3.49,2.12,1.42,4.55,2.37,7.05,2.71,5.62.78,9.87-1.16,13.31-3.68l5.43,6.4c.75.88,1.58,1.67,2.48,2.36,3.12,2.98,7.1,4.72,11.48,4.95,2.06.11,4.02-.13,5.76-.61,1.9,2.87,3.42,5.16,3.72,5.63,2.29,4,6.14,6.86,10.64,7.89.89.21,1.79.34,2.7.39,1.73,4.49,2.57,6.3,3.35,7.64,1.27,2.2,3.05,4.08,5.15,5.51,1.29,3.8,3.96,7.06,7.56,9.08.8,6.36,2.16,11.21,4.06,14.48.53.93,1.15,1.8,1.84,2.6-.97,4.31-.15,8.65,2,12.19-1.62,5.17-.59,10.76,2.63,14.98-3.24,6.46-5.68,14.23-1.12,22.14.32.55.67,1.08,1.05,1.59-5.67,8.1-11.27,17.18-5.99,27.23l-6.91,12.1c-.86,1.51-1.47,3.1-1.82,4.74l-7.15,7.81c-2.42,2.65-3.83,5.91-4.22,9.26-15.5,5.13-30.51,20.57-40.66,32.97-6.26-1.2-12.64-.95-17.51-.74-.82.03-1.59.07-2.29.1-.67-.25-1.35-.45-2.04-.61-5.92-1.34-10.61.27-17.01,4.18-2.88-2.59-6.51-4.23-10.51-4.67-1.27-.14-3.32-.36-6.09.21-3.51-.51-7.09.12-10.22,1.82-3.37-5.75-8.93-9.18-15.26-9.42-.42-.02-.85-.02-1.27,0-3.03-3.7-7.61-6.05-12.42-6.21-.21,0-.42-.01-.63-.01-.49-1.05-.98-2.02-1.48-2.88-1.15-1.98-2.68-3.68-4.48-5.02-1.47-1.47-3.2-2.63-5.08-3.45-.11-.22-.23-.43-.36-.65-2.09-3.62-5.25-6.35-8.94-7.87-.61-1.76-1.35-3.43-2.21-4.95-3.15-5.47-9.27-8.44-15.58-8-3.81.26-7.38,1.91-10.12,4.46-1.42.37-2.83.93-4.16,1.7-7.91,4.56-10.62,14.67-6.07,22.58,2.12,3.68,5.07,6.46,8.49,8.15.98,5.02,4.26,9.29,8.86,11.58Z"/><path class="cls-1" d="M1489.74,455.96c1.62,2.82,4.47,4.8,7.67,5.35,1.75.3,3.22.26,4.64-.13-6.28,4.38-9.91,8.43-11.31,13.06-1.12,3.72-.7,7.57,1.2,10.85,1.61,2.79,4.37,4.73,7.55,5.29.64.11,1.28.17,1.92.17,2.53,0,5.01-.88,6.99-2.53,4.12-3.43,8.31-6.78,12.44-9.97,1.48.46,2.8.64,3.84.68,10.12.45,16.64-8.37,22.89-17.3,7.31-3.65,11.5-5.94,14.02-8.38,2.92,1.04,6.26.83,9.13-.84,5.23-3.02,7.01-9.71,3.99-14.94-1.39-2.4-3.39-4.25-5.82-5.47,3.73-3.39,4.74-9.02,2.11-13.56-1.28-2.22-3.63-4.11-6.12-5.08.11-.26.23-.51.33-.77,1.79-4.7,2.77-12.3-2.75-21.86-2.39-4.15-6.25-6.83-10.88-7.55-10.75-1.69-21.48,7.36-37.94,22.29-4.21,3.82-10.17,9.22-13.7,11.72-2.46-.44-5.09-.05-7.42,1.29-5.23,3.02-7.02,9.71-4,14.94.14.25.29.49.45.72-.56.96-1.05,1.97-1.45,3.04-1.59,4.15-2.49,10.81,2.21,18.95Z"/><path class="cls-1" d="M2106.81,788.73c-9.43-.87-14.98,5.68-21.52,13.28-1.27,1.47-3.11,3.61-4.86,5.47-1.74-1.17-3.8-2.45-6.28-3.96-.03-.02-.06-.04-.1-.06,1.46-1.81,2.67-3.86,3.5-6.23,1.11-3.18,1.4-6.46.88-9.67-.05-1.1-.21-2.2-.48-3.27,8.05-11.45,11.3-20.79,10.04-28.63,2.56-4.97,3.53-9.72,2.91-14.24.06-1.77-.16-3.55-.62-5.25,2.79-5.34,2.47-11.84-.93-16.88l2.39-5.25c2.21-4.86,1.94-10.48-.73-15.11-.08-.14-.16-.27-.23-.4l.78-1.79c2.64-6,1.47-12.94-2.84-17.72,2.85-6.75,4.76-14.61.93-22.42.68-3.4.44-7.13-1.62-11.07.81-5.26-.95-10.76-5.04-14.6-.31-.29-.63-.57-.95-.83,1.55-9.61,1.82-12.55-1.05-17.46-.51-.88-1.07-1.69-1.7-2.46.09-4.83-1.1-7.98-2.61-10.58-1.53-2.66-3.79-4.85-6.47-6.31l-.21-5.34c-.11-2.67-.86-5.28-2.2-7.6-.6-1.04-1.28-2-2.03-2.88-.31-.82-.69-1.61-1.13-2.38-.98-1.69-2.29-3.21-3.82-4.5-.34-.97-.79-1.96-1.37-2.95-2.24-3.88-6.02-6.72-10.36-7.81-.23-1-.45-2-.66-2.95-.37-1.64-.98-3.22-1.82-4.67-1.57-2.71-4.03-5.02-6.87-6.55-.23-.53-.5-1.05-.79-1.56-1.5-2.61-3.42-4.77-5.65-6.41-1.81-1.73-3.99-3.08-6.36-3.89-1.58-3.82-4.55-6.96-8.39-8.72-1.63-.74-3.34-1.21-5.07-1.4-.48-1.18-.98-2.23-1.53-3.18-.74-1.28-1.66-2.45-2.7-3.49,21.78-11.59,51.26-30.42,57.43-50.03,1.19-3.77,1.59-7.6,1.21-11.31,1.66-3.71,1.94-7.99.61-11.97l9.48-10.07c4.11-4.37,5.47-10.52,3.79-16.09l5.17-5.95c5.05-5.81,5.39-14.29.96-20.46,3.05-4.26,6.25-8.6,9.28-12.59,1.4-1.85,2.36-3.92,2.89-6.07.84-1.49,1.52-3.05,2-4.66,1.12-3.77,1.17-7.63.18-11.25,2.85-4.61,3.64-7.85,2.84-11.29,1.06-2.95,1.28-6.18.56-9.31,1.56-3.34,2.3-6.48,2.07-9.6,1.96-5.14,2.14-11.01-1.46-17.25-.37-.64-.78-1.25-1.22-1.82,3.32-8.75,4.57-13.15,4.5-16.25.14-1.89-.08-3.87-.75-5.94.66-3.29.48-6.7-1-10.14.9-3.4.69-6.97-.56-10.2.72-3.5.09-6.58-.78-8.85.45-2.77.21-5.77-1.17-8.93.16-1.82.02-3.67-.43-5.47-.03-1.99-.38-3.89-.98-5.66-.16-1.52-.52-2.88-.93-4.01.01-2.77-.68-5.65-2.37-8.6-.27-.47-.56-.91-.87-1.35,1.2-5.34.26-6.95-1.97-10.79-.17-.29-.34-.57-.53-.84.31-3.37-.41-6.13-2.27-9.34-.4-.68-.83-1.32-1.31-1.92.05-4.27-1.02-7.23-2.4-9.69-.36-1.62-.97-3.21-1.84-4.71-.75-1.29-1.65-2.45-2.7-3.47-.14-4.62-1.31-7.28-2.56-9.45-1.25-2.17-2.95-4-4.98-5.39l.02-.73c.16-5.54-2.47-10.76-6.93-13.94-.56-2.94-1.52-5.81-3.03-8.43-1.7-2.94-4.15-5.26-7.06-6.76-.41-2.68-1.23-5.49-2.83-8.25-2.31-4.02-5.89-6.94-10.06-8.36-1.05-4.42-1.64-6.19-2.81-8.21-1.99-3.47-5.18-6.08-8.93-7.38-1.09-4.52-4.04-8.42-8.21-10.67-2.24-1.22-4.7-1.88-7.17-1.98-1.61-3.52-3.18-6.8-4.34-8.8-2.95-5.12-8.45-8.21-14.36-8.21-.41-.01-.86.02-1.29.05-1.4-2.67-2.65-5.07-3.41-6.54-2.08-4.01-5.71-6.99-10.04-8.26-2.46-.72-5.03-.85-7.52-.41-1.54-2.6-2.8-4.74-3.2-5.43-3.32-5.76-8.85-9.27-15.16-9.65-3.22-.2-6,.41-8.41,1.45-1.47-1.46-2.67-2.66-3.41-3.41-2.31-3.34-4.91-5.34-7.45-6.5-2.71-4.49-7.24-7.24-12.09-7.86-1.77-1.42-3.83-2.48-6.07-3.08-1.59-.43-3.22-.61-4.88-.56-2.63-2.68-6.08-4.46-9.91-5.05-.73-.11-1.47-.19-2.26-.22-2.21-1.48-4.71-2.38-7.26-2.68-2.68-2-5.84-3.27-9.26-3.63-5.13-.56-9.62.96-13.44,3.28-3.29-2.71-6.52-5.08-9-6.82-4.26-2.99-9.6-3.75-14.43-2.25-1.67-1.21-3.57-2.12-5.61-2.64-1.48-.38-2.93-.59-4.47-.52-1.68-.82-3.5-1.39-5.4-1.67-4.69-.7-8.76.38-12.42,2.32-5.13-3.83-12.26-4.47-18.17-1.07l-10.31,5.95c-2.93-4.88-7.86-8.18-13.58-9.06-3.6-.56-10.87-1.69-27.54,10.01l-28.85,16.65c-2.6,1.5-4.62,3.61-6.03,6.03-.51-1.29-1.17-2.59-1.95-3.95-2.19-3.79-5.8-6.57-10.04-7.7-4.24-1.14-8.75-.54-12.54,1.65l-59.51,34.35c-7.51,4.33-10.33,13.67-6.68,21.37-22.35,16.26-48.27,34.47-73.04,51.34-5.89,4.01-8.41,11.21-6.7,17.81l-9.34,8.53c-3.1,2.83-4.89,6.59-5.3,10.5-1.9,2.01-3.22,4.42-3.92,6.98-6.15,7.28-9.23,15.97-3.58,25.76.66,1.13,1.44,2.17,2.33,3.1-5.42,2.94-11.15,6.5-13.25,13.83-1.13,3.95-.68,8.72,1.12,12.48l-1.09,1.73c-1.78,1.63-3.33,3.7-4.45,6.38-2.14,5.13-1.76,10.87,1.07,15.77.1.18.21.36.32.54l-5.01,9.73c-2.1,4.08-2.33,8.65-.99,12.72-2.34,3.57-3.2,7.91-2.43,12.08-1.09,2.29-1.77,4.85-1.66,7.63-.04.74-.02,1.49.04,2.24-1.38,4.89-.49,10.31,2.79,14.58.08.1.16.21.24.31-5.17,8.82-9.06,15.92-4.23,24.57-1.04,6.82,2.3,13.82,8.73,17.16,2.43,1.26,5.03,1.86,7.6,1.86,4.51,0,8.9-1.84,12.05-5.2,1.53-.36,3.03-.95,4.47-1.78,6.74-3.9,9.7-11.83,7.59-18.99,2.41-4.68,2.43-10.23.1-14.93,3.56-7.29,5.87-14.49,4.76-21.24.23-.96.38-1.93.45-2.9.2-1.15.27-2.31.23-3.47,1.63-3.52,2.43-7.46,1.57-11.73,3.45-7.46,3.4-14.33-.19-20.56l3.45-6.71c1.12-1.31,2.09-2.87,2.86-4.71,1.84-4.44,1.79-9.34-.11-13.69l5.18-8.25c.63-1,1.14-2.04,1.53-3.11,1.3-1.85,2.34-3.93,3.02-6.29.92-3.2,1-6.5.3-9.66,1.1-1.69,2.21-3.35,2.99-4.49,4.09-6.06,8.01-11.87,7.82-18.26,3.56-2.86,7.23-6.84,8.1-11.91l1.25-1.03c4.15-3.43,6.22-8.5,5.99-13.54l20.18-18.44c2.21-2.02,3.75-4.5,4.6-7.17,9.35-6.59,19.47-13.8,29.51-21.08,46.15-33.45,65.96-49.69,72.35-60.73.35,1.04.8,2.07,1.38,3.06,4.56,7.91,14.67,10.61,22.58,6.05l2.19-1.26c4.14.59,8.51-.37,12.12-3.01l18.07-13.21,1.42,2.29c4.7,7.58,14.57,10.06,22.3,5.59l4.03-2.32c2.08,1.79,4.59,3.08,7.26,3.69,1.15.26,2.24.44,3.37.49.21.04.41.07.61.1,2.33.34,4.46.23,6.42-.2,3.37.78,5.61.77,10.16-1.33,1.66,1.15,3.52,2,5.51,2.48,6.13,1.49,10.36,0,20.29-6.01,2.21,1.86,3.92,3.43,4.46,4.16,2.63,4.59,7.33,7.66,12.59,8.24.58.06,1.14.1,1.68.1,1.71.98,3.56,1.67,5.42,2,1.29.23,2.59.38,3.95.29,1.89,1.2,4.04,2.01,6.31,2.36,1.47.23,2.95.25,4.39.08,2.78,2.56,6.33,4.05,10.02,4.32,4.6,3.45,10.79,4.33,16.28,2.04,3.29,3.68,6.91,5.19,10.08,5.68,2.14,2.1,4.77,4.65,8.01,7.79h0c2.89,2.79,6.77,4.59,10.79,4.83,1.69.09,3.27-.04,4.7-.36l2.9,4.9c3.43,5.93,9.95,8.92,16.37,8.13,1.45,2.7,2.8,5.18,3.73,6.8,3.35,5.8,9,9.38,15.31,9.76.75,1.75,1.49,3.49,2.18,5.14,1.82,4.36,5.42,7.74,9.89,9.27.79,2.34,1.52,3.6,1.91,4.29,2.31,3.99,6.03,6.66,10.17,7.74,1.12,4.77,1.72,6.61,2.93,8.7,1.63,2.83,4.04,5.05,6.88,6.46.53,2.78,1.47,5.67,3.11,8.51,1.37,2.37,3.29,4.32,5.55,5.73.12,5,2.51,9.78,6.64,12.87.15.11.29.21.44.32l-.02.86c-.14,4.78,1.8,9.33,5.21,12.53-.16,2.82.4,5.61,1.6,8.12.49,2.36,1.37,4.26,2.13,5.56.46.79.98,1.53,1.54,2.23-.31,3.34.38,6.74,2.08,9.73.17.3.34.58.53.86-.29,3.71.68,7.43,2.77,10.53-.53,2.96-.26,6,.81,8.81,0,.89.06,1.77.21,2.65-.03,2.1.37,4.07,1.03,5.86.01,1.61.26,3.22.76,4.79-.32,2.9.03,5.71,1.05,8.39-.38,2.28-.33,4.68.36,7.18-.62,3.44-.41,7.12,1.17,10.89-.9,2.95-.95,6.09-.16,9.06-.47,1.73-.65,3.51-.55,5.28-.43,3.45.22,7.06,2.09,10.3.3.51.61,1,.94,1.48-1.27,3.18-2.56,6.44-3.82,9.54-1.22,3.05-1.48,6.3-.88,9.37-2.12,4.1-2.11,7.87-1.32,10.93-1.18,1.86-1.95,3.91-2.32,6.01-2.9,5.44-2.99,10.31-2,14.24-2.11,2.89-3.19,6.32-3.19,9.77-2.57,4.06-3.3,9.14-1.79,13.86-12.69,18.57-15.04,26.39-13.24,32.65l-7.6,8.75c-3.44,3.96-4.67,9.11-3.76,13.9l-9.28,9.87c-10.13,6.96-11.91,12.1-12.78,14.59-1.84,5.31-1.32,11.09,1.45,15.88.08.14.16.27.23.4l-30.52,17.62c-.73.42-1.41.91-2.05,1.42-2.53-2.61-5.92-4.5-9.43-5.12-2.78-.5-5.42-.37-8.26.44-.53-.86-.86-1.38-.86-1.38-3.25-5.21-8.82-7.93-14.66-7.78-3.73-3.65-8.58-5.69-13.85-5.46-11.45.37-18.1,10.47-21.05,16.46-4.02,8.14-.67,17.94,7.45,22.02.16.08.32.16.48.23.79,1.25,1.76,2.4,2.9,3.42,5.22,4.72,12.86,5.6,19.04,2.21.27.46.51.87.71,1.21,2.44,4.23,6.63,7.17,11.44,8.02,1.12.2,2.25.27,3.37.24l-51.51,29.74c-9.73-2.03-20.99,1.57-28.88,4.1-2.27.73-5.3,1.71-7.65,2.32-2.07-1.32-4.41-2.25-6.89-2.7-8.06-1.45-15.38,1.85-24.3,8.3-3-2.01-6.48-3.22-10.22-3.51-6.04-.44-12.15,1.75-17.92,5.39-4.16-.7-8.56.18-12.21,2.71-4.19,2.91-8.71,5.88-12.37,8.16-1.42-1.1-3.03-2.34-4.87-3.74-1.69-1.3-3.19-2.45-4.14-3.19-2.82-2.91-6.54-4.76-10.67-5.22-4.46-.48-8.15.63-11.32,2.48-2.2-2.17-4.98-3.73-8.01-4.44-5.15-1.18-9.16-.37-16.48,3.82l-4.48-4.93c-.34-.45-.72-.87-1.09-1.28.76-.63,1.52-1.25,2.27-1.88,45.95-38.08,55.02-47.61,46.69-62.06-2.19-3.8-5.8-6.57-10.04-7.71-4.24-1.14-8.74-.54-12.54,1.65l-20.28,11.71c-6.05,3.49-9.06,10.23-8.09,16.74-9.95,8.57-22.29,18.81-35.15,29.21-.48-.8-.77-1.28-.77-1.28-2.4-4.17-6.97-7.41-11.7-8.33-2.54-3.55-5.94-6.08-9.8-7.35-1.17-.55-2.39-.97-3.65-1.24-1.72-3.32-4.55-6-8.07-7.54-1.27-.55-2.58-.94-3.91-1.16-.51-1.38-1.07-2.62-1.74-3.77-2.36-4.07-6.48-7.01-11.07-7.99-.65-2.12-1.32-3.81-2.22-5.37-1.99-3.45-5.3-6.15-9.06-7.55-.57-1.6-1.23-3.1-2.01-4.46-2.22-3.86-6.21-6.85-10.54-8.01-.84-4.95-3.88-9.23-8.23-11.66-.06-.11-.12-.21-.18-.3-3.85-6.67-10.53-10.36-17.66-9.93-8.26.52-15.08,6.2-19.21,16.01-3.03,7.18-.51,15.12,5.52,19.5.97,2.42,2.53,4.63,4.6,6.41,1.97,1.68,4.25,2.84,6.65,3.45.77,2.3,1.58,4.19,2.42,5.65,2.06,3.57,5.37,6.21,9.24,7.46.36,1.59.97,3.14,1.79,4.56,2.61,4.52,6.52,7.62,11.1,8.91.58,1.79,1.21,3.28,2.01,4.67,2.53,4.38,6.61,7.41,11.39,8.5.44,1.26.94,2.39,1.59,3.51,2.26,3.89,6.04,6.72,10.42,7.78.19.41.4.81.63,1.2,1.76,3.04,4.25,5.43,7.2,6.99,1.92,1.54,4.16,2.63,6.57,3.2,1.72,2.56,4.14,4.57,6.91,5.85-1.52,3.47-1.82,7.41-.76,11.13l-6.96,6.93c-2.93,2.92-4.56,6.71-4.83,10.58-1.72,2.17-2.83,4.71-3.3,7.34-1.36,1.84-2.51,3.78-3.37,5.79-.93-.81-1.95-1.53-3.06-2.13-1.25-.68-2.58-1.18-3.92-1.51-1.4-5.17-2.21-7.4-3.4-9.46-3.37-5.82-8.96-9.3-15.33-9.55-.66-.03-1.33-.01-1.98.02-1.24-1.9-2.18-3.34-2.42-3.73-.36-.63-.74-1.22-1.12-1.78-1.41-2.7-3.46-6.62-4.29-8.06-1.89-3.27-4.73-5.65-7.97-6.99-2.31-2.77-5.4-4.63-8.76-5.45-2.3-3.21-5.58-5.51-9.37-6.59-.41-.4-.84-.79-1.3-1.15-1.54-1.24-3.26-2.15-5.05-2.75-3.02-2.92-6.9-4.72-11.16-5.11-2.95-.27-5.6.14-7.98.95-2.47-2.73-4.63-5-5.77-6.18-3.55-3.67-8.37-5.41-13.27-4.98-1.9-1.62-4.16-2.8-6.62-3.43-.57-.15-1.14-.26-1.72-.34-2.08-1.26-4.43-2.1-6.91-2.44-3.1-.43-5.83-.07-8.34.75-1.82-1.51-3.94-2.62-6.26-3.24-4.23-1.14-8.76-.54-12.55,1.65l-5.4,3.12c-2.9-4.83-7.77-8.07-13.41-8.92-2.04-.31-5.36-.8-10.92,1.18-1.73.35-3.43.97-5.04,1.9l-32.39,18.7c-2.36,1.36-4.24,3.22-5.62,5.37-.45-1.19-1.03-2.38-1.74-3.61-2.19-3.8-5.8-6.57-10.04-7.7-4.24-1.14-8.75-.54-12.54,1.65l-36.73,21.2c-6.91,3.99-9.85,12.2-7.44,19.48-18.17,14.51-40.32,31.49-60.82,46.68-5.7,4.23-7.97,11.49-6,18.04l-5.98,6.18c-2.9,2.98-4.46,6.81-4.64,10.71-1.63,2.25-2.63,4.83-2.98,7.5-4.46,6.51-6.3,14.12-1.45,22.53.68,1.19,1.51,2.28,2.46,3.25-13.67,9.68-10.9,19.68-7.82,25,.06.1.11.2.18.31l-.31.61c-1.04,1.27-1.96,2.75-2.68,4.5-2.09,5.05-1.73,10.68,1,15.47-.16,5.62,2.57,11.16,7.64,14.41,2.74,1.75,5.82,2.59,8.86,2.59,4.4,0,8.73-1.75,11.92-5.02,1.5-.36,2.98-.94,4.38-1.75,6.42-3.7,9.42-11.06,7.88-17.93,1.94-4.77,1.68-10.07-.75-14.69l3.25-6.43c.75-1.49,1.26-3.06,1.53-4.65,2.38-4.46,2.56-8.69,1.64-12.43.83-1.99,1.9-4.3,2.61-5.83,2.52-5.45,4.8-10.39,4.43-15.58,2.61-2.68,5.02-6.18,5.55-10.4,3.66-3.66,5.3-8.7,4.73-13.58l13.03-13.45c2.16-2.22,3.57-4.9,4.23-7.72,6.56-5.03,13.58-10.47,20.53-15.94,31.88-25.08,48.29-38.76,54.33-49.03.34.98.77,1.95,1.31,2.88,4.56,7.91,14.67,10.6,22.58,6.05l.35-.2c4.27.61,8.76-.43,12.44-3.25l11.63-8.94,1.22,1.95c4.71,7.56,14.57,10.02,22.29,5.56l.32-.19c2.09,1.8,4.63,3.1,7.32,3.69.38.09.76.16,1.13.22.82.25,1.66.44,2.49.55,1.19.16,2.32.2,3.41.15.18.05.36.1.54.15,3,.79,5.15,1,7.93.2,1.79,1.34,3.83,2.32,6.03,2.85,4.93,1.21,8.63.43,14.26-2.61,1.79,2.12,3.13,3.84,3.63,4.71,2.29,3.99,6.14,6.83,10.55,7.88,2.05,1.57,4.45,2.71,6.91,3.25,2.29,2.08,5.13,3.49,8.23,4.04,1.95,2.46,4.5,4.24,7.32,5.25,3.71,4.12,9.28,6.05,14.61,5.29.11.14.22.27.33.4,1.69,2.62,4.61,7.08,9.65,14.79,2.41,3.67,6.29,6.32,10.56,7.28,1.37,5.36,1.85,6.88,3.04,8.96,1.79,3.13,4.53,5.56,7.81,6.97.98,4.95,2.33,9.49,4.19,12.71,1.84,3.18,4.36,5.68,7.29,7.36-.06,1.78-.16,3.56-.28,5.26-.33,4.26,1.01,8.41,3.61,11.63-.34,5.27.54,8.68,1.48,10.92-.69,3.67-.11,7.39,1.56,10.6-1.14,3.63-1,7.6.48,11.21-.32,2.02-.26,4.19.35,6.48-1.27,5.18-1.11,11,2.32,16.95-4.34,4.86-5.36,11.77-2.81,17.6l-3.98,6.87c-2.46,4.25-2.84,9.24-1.32,13.66-.94.92-1.89,1.83-2.82,2.7-.24.22-.48.46-.7.69-3.53,3.36-5.92,6.89-7.15,10.57-1.32,3.95-1.42,8.03-.31,11.85-1.6,1.21-3.22,2.39-4.83,3.51-4.64,3.25-7.13,8.49-7.05,13.81-3.05,2.56-6.14,5.11-9.1,7.53-2.51,2.05-4.26,4.71-5.21,7.59-1.26.89-2.51,1.77-3.75,2.64-7,4.92-9.08,14.37-4.81,21.78,2.88,5,7.82,8.44,13.53,9.42,1.18.21,2.36.31,3.55.31,11.01,0,22.05-8.6,36.02-20.45,1.25-1.07,2.34-2.01,3.19-2.7.23-.12.45-.24.67-.37,4.21-2.44,6.93-6.45,7.87-10.86,3.13-3.27,5.53-7.3,5.18-12.2,5.97-6.2,8.59-10.77,8.58-15.32.83-1.07,1.58-2.12,2.26-3.16,1.78,2.48,4.12,4.46,6.8,5.75.55,3.72,1.61,7.6,3.77,11.34.8,1.4,1.8,2.64,2.94,3.71.97,2.24,2.45,4.29,4.38,5.95,1.41,1.21,2.98,2.15,4.64,2.82.83,5.36,4.2,9.84,8.82,12.2.31.83.7,1.62,1.14,2.39,3.25,5.62,8.67,9.14,14.76,9.66,3.04,6.48,3.39,7.09,3.67,7.58,3.05,5.28,8.13,8.6,13.99,9.17.43.87.85,1.69,1.28,2.43,1.77,3.06,4.5,5.49,7.71,6.92,3.07,3.28,7.25,5.35,11.8,5.72,1.59.12,3.2.05,4.81-.24,1.01,1.59,1.78,2.79,2.01,3.18,2.76,4.78,7.75,7.85,13.26,8.2.19.01.38.02.57.03,2.92,3.29,7.06,5.32,11.55,5.55,1.05.03,2.14,0,3.18-.15,2.85,3.5,6.88,5.77,11.43,6.34,4.61.56,8.47-.62,11.68-2.5.8.98,1.68,2.03,2.61,3.15,5.15,6.18,14.01,7.75,20.97,3.73l3-1.73c3.67,6.03,9.49,9.61,16.05,9.86.27.01.54.01.8.01,8.97,0,14.71-5.82,18.96-11.54,4.69,2.43,11.04,5.23,19.75,8.46,5.5,2.05,11.65,1.03,16.2-2.68,6.91-5.63,14.39-11.2,20.86-15.67,0,.02.02.04.03.05,2.98,5.16,8.87,8.38,14.5,8.25,5.97-.06,11.45-3.36,14.32-8.59,1.03-1.87,2.32-3.89,3.63-5.73.62-.47,1.29-.96,2.01-1.47,4.42,1.57,9.45,1.27,13.82-1.25,3.98-2.3,6.65-6,7.73-10.12l33.18-19.16c7.04-4.06,9.97-12.54,7.25-19.97,9.88-.25,18.76-7.78,28.85-16.35,1.59-1.35,3.72-3.16,5.35-4.46.1-.03.21-.06.31-.1,1.47-.36,2.92-.93,4.29-1.73,2.28-1.31,4.1-3.1,5.47-5.15.53-.53,1.06-1.06,1.57-1.59,1.13.7,2.36,1.47,3.22,2.05,3.46,4.58,8.26,7.35,13.75,7.87.65.06,1.29.09,1.92.09,11.48,0,19.97-9.85,27.5-18.58.78-.9,1.75-2.03,2.64-3.03,1.25-.32,2.48-.82,3.65-1.49,6.97-4.03,9.35-12.93,5.33-19.9-2.61-4.52-7.05-7.4-12.17-7.88ZM2051.94,721.5s.04.06.06.1l-3.11,6.84c-1.47,3.23-1.82,6.74-1.17,10.05-1.84,3.27-2.8,6.06-2.88,8.77-.3,2.12-.19,4.32.38,6.46-5.46,5.52-6.39,14.25-1.94,20.85-.06.07-.11.13-.17.2-3.22,2.41-6.46,5.62-9.77,9.69-4.73,3.81-5.82,6.86-6.63,9.11-.02.06-.04.12-.06.18-3.12,2.16-6.27,4.49-9.3,6.94-2.8,1.17-5.12,3.01-7.02,5.03-1.63-1.48-3.62-2.63-5.89-3.26-2.46-.68-4.93-.69-7.25-.14-3.13-3.76-8.02-5.75-12.97-5.11-4.25.51-7.98,2.89-10.3,6.33-3.16-4.14-7.72-6.62-12.82-6.87-.66-.04-1.3-.02-1.92,0-2.22-.01-4.45.44-6.79,1.39-6.18-9.04-14.34-9.47-17.72-9.18-1.88.15-3.63.58-5.26,1.21-2.31-.6-4.34-.57-5.59-.42-3.4.37-6.02,1.63-8.05,3.29-2.73-2.46-6.19-3.94-9.88-4.1-2.48-.11-4.62.32-6.51,1.06-6.16-2.6-14.43-5.17-25.49-8.61-17.93-5.57-55.22-17.16-60.75-26.72-5.63-9.76-14.22-9.09-16.69-8.64-3.43.61-9.1,2.77-11.8,10.5-2.53,4.36-2.72,9.92-.01,14.61,2.31,3.99,6.49,6.75,11,7.41,13.92,12.58,39.13,21.19,69.61,30.66,8.95,2.78,20.99,6.52,24.89,8.55,2.58,2.73,6.16,4.41,9.98,4.58.24.01.48.01.73.01,3.14,0,5.97-.95,8.49-2.81,1.26,1.68,2.79,3.06,4.5,4.09,2.68,4.21,7.33,6.73,12.3,6.73.38,0,.75-.01,1.14-.04,3.93-.31,7.5-2.2,9.98-5.12.45.72.95,1.42,1.54,2.07.38.42.77.81,1.18,1.17,2.58,3.31,6.51,5.39,10.76,5.61.28.01.56.02.84.02,2.46,0,4.53-.58,6.26-1.42,2.14-.86,4.43-1.97,6.6-3.36,6.11,7.5,13.45,7.58,16.62,7.17.26-.03.51-.07.76-.11,4.32,3.88,8.9,4.7,11.98,4.7.39,0,.75-.02,1.09-.04.45,2.53,1.27,4.98,2.47,7.32-1.67.23-3.34.71-4.94,1.48-13.75,6.63-24.94,12.46-34.06,17.58-9.01.28-18.15,5.07-22.86,7.54-.06.03-.11.06-.17.09-5.33-.86-16.3-.98-50.77,25.94-4.28-1.83-8.02-3.6-9.95-4.75-3.65-4.69-8.81-7.45-14.53-7.66-6.67-.29-11.74,2.75-15.63,6.65-5.09-5.87-13.78-7.49-20.74-3.46l-5.05,2.92c-.88-1.11-1.54-1.97-1.89-2.46-2.85-4.58-7.48-7.57-12.8-8.24-2.19-.28-4.21-.15-6.07.26-3.36-3.59-7.94-5.77-12.89-6.01-.43-.02-.83-.02-1.3-.02-3.08-2.72-6.98-4.37-11.15-4.63-1.99-.12-3.96.06-5.9.56-.74-1.16-1.29-2.02-1.5-2.37-1.96-3.41-5.05-5.97-8.67-7.29-2.09-1.93-4.68-3.3-7.51-3.94-1.35-.31-2.71-.45-4.07-.41-.35-1.01-.79-2-1.33-2.93-2.73-4.71-7.92-8.01-13.34-8.44-.61-.05-1.2-.08-1.78-.05-1.81-3.88-3.26-7.04-3.27-7.04-1.64-3.53-4.44-6.28-7.84-7.89-.29-.72-.65-1.4-1.05-2.12-2-3.46-4.93-6.13-8.35-7.72-.65-2.73-1.27-3.8-1.99-5.04-.85-1.48-1.9-2.78-3.1-3.88-.23-.5-.48-.99-.75-1.47-2.06-3.57-4.91-6.3-8.21-8.01-.48-3.48-1.42-7.12-3.4-10.56-1.45-2.5-3.5-4.53-5.93-5.94.01-.1.02-.19.03-.29.31-3.19-.31-6.4-1.79-9.23-.34-.89-.77-1.77-1.28-2.62-.21-.35-.43-.69-.66-1.01-.33-1.89-.98-3.73-1.98-5.44-.45-.78-.98-1.53-1.57-2.24-.21-3.47-1.08-6.93-2.93-10.15-.4-.68-.82-1.32-1.27-1.94.26-3.31-.48-6.65-2.17-9.56-.29-.5-.6-.96-.92-1.43.6-3.95.35-8-1.12-12-.17-2.03-.54-3.96-1.19-5.79,0-.53-.03-1.07-.09-1.6,1.4-4.74,1.51-10.13-1.54-15.73.91-4.97.26-9.51-1.93-13.62,0-1.44-.13-2.76-.44-4.04l1.28-3.49c.4-.69.77-1.42,1.1-2.22,1.96-4.71,1.76-9.93-.53-14.49l3.62-6.89c.72-1.36,1.22-2.79,1.53-4.24,2.8-4.77,3.05-9.3,2.04-13.29.95-1.93,2.04-3.99,2.74-5.31,2.91-5.52,5.71-10.82,5.4-16.44,2.84-2.72,5.57-6.34,6.21-10.77,2.88-2.56,4.65-5.93,5.28-9.48,1.33.39,2.72.63,4.15.7,4.19.19,7.62-.93,10.44-2.64l4.11,4.52c4.97,5.45,12.83,6.89,19.31,3.81,3.1,3.88,7.5,6.35,12.43,6.89,7.72.88,13.52-2.92,18.09-7.19,2.66,2.06,5.45,4.23,6.51,5.15,2.3,2.35,5.29,4.05,8.46,4.76,3.76.84,7.03.91,13.09-1.88,2.22,1.37,4.76,2.22,7.43,2.43.43.04.86.05,1.29.05,4.18,0,8.19-1.59,11.24-4.41,2.19,1.7,4.79,2.9,7.45,3.39,9.12,1.7,15.24-3.35,26.28-12.46,2.95-2.43,7.62-6.28,11.26-8.9,9.56,3.3,21.35-.48,29.37-3.07,2.78-.89,6.96-2.24,9.8-2.86,1.49.99,3.14,1.74,4.9,2.21,4.24,1.13,8.75.54,12.54-1.65l75.44-43.55c.46.09.93.18,1.41.24l.28.03c.33.78.68,1.49,1.09,2.19,2.14,3.67,5.62,6.4,9.69,7.59.24.57.53,1.13.84,1.68,1.27,2.21,2.93,4.06,4.86,5.51,1.43,1.59,3.15,2.88,5.05,3.81.28.58.55,1.04.77,1.42,2.24,3.85,5.98,6.67,10.27,7.77,1.4,5.11,2.08,6.28,2.78,7.5,1.08,1.88,2.5,3.52,4.17,4.84.32.83.71,1.67,1.2,2.5.58,1.01,1.26,1.96,2.01,2.82.31.84.7,1.65,1.15,2.43,1.57,2.73,3.68,4.93,6.14,6.51l.21,5.31c.16,3.87,1.65,7.49,4.14,10.29-.51,3.61.19,7.33,2.05,10.55.89,1.54,1.97,2.92,3.2,4.11-1.37,9.38-1.32,12.93.58,16.83-.54,3.38-.22,6.52,1.1,9.61-.8,3.96-.48,8.26,2.05,12.65.36.62.75,1.22,1.19,1.78-3.04,7.49-4.95,16.47.02,25.1l-1.12,2.55c-2.13,4.82-1.82,10.37.81,14.93Z"/><path class="cls-1" d="M385.6,873.14c-2.56-4.44-6.91-7.39-11.92-8.09-6.4-.92-11.88,1.96-16.38,5.52-7.05-3.12-17.13-6.39-31.83-11.03-23.71-7.49-67.85-21.43-75.15-34.07-4.94-8.55-12.32-9.04-15.36-8.85-5.66.36-10.12,3.39-13.4,9.3-4.38,4.55-5.42,11.62-2.11,17.37,2.76,4.81,8.46,7.93,13.92,7.57.23-.02.46-.04.68-.06,16.35,14.69,46.34,25.06,82.66,36.53,11.95,3.77,26.67,8.43,31.07,10.96,2.29,2.6,5.47,4.35,8.95,4.84.78.11,1.51.16,2.21.16,6,0,9.8-3.66,12.65-6.4.47-.46,1.23-1.19,2.01-1.91,2.27-.1,4.56-.73,6.66-1.94,6.97-4.02,9.35-12.93,5.34-19.9Z"/><path class="cls-1" d="M1860.2,290.27c-.99-1.61-2.14-3.06-3.44-4.34-.97-3.56-2.81-6.87-5.4-9.62-3.84-4.06-9.01-6.41-14.48-6.92-.94-1.6-1.79-3.24-3.14-4.61-7.97-8.07-20.67-9.03-29.76-2.25l-4.21,3.14c-1.24.92-2.38,1.97-3.4,3.11l-1.37,1.53-1.76,1.09c-1.03.63-1.99,1.35-2.9,2.13l-5.66,4.62c-12.07-1.27-23.08,7.28-24.81,19.41-.59,4.14-.02,8.19,1.46,11.8-1.6,4.22-1.95,8.93-.78,13.58,1.29,5.12,4.24,9.43,8.17,12.46.69,6.58,4.23,12.58,9.73,16.36,3.34,3.11,7.45,5.07,11.76,5.79,2.48,2.74,5.6,4.86,9.15,6.14,2.5.9,5.1,1.35,7.71,1.35,3.4,0,6.81-.76,9.92-2.28l7.58-3.35c2.14-.85,4.14-2.03,5.92-3.48l1.12-.92,1.35-.52c1.72-.67,3.36-1.55,4.87-2.61l6.91-4.75,7.35-3.81c11.22-5.64,15.75-19.3,10.11-30.52-.22-.43-.52-.78-.76-1.19,3.04-6.65,2.83-14.63-1.28-21.34Z"/></g></svg>